<svg width="48" height="48" viewBox="0 0 48 48" fill="none" xmlns="http://www.w3.org/2000/svg">
<g filter="url(#filter0_i_35_289)">
<path d="M22.4624 15H36.9525C38.9924 15 40.8224 16.215 41.6324 18.06C41.6347 18.0668 41.6369 18.0736 41.6392 18.0804C41.6725 18.1541 41.7191 18.2599 41.7374 18.315L44.1974 24.87C44.4499 25.5533 44.6436 26.266 44.7639 26.979C44.7701 26.986 44.7762 26.993 44.7824 27C44.9174 27.735 44.9924 28.5 44.9924 29.265V36H2.99243L3.18744 30C3.74243 28.26 5.37747 27 7.31244 27H11.9624L18.5174 17.235C19.4024 15.915 20.8724 15.06 22.4624 15Z" fill="url(#paint0_linear_35_289)"/>
</g>
<path d="M22.4624 15H36.9525C38.9924 15 40.8224 16.215 41.6324 18.06C41.6347 18.0668 41.6369 18.0736 41.6392 18.0804C41.6725 18.1541 41.7191 18.2599 41.7374 18.315L44.1974 24.87C44.4499 25.5533 44.6436 26.266 44.7639 26.979C44.7701 26.986 44.7762 26.993 44.7824 27C44.9174 27.735 44.9924 28.5 44.9924 29.265V36H2.99243L3.18744 30C3.74243 28.26 5.37747 27 7.31244 27H11.9624L18.5174 17.235C19.4024 15.915 20.8724 15.06 22.4624 15Z" fill="url(#paint1_radial_35_289)"/>
<g filter="url(#filter1_f_35_289)">
<path fill-rule="evenodd" clip-rule="evenodd" d="M15.0332 26.7682C15.0403 26.3301 15.1386 25.3439 15.7708 24.8222C16.1789 24.4855 16.8267 24.4108 17.3576 24.4531C17.8003 24.4885 18.0677 24.8824 18.0677 25.3128V26.7682V28.2236C18.0677 28.6541 17.8003 29.0479 17.3576 29.0833C16.8267 29.1257 16.1789 29.0509 15.7708 28.7142C15.1386 28.1926 15.0403 27.2064 15.0332 26.7682Z" fill="#94154B"/>
</g>
<path d="M17.9924 18L11.9478 27H22.5374C23.3324 27 23.9774 26.355 23.9774 25.56V19.44C23.9774 18.645 23.3324 18 22.5374 18H17.9924Z" fill="url(#paint2_linear_35_289)"/>
<path d="M17.9924 18L11.9478 27H22.5374C23.3324 27 23.9774 26.355 23.9774 25.56V19.44C23.9774 18.645 23.3324 18 22.5374 18H17.9924Z" fill="url(#paint3_linear_35_289)"/>
<path d="M17.9924 18L11.9478 27H22.5374C23.3324 27 23.9774 26.355 23.9774 25.56V19.44C23.9774 18.645 23.3324 18 22.5374 18H17.9924Z" fill="url(#paint4_linear_35_289)"/>
<path d="M17.9924 18L11.9478 27H22.5374C23.3324 27 23.9774 26.355 23.9774 25.56V19.44C23.9774 18.645 23.3324 18 22.5374 18H17.9924Z" fill="url(#paint5_linear_35_289)"/>
<path d="M42.9074 39H5.07743C3.92243 39 2.99243 38.07 2.99243 36.915V36H44.9924V36.915C44.9924 38.07 44.0624 39 42.9074 39Z" fill="#9989AA"/>
<path d="M42.9074 39H5.07743C3.92243 39 2.99243 38.07 2.99243 36.915V36H44.9924V36.915C44.9924 38.07 44.0624 39 42.9074 39Z" fill="url(#paint6_linear_35_289)"/>
<path d="M42.9074 39H5.07743C3.92243 39 2.99243 38.07 2.99243 36.915V36H44.9924V36.915C44.9924 38.07 44.0624 39 42.9074 39Z" fill="url(#paint7_linear_35_289)"/>
<path d="M42.9074 39H5.07743C3.92243 39 2.99243 38.07 2.99243 36.915V36H44.9924V36.915C44.9924 38.07 44.0624 39 42.9074 39Z" fill="url(#paint8_linear_35_289)"/>
<g filter="url(#filter2_i_35_289)">
<path d="M34.5076 27H28.4476C27.6526 27 27.0076 26.355 27.0076 25.56V19.44C27.0076 18.645 27.6526 18 28.4476 18H34.5076C35.3026 18 35.9476 18.645 35.9476 19.44V25.56C35.9476 26.355 35.3026 27 34.5076 27Z" fill="url(#paint9_linear_35_289)"/>
</g>
<path d="M44.1974 24.87L41.7374 18.315C41.7074 18.225 41.6024 18 41.6024 18H40.5224C39.6674 18 38.9624 18.705 38.9624 19.56V25.56C38.9624 26.355 39.6074 27 40.4024 27H44.7674C44.6474 26.28 44.4524 25.56 44.1974 24.87Z" fill="url(#paint10_linear_35_289)"/>
<path d="M44.1974 24.87L41.7374 18.315C41.7074 18.225 41.6024 18 41.6024 18H40.5224C39.6674 18 38.9624 18.705 38.9624 19.56V25.56C38.9624 26.355 39.6074 27 40.4024 27H44.7674C44.6474 26.28 44.4524 25.56 44.1974 24.87Z" fill="url(#paint11_linear_35_289)"/>
<path d="M44.1974 24.87L41.7374 18.315C41.7074 18.225 41.6024 18 41.6024 18H40.5224C39.6674 18 38.9624 18.705 38.9624 19.56V25.56C38.9624 26.355 39.6074 27 40.4024 27H44.7674C44.6474 26.28 44.4524 25.56 44.1974 24.87Z" fill="url(#paint12_linear_35_289)"/>
<path fill-rule="evenodd" clip-rule="evenodd" d="M18.4734 39C18.5194 38.706 18.5432 38.4046 18.5432 38.0977C18.5432 34.894 15.9461 32.2969 12.7424 32.2969C9.53875 32.2969 6.94165 34.894 6.94165 38.0977C6.94165 38.4046 6.96549 38.706 7.01141 39H18.4734Z" fill="url(#paint13_linear_35_289)"/>
<path fill-rule="evenodd" clip-rule="evenodd" d="M40.9734 39C41.0194 38.706 41.0432 38.4046 41.0432 38.0977C41.0432 34.894 38.4461 32.2969 35.2424 32.2969C32.0387 32.2969 29.4417 34.894 29.4417 38.0977C29.4417 38.4046 29.4655 38.706 29.5114 39H40.9734Z" fill="url(#paint14_linear_35_289)"/>
<path d="M5.97743 33V31.5C5.97743 30.675 5.30243 30 4.47743 30H3.20243C3.05243 30.435 2.99243 30.9 2.99243 31.905V34.5H4.47743C5.30243 34.5 5.97743 33.825 5.97743 33Z" fill="#F7DA4C"/>
<g filter="url(#filter3_ii_35_289)">
<path d="M35.2424 43.5C38.1419 43.5 40.4924 41.1495 40.4924 38.25C40.4924 35.3505 38.1419 33 35.2424 33C32.3429 33 29.9924 35.3505 29.9924 38.25C29.9924 41.1495 32.3429 43.5 35.2424 43.5Z" fill="url(#paint15_linear_35_289)"/>
<path d="M35.2424 43.5C38.1419 43.5 40.4924 41.1495 40.4924 38.25C40.4924 35.3505 38.1419 33 35.2424 33C32.3429 33 29.9924 35.3505 29.9924 38.25C29.9924 41.1495 32.3429 43.5 35.2424 43.5Z" fill="url(#paint16_radial_35_289)"/>
</g>
<g filter="url(#filter4_ii_35_289)">
<path d="M35.2424 40.5C36.4851 40.5 37.4924 39.4926 37.4924 38.25C37.4924 37.0074 36.4851 36 35.2424 36C33.9998 36 32.9924 37.0074 32.9924 38.25C32.9924 39.4926 33.9998 40.5 35.2424 40.5Z" fill="#D9C3F0"/>
</g>
<path d="M44.9776 30H44.2276C42.9526 30 41.9176 31.065 41.9776 32.355C42.0376 33.57 43.0876 34.5 44.3026 34.5H44.9776V30Z" fill="url(#paint17_radial_35_289)"/>
<g filter="url(#filter5_f_35_289)">
<circle cx="35.6355" cy="37.7892" r="3.70312" stroke="url(#paint18_linear_35_289)" stroke-width="0.85"/>
</g>
<g filter="url(#filter6_ii_35_289)">
<path d="M12.7725 43.5C15.672 43.5 18.0225 41.1495 18.0225 38.25C18.0225 35.3505 15.672 33 12.7725 33C9.87297 33 7.52246 35.3505 7.52246 38.25C7.52246 41.1495 9.87297 43.5 12.7725 43.5Z" fill="url(#paint19_linear_35_289)"/>
<path d="M12.7725 43.5C15.672 43.5 18.0225 41.1495 18.0225 38.25C18.0225 35.3505 15.672 33 12.7725 33C9.87297 33 7.52246 35.3505 7.52246 38.25C7.52246 41.1495 9.87297 43.5 12.7725 43.5Z" fill="url(#paint20_radial_35_289)"/>
</g>
<g filter="url(#filter7_ii_35_289)">
<path d="M12.7424 40.5C13.9851 40.5 14.9924 39.4926 14.9924 38.25C14.9924 37.0074 13.9851 36 12.7424 36C11.4998 36 10.4924 37.0074 10.4924 38.25C10.4924 39.4926 11.4998 40.5 12.7424 40.5Z" fill="#D9C3F0"/>
</g>
<g filter="url(#filter8_f_35_289)">
<circle cx="13.0417" cy="37.7892" r="3.70312" stroke="url(#paint21_linear_35_289)" stroke-width="0.85"/>
</g>
<path fill-rule="evenodd" clip-rule="evenodd" d="M15.2275 26.2406C15.2347 25.8025 15.3329 24.8163 15.9651 24.2946C16.3732 23.9579 17.021 23.8832 17.5519 23.9256C17.9946 23.9609 18.262 24.3548 18.262 24.7853V26.2406V27.696C18.262 28.1265 17.9946 28.5204 17.5519 28.5557C17.021 28.5981 16.3732 28.5233 15.9651 28.1866C15.3329 27.665 15.2347 26.6788 15.2275 26.2406Z" fill="url(#paint22_radial_35_289)"/>
<path fill-rule="evenodd" clip-rule="evenodd" d="M15.2275 26.2406C15.2347 25.8025 15.3329 24.8163 15.9651 24.2946C16.3732 23.9579 17.021 23.8832 17.5519 23.9256C17.9946 23.9609 18.262 24.3548 18.262 24.7853V26.2406V27.696C18.262 28.1265 17.9946 28.5204 17.5519 28.5557C17.021 28.5981 16.3732 28.5233 15.9651 28.1866C15.3329 27.665 15.2347 26.6788 15.2275 26.2406Z" fill="url(#paint23_linear_35_289)"/>
<g filter="url(#filter9_f_35_289)">
<path d="M17.8306 24.3713V27.922C16.7525 27.0783 16.522 25.1603 16.5532 24.4533C16.9938 24.2939 17.5884 24.3322 17.8306 24.3713Z" fill="url(#paint24_radial_35_289)"/>
</g>
<defs>
<filter id="filter0_i_35_289" x="2.49243" y="15" width="42.5" height="21" filterUnits="userSpaceOnUse" color-interpolation-filters="sRGB">
<feFlood flood-opacity="0" result="BackgroundImageFix"/>
<feBlend mode="normal" in="SourceGraphic" in2="BackgroundImageFix" result="shape"/>
<feColorMatrix in="SourceAlpha" type="matrix" values="0 0 0 0 0 0 0 0 0 0 0 0 0 0 0 0 0 0 127 0" result="hardAlpha"/>
<feOffset dx="-0.5"/>
<feGaussianBlur stdDeviation="0.25"/>
<feComposite in2="hardAlpha" operator="arithmetic" k2="-1" k3="1"/>
<feColorMatrix type="matrix" values="0 0 0 0 0.745098 0 0 0 0 0.137255 0 0 0 0 0.192157 0 0 0 1 0"/>
<feBlend mode="normal" in2="shape" result="effect1_innerShadow_35_289"/>
</filter>
<filter id="filter1_f_35_289" x="14.6332" y="24.0424" width="3.83442" height="5.45173" filterUnits="userSpaceOnUse" color-interpolation-filters="sRGB">
<feFlood flood-opacity="0" result="BackgroundImageFix"/>
<feBlend mode="normal" in="SourceGraphic" in2="BackgroundImageFix" result="shape"/>
<feGaussianBlur stdDeviation="0.2" result="effect1_foregroundBlur_35_289"/>
</filter>
<filter id="filter2_i_35_289" x="26.2576" y="18" width="9.68994" height="10" filterUnits="userSpaceOnUse" color-interpolation-filters="sRGB">
<feFlood flood-opacity="0" result="BackgroundImageFix"/>
<feBlend mode="normal" in="SourceGraphic" in2="BackgroundImageFix" result="shape"/>
<feColorMatrix in="SourceAlpha" type="matrix" values="0 0 0 0 0 0 0 0 0 0 0 0 0 0 0 0 0 0 127 0" result="hardAlpha"/>
<feOffset dx="-0.75" dy="1"/>
<feGaussianBlur stdDeviation="0.5"/>
<feComposite in2="hardAlpha" operator="arithmetic" k2="-1" k3="1"/>
<feColorMatrix type="matrix" values="0 0 0 0 0.168627 0 0 0 0 0.45098 0 0 0 0 0.964706 0 0 0 1 0"/>
<feBlend mode="normal" in2="shape" result="effect1_innerShadow_35_289"/>
</filter>
<filter id="filter3_ii_35_289" x="29.9924" y="33" width="10.5" height="10.65" filterUnits="userSpaceOnUse" color-interpolation-filters="sRGB">
<feFlood flood-opacity="0" result="BackgroundImageFix"/>
<feBlend mode="normal" in="SourceGraphic" in2="BackgroundImageFix" result="shape"/>
<feColorMatrix in="SourceAlpha" type="matrix" values="0 0 0 0 0 0 0 0 0 0 0 0 0 0 0 0 0 0 127 0" result="hardAlpha"/>
<feOffset/>
<feGaussianBlur stdDeviation="0.5"/>
<feComposite in2="hardAlpha" operator="arithmetic" k2="-1" k3="1"/>
<feColorMatrix type="matrix" values="0 0 0 0 0.145098 0 0 0 0 0.0823529 0 0 0 0 0.215686 0 0 0 1 0"/>
<feBlend mode="normal" in2="shape" result="effect1_innerShadow_35_289"/>
<feColorMatrix in="SourceAlpha" type="matrix" values="0 0 0 0 0 0 0 0 0 0 0 0 0 0 0 0 0 0 127 0" result="hardAlpha"/>
<feOffset dy="0.15"/>
<feGaussianBlur stdDeviation="0.125"/>
<feComposite in2="hardAlpha" operator="arithmetic" k2="-1" k3="1"/>
<feColorMatrix type="matrix" values="0 0 0 0 0.207843 0 0 0 0 0.0313726 0 0 0 0 0.235294 0 0 0 1 0"/>
<feBlend mode="normal" in2="effect1_innerShadow_35_289" result="effect2_innerShadow_35_289"/>
</filter>
<filter id="filter4_ii_35_289" x="32.9424" y="35.95" width="4.6" height="4.6" filterUnits="userSpaceOnUse" color-interpolation-filters="sRGB">
<feFlood flood-opacity="0" result="BackgroundImageFix"/>
<feBlend mode="normal" in="SourceGraphic" in2="BackgroundImageFix" result="shape"/>
<feColorMatrix in="SourceAlpha" type="matrix" values="0 0 0 0 0 0 0 0 0 0 0 0 0 0 0 0 0 0 127 0" result="hardAlpha"/>
<feOffset dx="0.05" dy="-0.05"/>
<feGaussianBlur stdDeviation="0.05"/>
<feComposite in2="hardAlpha" operator="arithmetic" k2="-1" k3="1"/>
<feColorMatrix type="matrix" values="0 0 0 0 0.478431 0 0 0 0 0.364706 0 0 0 0 0.584314 0 0 0 1 0"/>
<feBlend mode="normal" in2="shape" result="effect1_innerShadow_35_289"/>
<feColorMatrix in="SourceAlpha" type="matrix" values="0 0 0 0 0 0 0 0 0 0 0 0 0 0 0 0 0 0 127 0" result="hardAlpha"/>
<feOffset dx="-0.05" dy="0.05"/>
<feGaussianBlur stdDeviation="0.05"/>
<feComposite in2="hardAlpha" operator="arithmetic" k2="-1" k3="1"/>
<feColorMatrix type="matrix" values="0 0 0 0 0.807843 0 0 0 0 0.764706 0 0 0 0 0.858824 0 0 0 1 0"/>
<feBlend mode="normal" in2="effect1_innerShadow_35_289" result="effect2_innerShadow_35_289"/>
</filter>
<filter id="filter5_f_35_289" x="30.7573" y="32.911" width="9.75635" height="9.75635" filterUnits="userSpaceOnUse" color-interpolation-filters="sRGB">
<feFlood flood-opacity="0" result="BackgroundImageFix"/>
<feBlend mode="normal" in="SourceGraphic" in2="BackgroundImageFix" result="shape"/>
<feGaussianBlur stdDeviation="0.375" result="effect1_foregroundBlur_35_289"/>
</filter>
<filter id="filter6_ii_35_289" x="7.52246" y="33" width="10.5" height="10.65" filterUnits="userSpaceOnUse" color-interpolation-filters="sRGB">
<feFlood flood-opacity="0" result="BackgroundImageFix"/>
<feBlend mode="normal" in="SourceGraphic" in2="BackgroundImageFix" result="shape"/>
<feColorMatrix in="SourceAlpha" type="matrix" values="0 0 0 0 0 0 0 0 0 0 0 0 0 0 0 0 0 0 127 0" result="hardAlpha"/>
<feOffset/>
<feGaussianBlur stdDeviation="0.5"/>
<feComposite in2="hardAlpha" operator="arithmetic" k2="-1" k3="1"/>
<feColorMatrix type="matrix" values="0 0 0 0 0.145098 0 0 0 0 0.0823529 0 0 0 0 0.215686 0 0 0 1 0"/>
<feBlend mode="normal" in2="shape" result="effect1_innerShadow_35_289"/>
<feColorMatrix in="SourceAlpha" type="matrix" values="0 0 0 0 0 0 0 0 0 0 0 0 0 0 0 0 0 0 127 0" result="hardAlpha"/>
<feOffset dy="0.15"/>
<feGaussianBlur stdDeviation="0.125"/>
<feComposite in2="hardAlpha" operator="arithmetic" k2="-1" k3="1"/>
<feColorMatrix type="matrix" values="0 0 0 0 0.207843 0 0 0 0 0.0313726 0 0 0 0 0.235294 0 0 0 1 0"/>
<feBlend mode="normal" in2="effect1_innerShadow_35_289" result="effect2_innerShadow_35_289"/>
</filter>
<filter id="filter7_ii_35_289" x="10.4424" y="35.95" width="4.6" height="4.6" filterUnits="userSpaceOnUse" color-interpolation-filters="sRGB">
<feFlood flood-opacity="0" result="BackgroundImageFix"/>
<feBlend mode="normal" in="SourceGraphic" in2="BackgroundImageFix" result="shape"/>
<feColorMatrix in="SourceAlpha" type="matrix" values="0 0 0 0 0 0 0 0 0 0 0 0 0 0 0 0 0 0 127 0" result="hardAlpha"/>
<feOffset dx="0.05" dy="-0.05"/>
<feGaussianBlur stdDeviation="0.05"/>
<feComposite in2="hardAlpha" operator="arithmetic" k2="-1" k3="1"/>
<feColorMatrix type="matrix" values="0 0 0 0 0.478431 0 0 0 0 0.364706 0 0 0 0 0.584314 0 0 0 1 0"/>
<feBlend mode="normal" in2="shape" result="effect1_innerShadow_35_289"/>
<feColorMatrix in="SourceAlpha" type="matrix" values="0 0 0 0 0 0 0 0 0 0 0 0 0 0 0 0 0 0 127 0" result="hardAlpha"/>
<feOffset dx="-0.05" dy="0.05"/>
<feGaussianBlur stdDeviation="0.05"/>
<feComposite in2="hardAlpha" operator="arithmetic" k2="-1" k3="1"/>
<feColorMatrix type="matrix" values="0 0 0 0 0.807843 0 0 0 0 0.764706 0 0 0 0 0.858824 0 0 0 1 0"/>
<feBlend mode="normal" in2="effect1_innerShadow_35_289" result="effect2_innerShadow_35_289"/>
</filter>
<filter id="filter8_f_35_289" x="8.16357" y="32.911" width="9.75635" height="9.75635" filterUnits="userSpaceOnUse" color-interpolation-filters="sRGB">
<feFlood flood-opacity="0" result="BackgroundImageFix"/>
<feBlend mode="normal" in="SourceGraphic" in2="BackgroundImageFix" result="shape"/>
<feGaussianBlur stdDeviation="0.375" result="effect1_foregroundBlur_35_289"/>
</filter>
<filter id="filter9_f_35_289" x="16.3505" y="24.1369" width="1.68003" height="3.98508" filterUnits="userSpaceOnUse" color-interpolation-filters="sRGB">
<feFlood flood-opacity="0" result="BackgroundImageFix"/>
<feBlend mode="normal" in="SourceGraphic" in2="BackgroundImageFix" result="shape"/>
<feGaussianBlur stdDeviation="0.1" result="effect1_foregroundBlur_35_289"/>
</filter>
<linearGradient id="paint0_linear_35_289" x1="3.87354" y1="27.758" x2="25.9048" y2="27.758" gradientUnits="userSpaceOnUse">
<stop stop-color="#DF378A"/>
<stop offset="1" stop-color="#ED334E"/>
</linearGradient>
<radialGradient id="paint1_radial_35_289" cx="0" cy="0" r="1" gradientUnits="userSpaceOnUse" gradientTransform="translate(41.0446 16.208) rotate(136.332) scale(3.27207 5.75354)">
<stop stop-color="#FF4D5A"/>
<stop offset="1" stop-color="#FF4D5A" stop-opacity="0"/>
</radialGradient>
<linearGradient id="paint2_linear_35_289" x1="22.061" y1="20.1642" x2="13.7173" y2="27" gradientUnits="userSpaceOnUse">
<stop stop-color="#3398F0"/>
<stop offset="1" stop-color="#57E8FF"/>
</linearGradient>
<linearGradient id="paint3_linear_35_289" x1="23.9774" y1="25.7892" x2="21.2173" y2="25.7892" gradientUnits="userSpaceOnUse">
<stop stop-color="#2372D7"/>
<stop offset="1" stop-color="#2372D7" stop-opacity="0"/>
</linearGradient>
<linearGradient id="paint4_linear_35_289" x1="21.2173" y1="17.1642" x2="21.2173" y2="25.883" gradientUnits="userSpaceOnUse">
<stop offset="0.225806" stop-color="#2372D7"/>
<stop offset="1" stop-color="#2372D7" stop-opacity="0"/>
</linearGradient>
<linearGradient id="paint5_linear_35_289" x1="11.9478" y1="27" x2="17.9626" y2="27" gradientUnits="userSpaceOnUse">
<stop stop-color="#5EEEFF"/>
<stop offset="0.652683" stop-color="#40ACF4"/>
<stop offset="1" stop-color="#40ACF4" stop-opacity="0"/>
</linearGradient>
<linearGradient id="paint6_linear_35_289" x1="2.99243" y1="37.5" x2="4.32717" y2="37.5" gradientUnits="userSpaceOnUse">
<stop stop-color="#847F89"/>
<stop offset="1" stop-color="#847F89" stop-opacity="0"/>
</linearGradient>
<linearGradient id="paint7_linear_35_289" x1="44.9924" y1="37.5" x2="42.6453" y2="37.5" gradientUnits="userSpaceOnUse">
<stop stop-color="#847F89"/>
<stop offset="1" stop-color="#847F89" stop-opacity="0"/>
</linearGradient>
<linearGradient id="paint8_linear_35_289" x1="23.9924" y1="39" x2="23.9924" y2="37.7423" gradientUnits="userSpaceOnUse">
<stop stop-color="#734995"/>
<stop offset="1" stop-color="#734995" stop-opacity="0"/>
</linearGradient>
<linearGradient id="paint9_linear_35_289" x1="32.9362" y1="20.9142" x2="27.0076" y2="27.8517" gradientUnits="userSpaceOnUse">
<stop stop-color="#40A4FF"/>
<stop offset="1" stop-color="#5BF6FF"/>
</linearGradient>
<linearGradient id="paint10_linear_35_289" x1="43.061" y1="22.5" x2="38.4673" y2="27" gradientUnits="userSpaceOnUse">
<stop stop-color="#3DA7FF"/>
<stop offset="1" stop-color="#4CF0F8"/>
</linearGradient>
<linearGradient id="paint11_linear_35_289" x1="39.6157" y1="18.8283" x2="40.647" y2="19.9767" gradientUnits="userSpaceOnUse">
<stop stop-color="#2588DA"/>
<stop offset="1" stop-color="#2588DA" stop-opacity="0"/>
</linearGradient>
<linearGradient id="paint12_linear_35_289" x1="45.3579" y1="27" x2="43.6235" y2="25.3673" gradientUnits="userSpaceOnUse">
<stop stop-color="#2588DA"/>
<stop offset="1" stop-color="#2588DA" stop-opacity="0"/>
</linearGradient>
<linearGradient id="paint13_linear_35_289" x1="12.7424" y1="32.2969" x2="12.7424" y2="38.8068" gradientUnits="userSpaceOnUse">
<stop stop-color="#64023B"/>
<stop offset="1" stop-color="#7E0B55"/>
</linearGradient>
<linearGradient id="paint14_linear_35_289" x1="35.2424" y1="32.2969" x2="35.2424" y2="38.8068" gradientUnits="userSpaceOnUse">
<stop stop-color="#64023B"/>
<stop offset="1" stop-color="#7E0B55"/>
</linearGradient>
<linearGradient id="paint15_linear_35_289" x1="32.8216" y1="36.9299" x2="40.7072" y2="36.9299" gradientUnits="userSpaceOnUse">
<stop offset="0.239044" stop-color="#34214F"/>
<stop offset="1" stop-color="#241337"/>
</linearGradient>
<radialGradient id="paint16_radial_35_289" cx="0" cy="0" r="1" gradientUnits="userSpaceOnUse" gradientTransform="translate(35.2424 37.7802) rotate(-65.5366) scale(2.86454 2.99192)">
<stop offset="0.523134" stop-color="#2D114D"/>
<stop offset="1" stop-color="#2B1249" stop-opacity="0"/>
</radialGradient>
<radialGradient id="paint17_radial_35_289" cx="0" cy="0" r="1" gradientUnits="userSpaceOnUse" gradientTransform="translate(44.9776 34.004) rotate(-120.532) scale(3.91796)">
<stop offset="0.418213" stop-color="#D32374"/>
<stop offset="1" stop-color="#B60160"/>
</radialGradient>
<linearGradient id="paint18_linear_35_289" x1="37.6531" y1="34.8512" x2="33.1543" y2="41.0638" gradientUnits="userSpaceOnUse">
<stop offset="0.0830122" stop-color="#615B6B"/>
<stop offset="0.390771" stop-color="#615B6B" stop-opacity="0"/>
<stop offset="0.692394" stop-color="#615B6B" stop-opacity="0"/>
<stop offset="0.934982" stop-color="#615B6B"/>
</linearGradient>
<linearGradient id="paint19_linear_35_289" x1="10.3516" y1="36.9299" x2="18.2372" y2="36.9299" gradientUnits="userSpaceOnUse">
<stop offset="0.239044" stop-color="#34214F"/>
<stop offset="1" stop-color="#241337"/>
</linearGradient>
<radialGradient id="paint20_radial_35_289" cx="0" cy="0" r="1" gradientUnits="userSpaceOnUse" gradientTransform="translate(12.7725 37.7802) rotate(-65.5366) scale(2.86454 2.99192)">
<stop offset="0.523134" stop-color="#2D114D"/>
<stop offset="1" stop-color="#2B1249" stop-opacity="0"/>
</radialGradient>
<linearGradient id="paint21_linear_35_289" x1="15.0593" y1="34.8512" x2="10.5605" y2="41.0638" gradientUnits="userSpaceOnUse">
<stop offset="0.0830122" stop-color="#615B6B"/>
<stop offset="0.390771" stop-color="#615B6B" stop-opacity="0"/>
<stop offset="0.692394" stop-color="#615B6B" stop-opacity="0"/>
<stop offset="0.934982" stop-color="#615B6B"/>
</linearGradient>
<radialGradient id="paint22_radial_35_289" cx="0" cy="0" r="1" gradientUnits="userSpaceOnUse" gradientTransform="translate(16.4712 27.6407) rotate(-46.2263) scale(2.71028 7.23395)">
<stop stop-color="#3A2557"/>
<stop offset="1" stop-color="#281F4A"/>
</radialGradient>
<linearGradient id="paint23_linear_35_289" x1="17.7876" y1="26.6063" x2="18.262" y2="26.6063" gradientUnits="userSpaceOnUse">
<stop stop-color="#281F4A" stop-opacity="0"/>
<stop offset="1" stop-color="#281F4A"/>
</linearGradient>
<radialGradient id="paint24_radial_35_289" cx="0" cy="0" r="1" gradientUnits="userSpaceOnUse" gradientTransform="translate(17.8306 24.5588) rotate(90) scale(3.36328 1.23633)">
<stop stop-color="#5E5866"/>
<stop offset="1" stop-color="#5E5866" stop-opacity="0"/>
</radialGradient>
</defs>
</svg>
