<svg width="50" height="50" viewBox="0 0 50 50" fill="none" xmlns="http://www.w3.org/2000/svg">
<rect x="21.4038" y="34.0164" width="7.14812" height="13.066" rx="0.25" fill="#5B363A"/>
<rect x="21.4038" y="34.0164" width="7.14812" height="13.066" rx="0.25" fill="url(#paint0_linear_33_89)"/>
<rect x="21.4038" y="34.0164" width="7.14812" height="13.066" rx="0.25" fill="url(#paint1_linear_33_89)"/>
<rect x="21.4038" y="34.0164" width="7.14812" height="13.066" rx="0.25" fill="url(#paint2_linear_33_89)"/>
<rect x="21.4038" y="34.0164" width="7.14812" height="13.066" rx="0.25" fill="url(#paint3_linear_33_89)"/>
<rect x="21.4038" y="34.0164" width="7.14812" height="13.066" rx="0.25" fill="url(#paint4_radial_33_89)"/>
<rect x="21.4038" y="34.0164" width="7.14812" height="13.066" rx="0.25" fill="url(#paint5_linear_33_89)"/>
<rect x="21.4038" y="34.0164" width="7.14812" height="13.066" rx="0.25" fill="url(#paint6_linear_33_89)"/>
<rect x="21.4038" y="34.0164" width="7.14812" height="13.066" rx="0.25" fill="url(#paint7_radial_33_89)"/>
<path d="M33.1352 11.4462C33.0011 11.4333 32.8979 11.3199 32.8983 11.1852C32.8983 11.1786 32.8983 11.1719 32.8983 11.1653C32.8983 6.78414 29.3467 3.23254 24.9656 3.23254C20.5845 3.23254 17.0329 6.78414 17.0329 11.1653C17.0329 11.1726 17.0329 11.18 17.0329 11.1874C17.0333 11.3219 16.9305 11.4353 16.7967 11.4486C12.6326 11.8619 9.38021 15.3752 9.38021 19.6481C9.38021 20.9925 9.70222 22.2617 10.2732 23.3828C10.3641 23.5612 10.3186 23.7803 10.1641 23.9077C8.3245 25.4251 7.15186 27.7221 7.15186 30.293C7.15186 34.8622 10.8559 38.5663 15.4251 38.5663H34.5309C39.1 38.5663 42.8041 34.8622 42.8041 30.293C42.8041 27.7221 41.6315 25.4251 39.7919 23.9077C39.6374 23.7803 39.5919 23.5613 39.6828 23.3828C40.2538 22.2617 40.5758 20.9925 40.5758 19.6481C40.5758 15.3669 37.3109 11.8483 33.1352 11.4462Z" fill="url(#paint8_radial_33_89)"/>
<path d="M33.1352 11.4462C33.0011 11.4333 32.8979 11.3199 32.8983 11.1852C32.8983 11.1786 32.8983 11.1719 32.8983 11.1653C32.8983 6.78414 29.3467 3.23254 24.9656 3.23254C20.5845 3.23254 17.0329 6.78414 17.0329 11.1653C17.0329 11.1726 17.0329 11.18 17.0329 11.1874C17.0333 11.3219 16.9305 11.4353 16.7967 11.4486C12.6326 11.8619 9.38021 15.3752 9.38021 19.6481C9.38021 20.9925 9.70222 22.2617 10.2732 23.3828C10.3641 23.5612 10.3186 23.7803 10.1641 23.9077C8.3245 25.4251 7.15186 27.7221 7.15186 30.293C7.15186 34.8622 10.8559 38.5663 15.4251 38.5663H34.5309C39.1 38.5663 42.8041 34.8622 42.8041 30.293C42.8041 27.7221 41.6315 25.4251 39.7919 23.9077C39.6374 23.7803 39.5919 23.5613 39.6828 23.3828C40.2538 22.2617 40.5758 20.9925 40.5758 19.6481C40.5758 15.3669 37.3109 11.8483 33.1352 11.4462Z" fill="url(#paint9_radial_33_89)"/>
<path d="M33.1352 11.4462C33.0011 11.4333 32.8979 11.3199 32.8983 11.1852C32.8983 11.1786 32.8983 11.1719 32.8983 11.1653C32.8983 6.78414 29.3467 3.23254 24.9656 3.23254C20.5845 3.23254 17.0329 6.78414 17.0329 11.1653C17.0329 11.1726 17.0329 11.18 17.0329 11.1874C17.0333 11.3219 16.9305 11.4353 16.7967 11.4486C12.6326 11.8619 9.38021 15.3752 9.38021 19.6481C9.38021 20.9925 9.70222 22.2617 10.2732 23.3828C10.3641 23.5612 10.3186 23.7803 10.1641 23.9077C8.3245 25.4251 7.15186 27.7221 7.15186 30.293C7.15186 34.8622 10.8559 38.5663 15.4251 38.5663H34.5309C39.1 38.5663 42.8041 34.8622 42.8041 30.293C42.8041 27.7221 41.6315 25.4251 39.7919 23.9077C39.6374 23.7803 39.5919 23.5613 39.6828 23.3828C40.2538 22.2617 40.5758 20.9925 40.5758 19.6481C40.5758 15.3669 37.3109 11.8483 33.1352 11.4462Z" fill="url(#paint10_radial_33_89)"/>
<path d="M33.1352 11.4462C33.0011 11.4333 32.8979 11.3199 32.8983 11.1852C32.8983 11.1786 32.8983 11.1719 32.8983 11.1653C32.8983 6.78414 29.3467 3.23254 24.9656 3.23254C20.5845 3.23254 17.0329 6.78414 17.0329 11.1653C17.0329 11.1726 17.0329 11.18 17.0329 11.1874C17.0333 11.3219 16.9305 11.4353 16.7967 11.4486C12.6326 11.8619 9.38021 15.3752 9.38021 19.6481C9.38021 20.9925 9.70222 22.2617 10.2732 23.3828C10.3641 23.5612 10.3186 23.7803 10.1641 23.9077C8.3245 25.4251 7.15186 27.7221 7.15186 30.293C7.15186 34.8622 10.8559 38.5663 15.4251 38.5663H34.5309C39.1 38.5663 42.8041 34.8622 42.8041 30.293C42.8041 27.7221 41.6315 25.4251 39.7919 23.9077C39.6374 23.7803 39.5919 23.5613 39.6828 23.3828C40.2538 22.2617 40.5758 20.9925 40.5758 19.6481C40.5758 15.3669 37.3109 11.8483 33.1352 11.4462Z" fill="url(#paint11_radial_33_89)"/>
<path d="M33.1352 11.4462C33.0011 11.4333 32.8979 11.3199 32.8983 11.1852C32.8983 11.1786 32.8983 11.1719 32.8983 11.1653C32.8983 6.78414 29.3467 3.23254 24.9656 3.23254C20.5845 3.23254 17.0329 6.78414 17.0329 11.1653C17.0329 11.1726 17.0329 11.18 17.0329 11.1874C17.0333 11.3219 16.9305 11.4353 16.7967 11.4486C12.6326 11.8619 9.38021 15.3752 9.38021 19.6481C9.38021 20.9925 9.70222 22.2617 10.2732 23.3828C10.3641 23.5612 10.3186 23.7803 10.1641 23.9077C8.3245 25.4251 7.15186 27.7221 7.15186 30.293C7.15186 34.8622 10.8559 38.5663 15.4251 38.5663H34.5309C39.1 38.5663 42.8041 34.8622 42.8041 30.293C42.8041 27.7221 41.6315 25.4251 39.7919 23.9077C39.6374 23.7803 39.5919 23.5613 39.6828 23.3828C40.2538 22.2617 40.5758 20.9925 40.5758 19.6481C40.5758 15.3669 37.3109 11.8483 33.1352 11.4462Z" fill="url(#paint12_radial_33_89)"/>
<path d="M33.1352 11.4462C33.0011 11.4333 32.8979 11.3199 32.8983 11.1852C32.8983 11.1786 32.8983 11.1719 32.8983 11.1653C32.8983 6.78414 29.3467 3.23254 24.9656 3.23254C20.5845 3.23254 17.0329 6.78414 17.0329 11.1653C17.0329 11.1726 17.0329 11.18 17.0329 11.1874C17.0333 11.3219 16.9305 11.4353 16.7967 11.4486C12.6326 11.8619 9.38021 15.3752 9.38021 19.6481C9.38021 20.9925 9.70222 22.2617 10.2732 23.3828C10.3641 23.5612 10.3186 23.7803 10.1641 23.9077C8.3245 25.4251 7.15186 27.7221 7.15186 30.293C7.15186 34.8622 10.8559 38.5663 15.4251 38.5663H34.5309C39.1 38.5663 42.8041 34.8622 42.8041 30.293C42.8041 27.7221 41.6315 25.4251 39.7919 23.9077C39.6374 23.7803 39.5919 23.5613 39.6828 23.3828C40.2538 22.2617 40.5758 20.9925 40.5758 19.6481C40.5758 15.3669 37.3109 11.8483 33.1352 11.4462Z" fill="url(#paint13_radial_33_89)"/>
<path d="M33.1352 11.4462C33.0011 11.4333 32.8979 11.3199 32.8983 11.1852C32.8983 11.1786 32.8983 11.1719 32.8983 11.1653C32.8983 6.78414 29.3467 3.23254 24.9656 3.23254C20.5845 3.23254 17.0329 6.78414 17.0329 11.1653C17.0329 11.1726 17.0329 11.18 17.0329 11.1874C17.0333 11.3219 16.9305 11.4353 16.7967 11.4486C12.6326 11.8619 9.38021 15.3752 9.38021 19.6481C9.38021 20.9925 9.70222 22.2617 10.2732 23.3828C10.3641 23.5612 10.3186 23.7803 10.1641 23.9077C8.3245 25.4251 7.15186 27.7221 7.15186 30.293C7.15186 34.8622 10.8559 38.5663 15.4251 38.5663H34.5309C39.1 38.5663 42.8041 34.8622 42.8041 30.293C42.8041 27.7221 41.6315 25.4251 39.7919 23.9077C39.6374 23.7803 39.5919 23.5613 39.6828 23.3828C40.2538 22.2617 40.5758 20.9925 40.5758 19.6481C40.5758 15.3669 37.3109 11.8483 33.1352 11.4462Z" fill="url(#paint14_radial_33_89)"/>
<path d="M33.1352 11.4462C33.0011 11.4333 32.8979 11.3199 32.8983 11.1852C32.8983 11.1786 32.8983 11.1719 32.8983 11.1653C32.8983 6.78414 29.3467 3.23254 24.9656 3.23254C20.5845 3.23254 17.0329 6.78414 17.0329 11.1653C17.0329 11.1726 17.0329 11.18 17.0329 11.1874C17.0333 11.3219 16.9305 11.4353 16.7967 11.4486C12.6326 11.8619 9.38021 15.3752 9.38021 19.6481C9.38021 20.9925 9.70222 22.2617 10.2732 23.3828C10.3641 23.5612 10.3186 23.7803 10.1641 23.9077C8.3245 25.4251 7.15186 27.7221 7.15186 30.293C7.15186 34.8622 10.8559 38.5663 15.4251 38.5663H34.5309C39.1 38.5663 42.8041 34.8622 42.8041 30.293C42.8041 27.7221 41.6315 25.4251 39.7919 23.9077C39.6374 23.7803 39.5919 23.5613 39.6828 23.3828C40.2538 22.2617 40.5758 20.9925 40.5758 19.6481C40.5758 15.3669 37.3109 11.8483 33.1352 11.4462Z" fill="url(#paint15_radial_33_89)"/>
<path d="M33.1352 11.4462C33.0011 11.4333 32.8979 11.3199 32.8983 11.1852C32.8983 11.1786 32.8983 11.1719 32.8983 11.1653C32.8983 6.78414 29.3467 3.23254 24.9656 3.23254C20.5845 3.23254 17.0329 6.78414 17.0329 11.1653C17.0329 11.1726 17.0329 11.18 17.0329 11.1874C17.0333 11.3219 16.9305 11.4353 16.7967 11.4486C12.6326 11.8619 9.38021 15.3752 9.38021 19.6481C9.38021 20.9925 9.70222 22.2617 10.2732 23.3828C10.3641 23.5612 10.3186 23.7803 10.1641 23.9077C8.3245 25.4251 7.15186 27.7221 7.15186 30.293C7.15186 34.8622 10.8559 38.5663 15.4251 38.5663H34.5309C39.1 38.5663 42.8041 34.8622 42.8041 30.293C42.8041 27.7221 41.6315 25.4251 39.7919 23.9077C39.6374 23.7803 39.5919 23.5613 39.6828 23.3828C40.2538 22.2617 40.5758 20.9925 40.5758 19.6481C40.5758 15.3669 37.3109 11.8483 33.1352 11.4462Z" fill="url(#paint16_radial_33_89)"/>
<path d="M33.1352 11.4462C33.0011 11.4333 32.8979 11.3199 32.8983 11.1852C32.8983 11.1786 32.8983 11.1719 32.8983 11.1653C32.8983 6.78414 29.3467 3.23254 24.9656 3.23254C20.5845 3.23254 17.0329 6.78414 17.0329 11.1653C17.0329 11.1726 17.0329 11.18 17.0329 11.1874C17.0333 11.3219 16.9305 11.4353 16.7967 11.4486C12.6326 11.8619 9.38021 15.3752 9.38021 19.6481C9.38021 20.9925 9.70222 22.2617 10.2732 23.3828C10.3641 23.5612 10.3186 23.7803 10.1641 23.9077C8.3245 25.4251 7.15186 27.7221 7.15186 30.293C7.15186 34.8622 10.8559 38.5663 15.4251 38.5663H34.5309C39.1 38.5663 42.8041 34.8622 42.8041 30.293C42.8041 27.7221 41.6315 25.4251 39.7919 23.9077C39.6374 23.7803 39.5919 23.5613 39.6828 23.3828C40.2538 22.2617 40.5758 20.9925 40.5758 19.6481C40.5758 15.3669 37.3109 11.8483 33.1352 11.4462Z" fill="url(#paint17_radial_33_89)"/>
<path d="M33.1352 11.4462C33.0011 11.4333 32.8979 11.3199 32.8983 11.1852C32.8983 11.1786 32.8983 11.1719 32.8983 11.1653C32.8983 6.78414 29.3467 3.23254 24.9656 3.23254C20.5845 3.23254 17.0329 6.78414 17.0329 11.1653C17.0329 11.1726 17.0329 11.18 17.0329 11.1874C17.0333 11.3219 16.9305 11.4353 16.7967 11.4486C12.6326 11.8619 9.38021 15.3752 9.38021 19.6481C9.38021 20.9925 9.70222 22.2617 10.2732 23.3828C10.3641 23.5612 10.3186 23.7803 10.1641 23.9077C8.3245 25.4251 7.15186 27.7221 7.15186 30.293C7.15186 34.8622 10.8559 38.5663 15.4251 38.5663H34.5309C39.1 38.5663 42.8041 34.8622 42.8041 30.293C42.8041 27.7221 41.6315 25.4251 39.7919 23.9077C39.6374 23.7803 39.5919 23.5613 39.6828 23.3828C40.2538 22.2617 40.5758 20.9925 40.5758 19.6481C40.5758 15.3669 37.3109 11.8483 33.1352 11.4462Z" fill="url(#paint18_radial_33_89)"/>
<path d="M33.1352 11.4462C33.0011 11.4333 32.8979 11.3199 32.8983 11.1852C32.8983 11.1786 32.8983 11.1719 32.8983 11.1653C32.8983 6.78414 29.3467 3.23254 24.9656 3.23254C20.5845 3.23254 17.0329 6.78414 17.0329 11.1653C17.0329 11.1726 17.0329 11.18 17.0329 11.1874C17.0333 11.3219 16.9305 11.4353 16.7967 11.4486C12.6326 11.8619 9.38021 15.3752 9.38021 19.6481C9.38021 20.9925 9.70222 22.2617 10.2732 23.3828C10.3641 23.5612 10.3186 23.7803 10.1641 23.9077C8.3245 25.4251 7.15186 27.7221 7.15186 30.293C7.15186 34.8622 10.8559 38.5663 15.4251 38.5663H34.5309C39.1 38.5663 42.8041 34.8622 42.8041 30.293C42.8041 27.7221 41.6315 25.4251 39.7919 23.9077C39.6374 23.7803 39.5919 23.5613 39.6828 23.3828C40.2538 22.2617 40.5758 20.9925 40.5758 19.6481C40.5758 15.3669 37.3109 11.8483 33.1352 11.4462Z" fill="url(#paint19_radial_33_89)" fill-opacity="0.6"/>
<path d="M33.1352 11.4462C33.0011 11.4333 32.8979 11.3199 32.8983 11.1852C32.8983 11.1786 32.8983 11.1719 32.8983 11.1653C32.8983 6.78414 29.3467 3.23254 24.9656 3.23254C20.5845 3.23254 17.0329 6.78414 17.0329 11.1653C17.0329 11.1726 17.0329 11.18 17.0329 11.1874C17.0333 11.3219 16.9305 11.4353 16.7967 11.4486C12.6326 11.8619 9.38021 15.3752 9.38021 19.6481C9.38021 20.9925 9.70222 22.2617 10.2732 23.3828C10.3641 23.5612 10.3186 23.7803 10.1641 23.9077C8.3245 25.4251 7.15186 27.7221 7.15186 30.293C7.15186 34.8622 10.8559 38.5663 15.4251 38.5663H34.5309C39.1 38.5663 42.8041 34.8622 42.8041 30.293C42.8041 27.7221 41.6315 25.4251 39.7919 23.9077C39.6374 23.7803 39.5919 23.5613 39.6828 23.3828C40.2538 22.2617 40.5758 20.9925 40.5758 19.6481C40.5758 15.3669 37.3109 11.8483 33.1352 11.4462Z" fill="url(#paint20_radial_33_89)" fill-opacity="0.6"/>
<path d="M33.1352 11.4462C33.0011 11.4333 32.8979 11.3199 32.8983 11.1852C32.8983 11.1786 32.8983 11.1719 32.8983 11.1653C32.8983 6.78414 29.3467 3.23254 24.9656 3.23254C20.5845 3.23254 17.0329 6.78414 17.0329 11.1653C17.0329 11.1726 17.0329 11.18 17.0329 11.1874C17.0333 11.3219 16.9305 11.4353 16.7967 11.4486C12.6326 11.8619 9.38021 15.3752 9.38021 19.6481C9.38021 20.9925 9.70222 22.2617 10.2732 23.3828C10.3641 23.5612 10.3186 23.7803 10.1641 23.9077C8.3245 25.4251 7.15186 27.7221 7.15186 30.293C7.15186 34.8622 10.8559 38.5663 15.4251 38.5663H34.5309C39.1 38.5663 42.8041 34.8622 42.8041 30.293C42.8041 27.7221 41.6315 25.4251 39.7919 23.9077C39.6374 23.7803 39.5919 23.5613 39.6828 23.3828C40.2538 22.2617 40.5758 20.9925 40.5758 19.6481C40.5758 15.3669 37.3109 11.8483 33.1352 11.4462Z" fill="url(#paint21_radial_33_89)"/>
<path d="M33.1352 11.4462C33.0011 11.4333 32.8979 11.3199 32.8983 11.1852C32.8983 11.1786 32.8983 11.1719 32.8983 11.1653C32.8983 6.78414 29.3467 3.23254 24.9656 3.23254C20.5845 3.23254 17.0329 6.78414 17.0329 11.1653C17.0329 11.1726 17.0329 11.18 17.0329 11.1874C17.0333 11.3219 16.9305 11.4353 16.7967 11.4486C12.6326 11.8619 9.38021 15.3752 9.38021 19.6481C9.38021 20.9925 9.70222 22.2617 10.2732 23.3828C10.3641 23.5612 10.3186 23.7803 10.1641 23.9077C8.3245 25.4251 7.15186 27.7221 7.15186 30.293C7.15186 34.8622 10.8559 38.5663 15.4251 38.5663H34.5309C39.1 38.5663 42.8041 34.8622 42.8041 30.293C42.8041 27.7221 41.6315 25.4251 39.7919 23.9077C39.6374 23.7803 39.5919 23.5613 39.6828 23.3828C40.2538 22.2617 40.5758 20.9925 40.5758 19.6481C40.5758 15.3669 37.3109 11.8483 33.1352 11.4462Z" fill="url(#paint22_radial_33_89)"/>
<path d="M33.1352 11.4462C33.0011 11.4333 32.8979 11.3199 32.8983 11.1852C32.8983 11.1786 32.8983 11.1719 32.8983 11.1653C32.8983 6.78414 29.3467 3.23254 24.9656 3.23254C20.5845 3.23254 17.0329 6.78414 17.0329 11.1653C17.0329 11.1726 17.0329 11.18 17.0329 11.1874C17.0333 11.3219 16.9305 11.4353 16.7967 11.4486C12.6326 11.8619 9.38021 15.3752 9.38021 19.6481C9.38021 20.9925 9.70222 22.2617 10.2732 23.3828C10.3641 23.5612 10.3186 23.7803 10.1641 23.9077C8.3245 25.4251 7.15186 27.7221 7.15186 30.293C7.15186 34.8622 10.8559 38.5663 15.4251 38.5663H34.5309C39.1 38.5663 42.8041 34.8622 42.8041 30.293C42.8041 27.7221 41.6315 25.4251 39.7919 23.9077C39.6374 23.7803 39.5919 23.5613 39.6828 23.3828C40.2538 22.2617 40.5758 20.9925 40.5758 19.6481C40.5758 15.3669 37.3109 11.8483 33.1352 11.4462Z" fill="url(#paint23_radial_33_89)"/>
<path d="M33.1352 11.4462C33.0011 11.4333 32.8979 11.3199 32.8983 11.1852C32.8983 11.1786 32.8983 11.1719 32.8983 11.1653C32.8983 6.78414 29.3467 3.23254 24.9656 3.23254C20.5845 3.23254 17.0329 6.78414 17.0329 11.1653C17.0329 11.1726 17.0329 11.18 17.0329 11.1874C17.0333 11.3219 16.9305 11.4353 16.7967 11.4486C12.6326 11.8619 9.38021 15.3752 9.38021 19.6481C9.38021 20.9925 9.70222 22.2617 10.2732 23.3828C10.3641 23.5612 10.3186 23.7803 10.1641 23.9077C8.3245 25.4251 7.15186 27.7221 7.15186 30.293C7.15186 34.8622 10.8559 38.5663 15.4251 38.5663H34.5309C39.1 38.5663 42.8041 34.8622 42.8041 30.293C42.8041 27.7221 41.6315 25.4251 39.7919 23.9077C39.6374 23.7803 39.5919 23.5613 39.6828 23.3828C40.2538 22.2617 40.5758 20.9925 40.5758 19.6481C40.5758 15.3669 37.3109 11.8483 33.1352 11.4462Z" fill="url(#paint24_radial_33_89)" fill-opacity="0.6"/>
<path d="M33.1352 11.4462C33.0011 11.4333 32.8979 11.3199 32.8983 11.1852C32.8983 11.1786 32.8983 11.1719 32.8983 11.1653C32.8983 6.78414 29.3467 3.23254 24.9656 3.23254C20.5845 3.23254 17.0329 6.78414 17.0329 11.1653C17.0329 11.1726 17.0329 11.18 17.0329 11.1874C17.0333 11.3219 16.9305 11.4353 16.7967 11.4486C12.6326 11.8619 9.38021 15.3752 9.38021 19.6481C9.38021 20.9925 9.70222 22.2617 10.2732 23.3828C10.3641 23.5612 10.3186 23.7803 10.1641 23.9077C8.3245 25.4251 7.15186 27.7221 7.15186 30.293C7.15186 34.8622 10.8559 38.5663 15.4251 38.5663H34.5309C39.1 38.5663 42.8041 34.8622 42.8041 30.293C42.8041 27.7221 41.6315 25.4251 39.7919 23.9077C39.6374 23.7803 39.5919 23.5613 39.6828 23.3828C40.2538 22.2617 40.5758 20.9925 40.5758 19.6481C40.5758 15.3669 37.3109 11.8483 33.1352 11.4462Z" fill="url(#paint25_radial_33_89)" fill-opacity="0.6"/>
<path d="M33.1352 11.4462C33.0011 11.4333 32.8979 11.3199 32.8983 11.1852C32.8983 11.1786 32.8983 11.1719 32.8983 11.1653C32.8983 6.78414 29.3467 3.23254 24.9656 3.23254C20.5845 3.23254 17.0329 6.78414 17.0329 11.1653C17.0329 11.1726 17.0329 11.18 17.0329 11.1874C17.0333 11.3219 16.9305 11.4353 16.7967 11.4486C12.6326 11.8619 9.38021 15.3752 9.38021 19.6481C9.38021 20.9925 9.70222 22.2617 10.2732 23.3828C10.3641 23.5612 10.3186 23.7803 10.1641 23.9077C8.3245 25.4251 7.15186 27.7221 7.15186 30.293C7.15186 34.8622 10.8559 38.5663 15.4251 38.5663H34.5309C39.1 38.5663 42.8041 34.8622 42.8041 30.293C42.8041 27.7221 41.6315 25.4251 39.7919 23.9077C39.6374 23.7803 39.5919 23.5613 39.6828 23.3828C40.2538 22.2617 40.5758 20.9925 40.5758 19.6481C40.5758 15.3669 37.3109 11.8483 33.1352 11.4462Z" fill="url(#paint26_radial_33_89)"/>
<path d="M33.1352 11.4462C33.0011 11.4333 32.8979 11.3199 32.8983 11.1852C32.8983 11.1786 32.8983 11.1719 32.8983 11.1653C32.8983 6.78414 29.3467 3.23254 24.9656 3.23254C20.5845 3.23254 17.0329 6.78414 17.0329 11.1653C17.0329 11.1726 17.0329 11.18 17.0329 11.1874C17.0333 11.3219 16.9305 11.4353 16.7967 11.4486C12.6326 11.8619 9.38021 15.3752 9.38021 19.6481C9.38021 20.9925 9.70222 22.2617 10.2732 23.3828C10.3641 23.5612 10.3186 23.7803 10.1641 23.9077C8.3245 25.4251 7.15186 27.7221 7.15186 30.293C7.15186 34.8622 10.8559 38.5663 15.4251 38.5663H34.5309C39.1 38.5663 42.8041 34.8622 42.8041 30.293C42.8041 27.7221 41.6315 25.4251 39.7919 23.9077C39.6374 23.7803 39.5919 23.5613 39.6828 23.3828C40.2538 22.2617 40.5758 20.9925 40.5758 19.6481C40.5758 15.3669 37.3109 11.8483 33.1352 11.4462Z" fill="url(#paint27_radial_33_89)"/>
<path d="M33.1352 11.4462C33.0011 11.4333 32.8979 11.3199 32.8983 11.1852C32.8983 11.1786 32.8983 11.1719 32.8983 11.1653C32.8983 6.78414 29.3467 3.23254 24.9656 3.23254C20.5845 3.23254 17.0329 6.78414 17.0329 11.1653C17.0329 11.1726 17.0329 11.18 17.0329 11.1874C17.0333 11.3219 16.9305 11.4353 16.7967 11.4486C12.6326 11.8619 9.38021 15.3752 9.38021 19.6481C9.38021 20.9925 9.70222 22.2617 10.2732 23.3828C10.3641 23.5612 10.3186 23.7803 10.1641 23.9077C8.3245 25.4251 7.15186 27.7221 7.15186 30.293C7.15186 34.8622 10.8559 38.5663 15.4251 38.5663H34.5309C39.1 38.5663 42.8041 34.8622 42.8041 30.293C42.8041 27.7221 41.6315 25.4251 39.7919 23.9077C39.6374 23.7803 39.5919 23.5613 39.6828 23.3828C40.2538 22.2617 40.5758 20.9925 40.5758 19.6481C40.5758 15.3669 37.3109 11.8483 33.1352 11.4462Z" fill="url(#paint28_radial_33_89)" fill-opacity="0.8"/>
<path d="M33.1352 11.4462C33.0011 11.4333 32.8979 11.3199 32.8983 11.1852C32.8983 11.1786 32.8983 11.1719 32.8983 11.1653C32.8983 6.78414 29.3467 3.23254 24.9656 3.23254C20.5845 3.23254 17.0329 6.78414 17.0329 11.1653C17.0329 11.1726 17.0329 11.18 17.0329 11.1874C17.0333 11.3219 16.9305 11.4353 16.7967 11.4486C12.6326 11.8619 9.38021 15.3752 9.38021 19.6481C9.38021 20.9925 9.70222 22.2617 10.2732 23.3828C10.3641 23.5612 10.3186 23.7803 10.1641 23.9077C8.3245 25.4251 7.15186 27.7221 7.15186 30.293C7.15186 34.8622 10.8559 38.5663 15.4251 38.5663H34.5309C39.1 38.5663 42.8041 34.8622 42.8041 30.293C42.8041 27.7221 41.6315 25.4251 39.7919 23.9077C39.6374 23.7803 39.5919 23.5613 39.6828 23.3828C40.2538 22.2617 40.5758 20.9925 40.5758 19.6481C40.5758 15.3669 37.3109 11.8483 33.1352 11.4462Z" fill="url(#paint29_radial_33_89)"/>
<path d="M33.1352 11.4462C33.0011 11.4333 32.8979 11.3199 32.8983 11.1852C32.8983 11.1786 32.8983 11.1719 32.8983 11.1653C32.8983 6.78414 29.3467 3.23254 24.9656 3.23254C20.5845 3.23254 17.0329 6.78414 17.0329 11.1653C17.0329 11.1726 17.0329 11.18 17.0329 11.1874C17.0333 11.3219 16.9305 11.4353 16.7967 11.4486C12.6326 11.8619 9.38021 15.3752 9.38021 19.6481C9.38021 20.9925 9.70222 22.2617 10.2732 23.3828C10.3641 23.5612 10.3186 23.7803 10.1641 23.9077C8.3245 25.4251 7.15186 27.7221 7.15186 30.293C7.15186 34.8622 10.8559 38.5663 15.4251 38.5663H34.5309C39.1 38.5663 42.8041 34.8622 42.8041 30.293C42.8041 27.7221 41.6315 25.4251 39.7919 23.9077C39.6374 23.7803 39.5919 23.5613 39.6828 23.3828C40.2538 22.2617 40.5758 20.9925 40.5758 19.6481C40.5758 15.3669 37.3109 11.8483 33.1352 11.4462Z" fill="url(#paint30_linear_33_89)"/>
<path d="M33.1352 11.4462C33.0011 11.4333 32.8979 11.3199 32.8983 11.1852C32.8983 11.1786 32.8983 11.1719 32.8983 11.1653C32.8983 6.78414 29.3467 3.23254 24.9656 3.23254C20.5845 3.23254 17.0329 6.78414 17.0329 11.1653C17.0329 11.1726 17.0329 11.18 17.0329 11.1874C17.0333 11.3219 16.9305 11.4353 16.7967 11.4486C12.6326 11.8619 9.38021 15.3752 9.38021 19.6481C9.38021 20.9925 9.70222 22.2617 10.2732 23.3828C10.3641 23.5612 10.3186 23.7803 10.1641 23.9077C8.3245 25.4251 7.15186 27.7221 7.15186 30.293C7.15186 34.8622 10.8559 38.5663 15.4251 38.5663H34.5309C39.1 38.5663 42.8041 34.8622 42.8041 30.293C42.8041 27.7221 41.6315 25.4251 39.7919 23.9077C39.6374 23.7803 39.5919 23.5613 39.6828 23.3828C40.2538 22.2617 40.5758 20.9925 40.5758 19.6481C40.5758 15.3669 37.3109 11.8483 33.1352 11.4462Z" fill="url(#paint31_radial_33_89)" fill-opacity="0.8"/>
<path d="M33.1352 11.4462C33.0011 11.4333 32.8979 11.3199 32.8983 11.1852C32.8983 11.1786 32.8983 11.1719 32.8983 11.1653C32.8983 6.78414 29.3467 3.23254 24.9656 3.23254C20.5845 3.23254 17.0329 6.78414 17.0329 11.1653C17.0329 11.1726 17.0329 11.18 17.0329 11.1874C17.0333 11.3219 16.9305 11.4353 16.7967 11.4486C12.6326 11.8619 9.38021 15.3752 9.38021 19.6481C9.38021 20.9925 9.70222 22.2617 10.2732 23.3828C10.3641 23.5612 10.3186 23.7803 10.1641 23.9077C8.3245 25.4251 7.15186 27.7221 7.15186 30.293C7.15186 34.8622 10.8559 38.5663 15.4251 38.5663H34.5309C39.1 38.5663 42.8041 34.8622 42.8041 30.293C42.8041 27.7221 41.6315 25.4251 39.7919 23.9077C39.6374 23.7803 39.5919 23.5613 39.6828 23.3828C40.2538 22.2617 40.5758 20.9925 40.5758 19.6481C40.5758 15.3669 37.3109 11.8483 33.1352 11.4462Z" fill="url(#paint32_radial_33_89)"/>
<path d="M33.1352 11.4462C33.0011 11.4333 32.8979 11.3199 32.8983 11.1852C32.8983 11.1786 32.8983 11.1719 32.8983 11.1653C32.8983 6.78414 29.3467 3.23254 24.9656 3.23254C20.5845 3.23254 17.0329 6.78414 17.0329 11.1653C17.0329 11.1726 17.0329 11.18 17.0329 11.1874C17.0333 11.3219 16.9305 11.4353 16.7967 11.4486C12.6326 11.8619 9.38021 15.3752 9.38021 19.6481C9.38021 20.9925 9.70222 22.2617 10.2732 23.3828C10.3641 23.5612 10.3186 23.7803 10.1641 23.9077C8.3245 25.4251 7.15186 27.7221 7.15186 30.293C7.15186 34.8622 10.8559 38.5663 15.4251 38.5663H34.5309C39.1 38.5663 42.8041 34.8622 42.8041 30.293C42.8041 27.7221 41.6315 25.4251 39.7919 23.9077C39.6374 23.7803 39.5919 23.5613 39.6828 23.3828C40.2538 22.2617 40.5758 20.9925 40.5758 19.6481C40.5758 15.3669 37.3109 11.8483 33.1352 11.4462Z" fill="url(#paint33_radial_33_89)"/>
<path d="M33.1352 11.4462C33.0011 11.4333 32.8979 11.3199 32.8983 11.1852C32.8983 11.1786 32.8983 11.1719 32.8983 11.1653C32.8983 6.78414 29.3467 3.23254 24.9656 3.23254C20.5845 3.23254 17.0329 6.78414 17.0329 11.1653C17.0329 11.1726 17.0329 11.18 17.0329 11.1874C17.0333 11.3219 16.9305 11.4353 16.7967 11.4486C12.6326 11.8619 9.38021 15.3752 9.38021 19.6481C9.38021 20.9925 9.70222 22.2617 10.2732 23.3828C10.3641 23.5612 10.3186 23.7803 10.1641 23.9077C8.3245 25.4251 7.15186 27.7221 7.15186 30.293C7.15186 34.8622 10.8559 38.5663 15.4251 38.5663H34.5309C39.1 38.5663 42.8041 34.8622 42.8041 30.293C42.8041 27.7221 41.6315 25.4251 39.7919 23.9077C39.6374 23.7803 39.5919 23.5613 39.6828 23.3828C40.2538 22.2617 40.5758 20.9925 40.5758 19.6481C40.5758 15.3669 37.3109 11.8483 33.1352 11.4462Z" fill="url(#paint34_radial_33_89)" fill-opacity="0.8"/>
<path d="M33.1352 11.4462C33.0011 11.4333 32.8979 11.3199 32.8983 11.1852C32.8983 11.1786 32.8983 11.1719 32.8983 11.1653C32.8983 6.78414 29.3467 3.23254 24.9656 3.23254C20.5845 3.23254 17.0329 6.78414 17.0329 11.1653C17.0329 11.1726 17.0329 11.18 17.0329 11.1874C17.0333 11.3219 16.9305 11.4353 16.7967 11.4486C12.6326 11.8619 9.38021 15.3752 9.38021 19.6481C9.38021 20.9925 9.70222 22.2617 10.2732 23.3828C10.3641 23.5612 10.3186 23.7803 10.1641 23.9077C8.3245 25.4251 7.15186 27.7221 7.15186 30.293C7.15186 34.8622 10.8559 38.5663 15.4251 38.5663H34.5309C39.1 38.5663 42.8041 34.8622 42.8041 30.293C42.8041 27.7221 41.6315 25.4251 39.7919 23.9077C39.6374 23.7803 39.5919 23.5613 39.6828 23.3828C40.2538 22.2617 40.5758 20.9925 40.5758 19.6481C40.5758 15.3669 37.3109 11.8483 33.1352 11.4462Z" fill="url(#paint35_radial_33_89)" fill-opacity="0.8"/>
<path d="M33.1352 11.4462C33.0011 11.4333 32.8979 11.3199 32.8983 11.1852C32.8983 11.1786 32.8983 11.1719 32.8983 11.1653C32.8983 6.78414 29.3467 3.23254 24.9656 3.23254C20.5845 3.23254 17.0329 6.78414 17.0329 11.1653C17.0329 11.1726 17.0329 11.18 17.0329 11.1874C17.0333 11.3219 16.9305 11.4353 16.7967 11.4486C12.6326 11.8619 9.38021 15.3752 9.38021 19.6481C9.38021 20.9925 9.70222 22.2617 10.2732 23.3828C10.3641 23.5612 10.3186 23.7803 10.1641 23.9077C8.3245 25.4251 7.15186 27.7221 7.15186 30.293C7.15186 34.8622 10.8559 38.5663 15.4251 38.5663H34.5309C39.1 38.5663 42.8041 34.8622 42.8041 30.293C42.8041 27.7221 41.6315 25.4251 39.7919 23.9077C39.6374 23.7803 39.5919 23.5613 39.6828 23.3828C40.2538 22.2617 40.5758 20.9925 40.5758 19.6481C40.5758 15.3669 37.3109 11.8483 33.1352 11.4462Z" fill="url(#paint36_radial_33_89)"/>
<path d="M33.1352 11.4462C33.0011 11.4333 32.8979 11.3199 32.8983 11.1852C32.8983 11.1786 32.8983 11.1719 32.8983 11.1653C32.8983 6.78414 29.3467 3.23254 24.9656 3.23254C20.5845 3.23254 17.0329 6.78414 17.0329 11.1653C17.0329 11.1726 17.0329 11.18 17.0329 11.1874C17.0333 11.3219 16.9305 11.4353 16.7967 11.4486C12.6326 11.8619 9.38021 15.3752 9.38021 19.6481C9.38021 20.9925 9.70222 22.2617 10.2732 23.3828C10.3641 23.5612 10.3186 23.7803 10.1641 23.9077C8.3245 25.4251 7.15186 27.7221 7.15186 30.293C7.15186 34.8622 10.8559 38.5663 15.4251 38.5663H34.5309C39.1 38.5663 42.8041 34.8622 42.8041 30.293C42.8041 27.7221 41.6315 25.4251 39.7919 23.9077C39.6374 23.7803 39.5919 23.5613 39.6828 23.3828C40.2538 22.2617 40.5758 20.9925 40.5758 19.6481C40.5758 15.3669 37.3109 11.8483 33.1352 11.4462Z" fill="url(#paint37_radial_33_89)" fill-opacity="0.5"/>
<path d="M33.1352 11.4462C33.0011 11.4333 32.8979 11.3199 32.8983 11.1852C32.8983 11.1786 32.8983 11.1719 32.8983 11.1653C32.8983 6.78414 29.3467 3.23254 24.9656 3.23254C20.5845 3.23254 17.0329 6.78414 17.0329 11.1653C17.0329 11.1726 17.0329 11.18 17.0329 11.1874C17.0333 11.3219 16.9305 11.4353 16.7967 11.4486C12.6326 11.8619 9.38021 15.3752 9.38021 19.6481C9.38021 20.9925 9.70222 22.2617 10.2732 23.3828C10.3641 23.5612 10.3186 23.7803 10.1641 23.9077C8.3245 25.4251 7.15186 27.7221 7.15186 30.293C7.15186 34.8622 10.8559 38.5663 15.4251 38.5663H34.5309C39.1 38.5663 42.8041 34.8622 42.8041 30.293C42.8041 27.7221 41.6315 25.4251 39.7919 23.9077C39.6374 23.7803 39.5919 23.5613 39.6828 23.3828C40.2538 22.2617 40.5758 20.9925 40.5758 19.6481C40.5758 15.3669 37.3109 11.8483 33.1352 11.4462Z" fill="url(#paint38_radial_33_89)" fill-opacity="0.5"/>
<path d="M33.1352 11.4462C33.0011 11.4333 32.8979 11.3199 32.8983 11.1852C32.8983 11.1786 32.8983 11.1719 32.8983 11.1653C32.8983 6.78414 29.3467 3.23254 24.9656 3.23254C20.5845 3.23254 17.0329 6.78414 17.0329 11.1653C17.0329 11.1726 17.0329 11.18 17.0329 11.1874C17.0333 11.3219 16.9305 11.4353 16.7967 11.4486C12.6326 11.8619 9.38021 15.3752 9.38021 19.6481C9.38021 20.9925 9.70222 22.2617 10.2732 23.3828C10.3641 23.5612 10.3186 23.7803 10.1641 23.9077C8.3245 25.4251 7.15186 27.7221 7.15186 30.293C7.15186 34.8622 10.8559 38.5663 15.4251 38.5663H34.5309C39.1 38.5663 42.8041 34.8622 42.8041 30.293C42.8041 27.7221 41.6315 25.4251 39.7919 23.9077C39.6374 23.7803 39.5919 23.5613 39.6828 23.3828C40.2538 22.2617 40.5758 20.9925 40.5758 19.6481C40.5758 15.3669 37.3109 11.8483 33.1352 11.4462Z" fill="url(#paint39_radial_33_89)" fill-opacity="0.5"/>
<path d="M33.1352 11.4462C33.0011 11.4333 32.8979 11.3199 32.8983 11.1852C32.8983 11.1786 32.8983 11.1719 32.8983 11.1653C32.8983 6.78414 29.3467 3.23254 24.9656 3.23254C20.5845 3.23254 17.0329 6.78414 17.0329 11.1653C17.0329 11.1726 17.0329 11.18 17.0329 11.1874C17.0333 11.3219 16.9305 11.4353 16.7967 11.4486C12.6326 11.8619 9.38021 15.3752 9.38021 19.6481C9.38021 20.9925 9.70222 22.2617 10.2732 23.3828C10.3641 23.5612 10.3186 23.7803 10.1641 23.9077C8.3245 25.4251 7.15186 27.7221 7.15186 30.293C7.15186 34.8622 10.8559 38.5663 15.4251 38.5663H34.5309C39.1 38.5663 42.8041 34.8622 42.8041 30.293C42.8041 27.7221 41.6315 25.4251 39.7919 23.9077C39.6374 23.7803 39.5919 23.5613 39.6828 23.3828C40.2538 22.2617 40.5758 20.9925 40.5758 19.6481C40.5758 15.3669 37.3109 11.8483 33.1352 11.4462Z" fill="url(#paint40_radial_33_89)" fill-opacity="0.3"/>
<path d="M33.1352 11.4462C33.0011 11.4333 32.8979 11.3199 32.8983 11.1852C32.8983 11.1786 32.8983 11.1719 32.8983 11.1653C32.8983 6.78414 29.3467 3.23254 24.9656 3.23254C20.5845 3.23254 17.0329 6.78414 17.0329 11.1653C17.0329 11.1726 17.0329 11.18 17.0329 11.1874C17.0333 11.3219 16.9305 11.4353 16.7967 11.4486C12.6326 11.8619 9.38021 15.3752 9.38021 19.6481C9.38021 20.9925 9.70222 22.2617 10.2732 23.3828C10.3641 23.5612 10.3186 23.7803 10.1641 23.9077C8.3245 25.4251 7.15186 27.7221 7.15186 30.293C7.15186 34.8622 10.8559 38.5663 15.4251 38.5663H34.5309C39.1 38.5663 42.8041 34.8622 42.8041 30.293C42.8041 27.7221 41.6315 25.4251 39.7919 23.9077C39.6374 23.7803 39.5919 23.5613 39.6828 23.3828C40.2538 22.2617 40.5758 20.9925 40.5758 19.6481C40.5758 15.3669 37.3109 11.8483 33.1352 11.4462Z" fill="url(#paint41_radial_33_89)" fill-opacity="0.3"/>
<path d="M33.1352 11.4462C33.0011 11.4333 32.8979 11.3199 32.8983 11.1852C32.8983 11.1786 32.8983 11.1719 32.8983 11.1653C32.8983 6.78414 29.3467 3.23254 24.9656 3.23254C20.5845 3.23254 17.0329 6.78414 17.0329 11.1653C17.0329 11.1726 17.0329 11.18 17.0329 11.1874C17.0333 11.3219 16.9305 11.4353 16.7967 11.4486C12.6326 11.8619 9.38021 15.3752 9.38021 19.6481C9.38021 20.9925 9.70222 22.2617 10.2732 23.3828C10.3641 23.5612 10.3186 23.7803 10.1641 23.9077C8.3245 25.4251 7.15186 27.7221 7.15186 30.293C7.15186 34.8622 10.8559 38.5663 15.4251 38.5663H34.5309C39.1 38.5663 42.8041 34.8622 42.8041 30.293C42.8041 27.7221 41.6315 25.4251 39.7919 23.9077C39.6374 23.7803 39.5919 23.5613 39.6828 23.3828C40.2538 22.2617 40.5758 20.9925 40.5758 19.6481C40.5758 15.3669 37.3109 11.8483 33.1352 11.4462Z" fill="url(#paint42_radial_33_89)" fill-opacity="0.5"/>
<path d="M33.1352 11.4462C33.0011 11.4333 32.8979 11.3199 32.8983 11.1852C32.8983 11.1786 32.8983 11.1719 32.8983 11.1653C32.8983 6.78414 29.3467 3.23254 24.9656 3.23254C20.5845 3.23254 17.0329 6.78414 17.0329 11.1653C17.0329 11.1726 17.0329 11.18 17.0329 11.1874C17.0333 11.3219 16.9305 11.4353 16.7967 11.4486C12.6326 11.8619 9.38021 15.3752 9.38021 19.6481C9.38021 20.9925 9.70222 22.2617 10.2732 23.3828C10.3641 23.5612 10.3186 23.7803 10.1641 23.9077C8.3245 25.4251 7.15186 27.7221 7.15186 30.293C7.15186 34.8622 10.8559 38.5663 15.4251 38.5663H34.5309C39.1 38.5663 42.8041 34.8622 42.8041 30.293C42.8041 27.7221 41.6315 25.4251 39.7919 23.9077C39.6374 23.7803 39.5919 23.5613 39.6828 23.3828C40.2538 22.2617 40.5758 20.9925 40.5758 19.6481C40.5758 15.3669 37.3109 11.8483 33.1352 11.4462Z" fill="url(#paint43_radial_33_89)"/>
<path d="M33.1352 11.4462C33.0011 11.4333 32.8979 11.3199 32.8983 11.1852C32.8983 11.1786 32.8983 11.1719 32.8983 11.1653C32.8983 6.78414 29.3467 3.23254 24.9656 3.23254C20.5845 3.23254 17.0329 6.78414 17.0329 11.1653C17.0329 11.1726 17.0329 11.18 17.0329 11.1874C17.0333 11.3219 16.9305 11.4353 16.7967 11.4486C12.6326 11.8619 9.38021 15.3752 9.38021 19.6481C9.38021 20.9925 9.70222 22.2617 10.2732 23.3828C10.3641 23.5612 10.3186 23.7803 10.1641 23.9077C8.3245 25.4251 7.15186 27.7221 7.15186 30.293C7.15186 34.8622 10.8559 38.5663 15.4251 38.5663H34.5309C39.1 38.5663 42.8041 34.8622 42.8041 30.293C42.8041 27.7221 41.6315 25.4251 39.7919 23.9077C39.6374 23.7803 39.5919 23.5613 39.6828 23.3828C40.2538 22.2617 40.5758 20.9925 40.5758 19.6481C40.5758 15.3669 37.3109 11.8483 33.1352 11.4462Z" fill="url(#paint44_radial_33_89)"/>
<path d="M33.1352 11.4462C33.0011 11.4333 32.8979 11.3199 32.8983 11.1852C32.8983 11.1786 32.8983 11.1719 32.8983 11.1653C32.8983 6.78414 29.3467 3.23254 24.9656 3.23254C20.5845 3.23254 17.0329 6.78414 17.0329 11.1653C17.0329 11.1726 17.0329 11.18 17.0329 11.1874C17.0333 11.3219 16.9305 11.4353 16.7967 11.4486C12.6326 11.8619 9.38021 15.3752 9.38021 19.6481C9.38021 20.9925 9.70222 22.2617 10.2732 23.3828C10.3641 23.5612 10.3186 23.7803 10.1641 23.9077C8.3245 25.4251 7.15186 27.7221 7.15186 30.293C7.15186 34.8622 10.8559 38.5663 15.4251 38.5663H34.5309C39.1 38.5663 42.8041 34.8622 42.8041 30.293C42.8041 27.7221 41.6315 25.4251 39.7919 23.9077C39.6374 23.7803 39.5919 23.5613 39.6828 23.3828C40.2538 22.2617 40.5758 20.9925 40.5758 19.6481C40.5758 15.3669 37.3109 11.8483 33.1352 11.4462Z" fill="url(#paint45_radial_33_89)"/>
<path d="M33.1352 11.4462C33.0011 11.4333 32.8979 11.3199 32.8983 11.1852C32.8983 11.1786 32.8983 11.1719 32.8983 11.1653C32.8983 6.78414 29.3467 3.23254 24.9656 3.23254C20.5845 3.23254 17.0329 6.78414 17.0329 11.1653C17.0329 11.1726 17.0329 11.18 17.0329 11.1874C17.0333 11.3219 16.9305 11.4353 16.7967 11.4486C12.6326 11.8619 9.38021 15.3752 9.38021 19.6481C9.38021 20.9925 9.70222 22.2617 10.2732 23.3828C10.3641 23.5612 10.3186 23.7803 10.1641 23.9077C8.3245 25.4251 7.15186 27.7221 7.15186 30.293C7.15186 34.8622 10.8559 38.5663 15.4251 38.5663H34.5309C39.1 38.5663 42.8041 34.8622 42.8041 30.293C42.8041 27.7221 41.6315 25.4251 39.7919 23.9077C39.6374 23.7803 39.5919 23.5613 39.6828 23.3828C40.2538 22.2617 40.5758 20.9925 40.5758 19.6481C40.5758 15.3669 37.3109 11.8483 33.1352 11.4462Z" fill="url(#paint46_radial_33_89)"/>
<path d="M33.1352 11.4462C33.0011 11.4333 32.8979 11.3199 32.8983 11.1852C32.8983 11.1786 32.8983 11.1719 32.8983 11.1653C32.8983 6.78414 29.3467 3.23254 24.9656 3.23254C20.5845 3.23254 17.0329 6.78414 17.0329 11.1653C17.0329 11.1726 17.0329 11.18 17.0329 11.1874C17.0333 11.3219 16.9305 11.4353 16.7967 11.4486C12.6326 11.8619 9.38021 15.3752 9.38021 19.6481C9.38021 20.9925 9.70222 22.2617 10.2732 23.3828C10.3641 23.5612 10.3186 23.7803 10.1641 23.9077C8.3245 25.4251 7.15186 27.7221 7.15186 30.293C7.15186 34.8622 10.8559 38.5663 15.4251 38.5663H34.5309C39.1 38.5663 42.8041 34.8622 42.8041 30.293C42.8041 27.7221 41.6315 25.4251 39.7919 23.9077C39.6374 23.7803 39.5919 23.5613 39.6828 23.3828C40.2538 22.2617 40.5758 20.9925 40.5758 19.6481C40.5758 15.3669 37.3109 11.8483 33.1352 11.4462Z" fill="url(#paint47_radial_33_89)" fill-opacity="0.75"/>
<defs>
<linearGradient id="paint0_linear_33_89" x1="20.4651" y1="44.2225" x2="24.2748" y2="44.2225" gradientUnits="userSpaceOnUse">
<stop stop-color="#908181"/>
<stop offset="1" stop-color="#908181" stop-opacity="0"/>
</linearGradient>
<linearGradient id="paint1_linear_33_89" x1="21.4038" y1="43.3316" x2="22.4928" y2="43.3316" gradientUnits="userSpaceOnUse">
<stop stop-color="#5B363A"/>
<stop offset="1" stop-color="#5B363A" stop-opacity="0"/>
</linearGradient>
<linearGradient id="paint2_linear_33_89" x1="24.9779" y1="47.0823" x2="24.9779" y2="46.4593" gradientUnits="userSpaceOnUse">
<stop stop-color="#6A2F5B"/>
<stop offset="1" stop-color="#6A2F5B" stop-opacity="0"/>
</linearGradient>
<linearGradient id="paint3_linear_33_89" x1="29.3578" y1="41.7312" x2="27.9662" y2="41.7312" gradientUnits="userSpaceOnUse">
<stop stop-color="#6D5C5C"/>
<stop offset="1" stop-color="#6D5C5C" stop-opacity="0"/>
</linearGradient>
<radialGradient id="paint4_radial_33_89" cx="0" cy="0" r="1" gradientUnits="userSpaceOnUse" gradientTransform="translate(27.4291 38.5574) rotate(89.5848) scale(3.36923 1.24544)">
<stop offset="0.406931" stop-color="#4D2D31"/>
<stop offset="1" stop-color="#4D2D31" stop-opacity="0"/>
</radialGradient>
<linearGradient id="paint5_linear_33_89" x1="28.5857" y1="42.405" x2="24.3762" y2="42.405" gradientUnits="userSpaceOnUse">
<stop stop-color="#7F5B60" stop-opacity="0"/>
<stop offset="0.380208" stop-color="#7F5B60" stop-opacity="0.75"/>
<stop offset="0.461017" stop-color="#7F5B60" stop-opacity="0.78"/>
<stop offset="0.510417" stop-color="#7F5B60" stop-opacity="0.74"/>
<stop offset="1" stop-color="#7F5B60" stop-opacity="0"/>
</linearGradient>
<linearGradient id="paint6_linear_33_89" x1="26.186" y1="42.6679" x2="23.575" y2="42.6679" gradientUnits="userSpaceOnUse">
<stop stop-color="#683B4B" stop-opacity="0"/>
<stop offset="0.414296" stop-color="#683B4B" stop-opacity="0.58"/>
<stop offset="0.743457" stop-color="#683B4B" stop-opacity="0.56"/>
<stop offset="1" stop-color="#683B4B" stop-opacity="0"/>
</linearGradient>
<radialGradient id="paint7_radial_33_89" cx="0" cy="0" r="1" gradientUnits="userSpaceOnUse" gradientTransform="translate(27.4137 38.2452) rotate(101.793) scale(3.2468 10.2145)">
<stop stop-color="#4D2D31"/>
<stop offset="0.60854" stop-color="#4D2D31" stop-opacity="0.254108"/>
<stop offset="1" stop-color="#4D2D31" stop-opacity="0"/>
</radialGradient>
<radialGradient id="paint8_radial_33_89" cx="0" cy="0" r="1" gradientUnits="userSpaceOnUse" gradientTransform="translate(37.317 24.3483) rotate(180) scale(25.8789 26.1122)">
<stop stop-color="#7CBE4D"/>
<stop offset="1" stop-color="#549756"/>
</radialGradient>
<radialGradient id="paint9_radial_33_89" cx="0" cy="0" r="1" gradientUnits="userSpaceOnUse" gradientTransform="translate(10.8521 36.36) rotate(-24.0013) scale(14.6452 16.305)">
<stop stop-color="#438154"/>
<stop offset="1" stop-color="#438154" stop-opacity="0"/>
</radialGradient>
<radialGradient id="paint10_radial_33_89" cx="0" cy="0" r="1" gradientUnits="userSpaceOnUse" gradientTransform="translate(8.31305 20.8994) scale(14.0625 10.4633)">
<stop stop-color="#438154"/>
<stop offset="1" stop-color="#438154" stop-opacity="0"/>
</radialGradient>
<radialGradient id="paint11_radial_33_89" cx="0" cy="0" r="1" gradientUnits="userSpaceOnUse" gradientTransform="translate(16.5162 7.16077) rotate(25.622) scale(10.614 8.12786)">
<stop stop-color="#438154"/>
<stop offset="1" stop-color="#438154" stop-opacity="0"/>
</radialGradient>
<radialGradient id="paint12_radial_33_89" cx="0" cy="0" r="1" gradientUnits="userSpaceOnUse" gradientTransform="translate(15.5884 11.3112) rotate(159.814) scale(3.5376 1.46262)">
<stop stop-color="#438154"/>
<stop offset="1" stop-color="#438154" stop-opacity="0"/>
</radialGradient>
<radialGradient id="paint13_radial_33_89" cx="0" cy="0" r="1" gradientUnits="userSpaceOnUse" gradientTransform="translate(40.442 18.9772) rotate(168.972) scale(10.0488 10.4511)">
<stop stop-color="#81CB44"/>
<stop offset="1" stop-color="#81CB44" stop-opacity="0"/>
</radialGradient>
<radialGradient id="paint14_radial_33_89" cx="0" cy="0" r="1" gradientUnits="userSpaceOnUse" gradientTransform="translate(44.6412 30.5983) rotate(-167.6) scale(14.0984 14.6628)">
<stop stop-color="#81CB44"/>
<stop offset="1" stop-color="#81CB44" stop-opacity="0"/>
</radialGradient>
<radialGradient id="paint15_radial_33_89" cx="0" cy="0" r="1" gradientUnits="userSpaceOnUse" gradientTransform="translate(35.9498 5.69593) rotate(156.009) scale(12.0092 12.652)">
<stop stop-color="#81CB44"/>
<stop offset="1" stop-color="#81CB44" stop-opacity="0"/>
</radialGradient>
<radialGradient id="paint16_radial_33_89" cx="0" cy="0" r="1" gradientUnits="userSpaceOnUse" gradientTransform="translate(7.49821 32.3386) scale(7.47579 22.4889)">
<stop stop-color="#9EB9A3"/>
<stop offset="0.366842" stop-color="#9EB9A3" stop-opacity="0.705779"/>
<stop offset="1" stop-color="#9EB9A3" stop-opacity="0"/>
</radialGradient>
<radialGradient id="paint17_radial_33_89" cx="0" cy="0" r="1" gradientUnits="userSpaceOnUse" gradientTransform="translate(8.70132 16.1819) rotate(22.9887) scale(8.17302 24.5863)">
<stop offset="0.0569313" stop-color="#9EB9A3"/>
<stop offset="0.366842" stop-color="#9EB9A3" stop-opacity="0.81"/>
<stop offset="1" stop-color="#9EB9A3" stop-opacity="0"/>
</radialGradient>
<radialGradient id="paint18_radial_33_89" cx="0" cy="0" r="1" gradientUnits="userSpaceOnUse" gradientTransform="translate(16.8732 4.79461) rotate(45) scale(7.6368 17.0919)">
<stop stop-color="#9EB9A3"/>
<stop offset="0.432932" stop-color="#9EB9A3" stop-opacity="0.78"/>
<stop offset="1" stop-color="#9EB9A3" stop-opacity="0"/>
</radialGradient>
<radialGradient id="paint19_radial_33_89" cx="0" cy="0" r="1" gradientUnits="userSpaceOnUse" gradientTransform="translate(19.074 12.2651) rotate(102.593) scale(0.895408 5.57591)">
<stop stop-color="#9EB9A3" stop-opacity="0.35"/>
<stop offset="0.240947" stop-color="#9EB9A3" stop-opacity="0.31"/>
<stop offset="0.653001" stop-color="#9EB9A3" stop-opacity="0.0568668"/>
<stop offset="1" stop-color="#9EB9A3" stop-opacity="0"/>
</radialGradient>
<radialGradient id="paint20_radial_33_89" cx="0" cy="0" r="1" gradientUnits="userSpaceOnUse" gradientTransform="translate(17.6969 11.731) rotate(109.558) scale(1.03368 3.46655)">
<stop stop-color="#9EB9A3" stop-opacity="0.35"/>
<stop offset="0.307292" stop-color="#9EB9A3" stop-opacity="0.31"/>
<stop offset="0.661458" stop-color="#9EB9A3" stop-opacity="0.0568668"/>
<stop offset="1" stop-color="#9EB9A3" stop-opacity="0"/>
</radialGradient>
<radialGradient id="paint21_radial_33_89" cx="0" cy="0" r="1" gradientUnits="userSpaceOnUse" gradientTransform="translate(14.7555 30.38) rotate(33.2936) scale(6.84213 6.90381)">
<stop stop-color="#549756"/>
<stop offset="0.674008" stop-color="#549756" stop-opacity="0.784271"/>
<stop offset="1" stop-color="#549756" stop-opacity="0"/>
</radialGradient>
<radialGradient id="paint22_radial_33_89" cx="0" cy="0" r="1" gradientUnits="userSpaceOnUse" gradientTransform="translate(22.3883 9.18177) rotate(10.3818) scale(3.58417 4.3109)">
<stop stop-color="#438154" stop-opacity="0.79"/>
<stop offset="0.426284" stop-color="#438154" stop-opacity="0.54"/>
<stop offset="0.72859" stop-color="#438154" stop-opacity="0.187798"/>
<stop offset="1" stop-color="#438154" stop-opacity="0"/>
</radialGradient>
<radialGradient id="paint23_radial_33_89" cx="0" cy="0" r="1" gradientUnits="userSpaceOnUse" gradientTransform="translate(14.5301 17.4216) rotate(63.435) scale(2.96502 3.36035)">
<stop stop-color="#438154" stop-opacity="0.79"/>
<stop offset="0.426284" stop-color="#438154" stop-opacity="0.54"/>
<stop offset="0.72859" stop-color="#438154" stop-opacity="0.187798"/>
<stop offset="1" stop-color="#438154" stop-opacity="0"/>
</radialGradient>
<radialGradient id="paint24_radial_33_89" cx="0" cy="0" r="1" gradientUnits="userSpaceOnUse" gradientTransform="translate(14.1309 30.7091) rotate(-10.7843) scale(4.0875 4.6325)">
<stop stop-color="#438154" stop-opacity="0.79"/>
<stop offset="0.442708" stop-color="#438154" stop-opacity="0.54"/>
<stop offset="0.869792" stop-color="#438154" stop-opacity="0.187798"/>
<stop offset="1" stop-color="#438154" stop-opacity="0"/>
</radialGradient>
<radialGradient id="paint25_radial_33_89" cx="0" cy="0" r="1" gradientUnits="userSpaceOnUse" gradientTransform="translate(23.8554 5.79801) rotate(68.1986) scale(2.7704 3.73172)">
<stop stop-color="#438154" stop-opacity="0.79"/>
<stop offset="0.442708" stop-color="#438154" stop-opacity="0.54"/>
<stop offset="0.869792" stop-color="#438154" stop-opacity="0.187798"/>
<stop offset="1" stop-color="#438154" stop-opacity="0"/>
</radialGradient>
<radialGradient id="paint26_radial_33_89" cx="0" cy="0" r="1" gradientUnits="userSpaceOnUse" gradientTransform="translate(16.6892 19.3364) rotate(-25.7693) scale(6.9444 7.44088)">
<stop stop-color="#549756"/>
<stop offset="0.673738" stop-color="#549756" stop-opacity="0.784271"/>
<stop offset="1" stop-color="#549756" stop-opacity="0"/>
</radialGradient>
<radialGradient id="paint27_radial_33_89" cx="0" cy="0" r="1" gradientUnits="userSpaceOnUse" gradientTransform="translate(13.4324 29.9959) rotate(-6.99583) scale(6.09616 6.08302)">
<stop stop-color="#438154" stop-opacity="0.74"/>
<stop offset="0.348958" stop-color="#438154" stop-opacity="0.6"/>
<stop offset="0.592244" stop-color="#438154" stop-opacity="0.41"/>
<stop offset="1" stop-color="#438154" stop-opacity="0"/>
</radialGradient>
<radialGradient id="paint28_radial_33_89" cx="0" cy="0" r="1" gradientUnits="userSpaceOnUse" gradientTransform="translate(15.9832 18.6819) rotate(45) scale(5.77509 5.76264)">
<stop stop-color="#438154" stop-opacity="0.74"/>
<stop offset="0.348958" stop-color="#438154" stop-opacity="0.6"/>
<stop offset="0.534819" stop-color="#438154" stop-opacity="0.41"/>
<stop offset="0.798926" stop-color="#438154" stop-opacity="0.168153"/>
<stop offset="1" stop-color="#438154" stop-opacity="0"/>
</radialGradient>
<radialGradient id="paint29_radial_33_89" cx="0" cy="0" r="1" gradientUnits="userSpaceOnUse" gradientTransform="translate(13.0005 42.1217) rotate(-6.43265) scale(20.0481 10.5809)">
<stop stop-color="#5A6F6C"/>
<stop offset="1" stop-color="#5A6F6C" stop-opacity="0"/>
</radialGradient>
<linearGradient id="paint30_linear_33_89" x1="18.2718" y1="39.5401" x2="18.4701" y2="36.4991" gradientUnits="userSpaceOnUse">
<stop stop-color="#7A7397"/>
<stop offset="1" stop-color="#7A7397" stop-opacity="0"/>
</linearGradient>
<radialGradient id="paint31_radial_33_89" cx="0" cy="0" r="1" gradientUnits="userSpaceOnUse" gradientTransform="translate(10.0528 23.6042) rotate(4.63912) scale(3.70858 3.31096)">
<stop stop-color="#9EB9A3" stop-opacity="0.58"/>
<stop offset="0.410691" stop-color="#9EB9A3" stop-opacity="0.31"/>
<stop offset="0.676901" stop-color="#9EB9A3" stop-opacity="0.0568668"/>
<stop offset="1" stop-color="#9EB9A3" stop-opacity="0"/>
</radialGradient>
<radialGradient id="paint32_radial_33_89" cx="0" cy="0" r="1" gradientUnits="userSpaceOnUse" gradientTransform="translate(37.5129 29.4509) rotate(135) scale(5.82567 5.87819)">
<stop stop-color="#A0E271" stop-opacity="0.8"/>
<stop offset="0.21875" stop-color="#A0E271" stop-opacity="0.66"/>
<stop offset="0.531357" stop-color="#A0E271" stop-opacity="0.303417"/>
<stop offset="0.755769" stop-color="#A0E271" stop-opacity="0.12"/>
<stop offset="1" stop-color="#A0E271" stop-opacity="0"/>
</radialGradient>
<radialGradient id="paint33_radial_33_89" cx="0" cy="0" r="1" gradientUnits="userSpaceOnUse" gradientTransform="translate(35.3748 17.5033) rotate(135) scale(5.30313 5.35094)">
<stop stop-color="#A0E271" stop-opacity="0.8"/>
<stop offset="0.21875" stop-color="#A0E271" stop-opacity="0.706987"/>
<stop offset="0.571322" stop-color="#A0E271" stop-opacity="0.303417"/>
<stop offset="0.780078" stop-color="#A0E271" stop-opacity="0.12"/>
<stop offset="1" stop-color="#A0E271" stop-opacity="0"/>
</radialGradient>
<radialGradient id="paint34_radial_33_89" cx="0" cy="0" r="1" gradientUnits="userSpaceOnUse" gradientTransform="translate(28.2896 9.03357) rotate(143.334) scale(4.24594 4.28422)">
<stop stop-color="#A0E271" stop-opacity="0.56"/>
<stop offset="0.21875" stop-color="#A0E271" stop-opacity="0.51"/>
<stop offset="0.5625" stop-color="#A0E271" stop-opacity="0.28"/>
<stop offset="0.75" stop-color="#A0E271" stop-opacity="0.12"/>
<stop offset="1" stop-color="#A0E271" stop-opacity="0"/>
</radialGradient>
<radialGradient id="paint35_radial_33_89" cx="0" cy="0" r="1" gradientUnits="userSpaceOnUse" gradientTransform="translate(36.0328 23.7951) rotate(84.2773) scale(1.05117 7.91506)">
<stop stop-color="#9DDB71" stop-opacity="0.85"/>
<stop offset="0.561488" stop-color="#9DDB71" stop-opacity="0.291667"/>
<stop offset="0.765625" stop-color="#9DDB71" stop-opacity="0.107391"/>
<stop offset="1" stop-color="#9DDB71" stop-opacity="0"/>
</radialGradient>
<radialGradient id="paint36_radial_33_89" cx="0" cy="0" r="1" gradientUnits="userSpaceOnUse" gradientTransform="translate(37.6884 23.6895) rotate(82.1467) scale(0.836684 2.78868)">
<stop stop-color="#9DDB71" stop-opacity="0.87"/>
<stop offset="0.66814" stop-color="#9DDB71" stop-opacity="0.291667"/>
<stop offset="1" stop-color="#9DDB71" stop-opacity="0"/>
</radialGradient>
<radialGradient id="paint37_radial_33_89" cx="0" cy="0" r="1" gradientUnits="userSpaceOnUse" gradientTransform="translate(32.168 23.8352) rotate(87.9546) scale(1.01859 6.26516)">
<stop stop-color="#9DDB71" stop-opacity="0.8"/>
<stop offset="0.437065" stop-color="#9DDB71" stop-opacity="0.291667"/>
<stop offset="0.6875" stop-color="#9DDB71" stop-opacity="0.086353"/>
<stop offset="1" stop-color="#9DDB71" stop-opacity="0"/>
</radialGradient>
<radialGradient id="paint38_radial_33_89" cx="0" cy="0" r="1" gradientUnits="userSpaceOnUse" gradientTransform="translate(27.8295 24.1857) rotate(89.1804) scale(1.37968 11.6055)">
<stop stop-color="#9DDB71" stop-opacity="0.67"/>
<stop offset="0.404562" stop-color="#9DDB71" stop-opacity="0.291667"/>
<stop offset="0.653893" stop-color="#9DDB71" stop-opacity="0.086353"/>
<stop offset="1" stop-color="#9DDB71" stop-opacity="0"/>
</radialGradient>
<radialGradient id="paint39_radial_33_89" cx="0" cy="0" r="1" gradientUnits="userSpaceOnUse" gradientTransform="translate(30.1115 12.6028) rotate(73.3512) scale(0.974541 3.25254)">
<stop stop-color="#9DDB71" stop-opacity="0.85"/>
<stop offset="0.404562" stop-color="#9DDB71" stop-opacity="0.46"/>
<stop offset="0.728639" stop-color="#9DDB71" stop-opacity="0.086353"/>
<stop offset="1" stop-color="#9DDB71" stop-opacity="0"/>
</radialGradient>
<radialGradient id="paint40_radial_33_89" cx="0" cy="0" r="1" gradientUnits="userSpaceOnUse" gradientTransform="translate(28.3234 12.9772) rotate(81.5288) scale(0.759295 3.1921)">
<stop stop-color="#9DDB71" stop-opacity="0.85"/>
<stop offset="0.368282" stop-color="#9DDB71" stop-opacity="0.46"/>
<stop offset="0.651385" stop-color="#9DDB71" stop-opacity="0.086353"/>
<stop offset="1" stop-color="#9DDB71" stop-opacity="0"/>
</radialGradient>
<radialGradient id="paint41_radial_33_89" cx="0" cy="0" r="1" gradientUnits="userSpaceOnUse" gradientTransform="translate(26.5691 13.3507) rotate(88.2826) scale(0.686827 3.40176)">
<stop stop-color="#9DDB71" stop-opacity="0.85"/>
<stop offset="0.368282" stop-color="#9DDB71" stop-opacity="0.46"/>
<stop offset="0.701754" stop-color="#9DDB71" stop-opacity="0.086353"/>
<stop offset="1" stop-color="#9DDB71" stop-opacity="0"/>
</radialGradient>
<radialGradient id="paint42_radial_33_89" cx="0" cy="0" r="1" gradientUnits="userSpaceOnUse" gradientTransform="translate(31.598 11.995) rotate(69.1582) scale(0.907327 1.89534)">
<stop stop-color="#9DDB71" stop-opacity="0.85"/>
<stop offset="0.404562" stop-color="#9DDB71" stop-opacity="0.46"/>
<stop offset="0.703317" stop-color="#9DDB71" stop-opacity="0.086353"/>
<stop offset="1" stop-color="#9DDB71" stop-opacity="0"/>
</radialGradient>
<radialGradient id="paint43_radial_33_89" cx="0" cy="0" r="1" gradientUnits="userSpaceOnUse" gradientTransform="translate(39.7233 23.6366) rotate(174.633) scale(1.92872 2.42962)">
<stop offset="0.34375" stop-color="#81CB44"/>
<stop offset="0.484375" stop-color="#81CB44" stop-opacity="0.85"/>
<stop offset="0.783397" stop-color="#81CB44" stop-opacity="0.380156"/>
<stop offset="1" stop-color="#81CB44" stop-opacity="0"/>
</radialGradient>
<radialGradient id="paint44_radial_33_89" cx="0" cy="0" r="1" gradientUnits="userSpaceOnUse" gradientTransform="translate(21.308 29.9173) rotate(0.161304) scale(9.46275 9.46184)">
<stop stop-color="#81CB44" stop-opacity="0.22"/>
<stop offset="0.453125" stop-color="#81CB44" stop-opacity="0.13"/>
<stop offset="0.760417" stop-color="#81CB44" stop-opacity="0.0606667"/>
<stop offset="1" stop-color="#81CB44" stop-opacity="0"/>
</radialGradient>
<radialGradient id="paint45_radial_33_89" cx="0" cy="0" r="1" gradientUnits="userSpaceOnUse" gradientTransform="translate(25.2349 19.625) rotate(-180) scale(10.205 6.29981)">
<stop stop-color="#81CB44" stop-opacity="0.38"/>
<stop offset="0.245477" stop-color="#81CB44" stop-opacity="0.21"/>
<stop offset="0.548023" stop-color="#81CB44" stop-opacity="0.142984"/>
<stop offset="0.836158" stop-color="#81CB44" stop-opacity="0.0606667"/>
<stop offset="1" stop-color="#81CB44" stop-opacity="0"/>
</radialGradient>
<radialGradient id="paint46_radial_33_89" cx="0" cy="0" r="1" gradientUnits="userSpaceOnUse" gradientTransform="translate(25.8311 8.72122) rotate(180) scale(4.93849 6.24407)">
<stop stop-color="#81CB44" stop-opacity="0.29"/>
<stop offset="0.557215" stop-color="#81CB44" stop-opacity="0.19"/>
<stop offset="0.7707" stop-color="#81CB44" stop-opacity="0.09"/>
<stop offset="1" stop-color="#81CB44" stop-opacity="0"/>
</radialGradient>
<radialGradient id="paint47_radial_33_89" cx="0" cy="0" r="1" gradientUnits="userSpaceOnUse" gradientTransform="translate(21.0484 22.0871) scale(12.1642 4.80025)">
<stop stop-color="#5B8F67"/>
<stop offset="0.83377" stop-color="#5B8F67" stop-opacity="0"/>
</radialGradient>
</defs>
</svg>
