<svg width="42" height="42" viewBox="0 0 42 42" fill="none" xmlns="http://www.w3.org/2000/svg">
<rect x="18.416" y="11.0742" width="3.81445" height="18.3955" fill="url(#paint0_linear_33_90)"/>
<rect x="18.416" y="11.0742" width="3.81445" height="18.3955" fill="url(#paint1_linear_33_90)"/>
<rect x="18.416" y="11.0742" width="3.81445" height="18.3955" fill="url(#paint2_linear_33_90)"/>
<rect x="18.416" y="11.0742" width="3.81445" height="18.3955" fill="url(#paint3_radial_33_90)"/>
<rect x="18.416" y="11.0742" width="3.81445" height="18.3955" fill="url(#paint4_radial_33_90)"/>
<rect x="18.416" y="11.0742" width="3.81445" height="18.3955" fill="url(#paint5_radial_33_90)"/>
<path d="M19.6875 17.8394C19.6875 13.1064 24.0557 9.57715 30.0439 9.26953H38.7574C39.0532 9.26953 39.293 9.50933 39.293 9.80515C38.7574 14.8887 35.9297 17.9648 29.2441 18.375H20.2231C19.9273 18.375 19.6875 18.1352 19.6875 17.8394Z" fill="url(#paint6_linear_33_90)"/>
<path d="M19.6875 17.8394C19.6875 13.1064 24.0557 9.57715 30.0439 9.26953H38.7574C39.0532 9.26953 39.293 9.50933 39.293 9.80515C38.7574 14.8887 35.9297 17.9648 29.2441 18.375H20.2231C19.9273 18.375 19.6875 18.1352 19.6875 17.8394Z" fill="url(#paint7_linear_33_90)"/>
<path d="M19.6875 17.8394C19.6875 13.1064 24.0557 9.57715 30.0439 9.26953H38.7574C39.0532 9.26953 39.293 9.50933 39.293 9.80515C38.7574 14.8887 35.9297 17.9648 29.2441 18.375H20.2231C19.9273 18.375 19.6875 18.1352 19.6875 17.8394Z" fill="url(#paint8_linear_33_90)"/>
<path d="M19.6875 17.8394C19.6875 13.1064 24.0557 9.57715 30.0439 9.26953H38.7574C39.0532 9.26953 39.293 9.50933 39.293 9.80515C38.7574 14.8887 35.9297 17.9648 29.2441 18.375H20.2231C19.9273 18.375 19.6875 18.1352 19.6875 17.8394Z" fill="url(#paint9_linear_33_90)"/>
<path d="M19.6875 17.8394C19.6875 13.1064 24.0557 9.57715 30.0439 9.26953H38.7574C39.0532 9.26953 39.293 9.50933 39.293 9.80515C38.7574 14.8887 35.9297 17.9648 29.2441 18.375H20.2231C19.9273 18.375 19.6875 18.1352 19.6875 17.8394Z" fill="url(#paint10_radial_33_90)"/>
<path d="M19.6875 17.8394C19.6875 13.1064 24.0557 9.57715 30.0439 9.26953H38.7574C39.0532 9.26953 39.293 9.50933 39.293 9.80515C38.7574 14.8887 35.9297 17.9648 29.2441 18.375H20.2231C19.9273 18.375 19.6875 18.1352 19.6875 17.8394Z" fill="url(#paint11_radial_33_90)"/>
<path d="M19.6875 17.8394C19.6875 13.1064 24.0557 9.57715 30.0439 9.26953H38.7574C39.0532 9.26953 39.293 9.50933 39.293 9.80515C38.7574 14.8887 35.9297 17.9648 29.2441 18.375H20.2231C19.9273 18.375 19.6875 18.1352 19.6875 17.8394Z" fill="url(#paint12_linear_33_90)"/>
<path d="M22.2305 11.1949C22.2305 6.46185 17.8623 2.93262 11.874 2.625H3.16062C2.8648 2.625 2.625 2.8648 2.625 3.16062C3.16062 8.24414 5.98828 11.3203 12.6738 11.7305H21.6949C21.9907 11.7305 22.2305 11.4907 22.2305 11.1949Z" fill="url(#paint13_linear_33_90)"/>
<path d="M22.2305 11.1949C22.2305 6.46185 17.8623 2.93262 11.874 2.625H3.16062C2.8648 2.625 2.625 2.8648 2.625 3.16062C3.16062 8.24414 5.98828 11.3203 12.6738 11.7305H21.6949C21.9907 11.7305 22.2305 11.4907 22.2305 11.1949Z" fill="url(#paint14_radial_33_90)"/>
<path d="M22.2305 11.1949C22.2305 6.46185 17.8623 2.93262 11.874 2.625H3.16062C2.8648 2.625 2.625 2.8648 2.625 3.16062C3.16062 8.24414 5.98828 11.3203 12.6738 11.7305H21.6949C21.9907 11.7305 22.2305 11.4907 22.2305 11.1949Z" fill="url(#paint15_radial_33_90)"/>
<path d="M22.2305 11.1949C22.2305 6.46185 17.8623 2.93262 11.874 2.625H3.16062C2.8648 2.625 2.625 2.8648 2.625 3.16062C3.16062 8.24414 5.98828 11.3203 12.6738 11.7305H21.6949C21.9907 11.7305 22.2305 11.4907 22.2305 11.1949Z" fill="url(#paint16_radial_33_90)"/>
<path d="M22.2305 11.1949C22.2305 6.46185 17.8623 2.93262 11.874 2.625H3.16062C2.8648 2.625 2.625 2.8648 2.625 3.16062C3.16062 8.24414 5.98828 11.3203 12.6738 11.7305H21.6949C21.9907 11.7305 22.2305 11.4907 22.2305 11.1949Z" fill="url(#paint17_radial_33_90)" fill-opacity="0.6"/>
<path d="M22.2305 11.1949C22.2305 6.46185 17.8623 2.93262 11.874 2.625H3.16062C2.8648 2.625 2.625 2.8648 2.625 3.16062C3.16062 8.24414 5.98828 11.3203 12.6738 11.7305H21.6949C21.9907 11.7305 22.2305 11.4907 22.2305 11.1949Z" fill="url(#paint18_radial_33_90)" fill-opacity="0.4"/>
<path d="M22.2305 11.1949C22.2305 6.46185 17.8623 2.93262 11.874 2.625H3.16062C2.8648 2.625 2.625 2.8648 2.625 3.16062C3.16062 8.24414 5.98828 11.3203 12.6738 11.7305H21.6949C21.9907 11.7305 22.2305 11.4907 22.2305 11.1949Z" fill="url(#paint19_radial_33_90)" fill-opacity="0.6"/>
<path d="M22.2305 11.1949C22.2305 6.46185 17.8623 2.93262 11.874 2.625H3.16062C2.8648 2.625 2.625 2.8648 2.625 3.16062C3.16062 8.24414 5.98828 11.3203 12.6738 11.7305H21.6949C21.9907 11.7305 22.2305 11.4907 22.2305 11.1949Z" fill="url(#paint20_radial_33_90)" fill-opacity="0.6"/>
<path d="M22.2305 11.1949C22.2305 6.46185 17.8623 2.93262 11.874 2.625H3.16062C2.8648 2.625 2.625 2.8648 2.625 3.16062C3.16062 8.24414 5.98828 11.3203 12.6738 11.7305H21.6949C21.9907 11.7305 22.2305 11.4907 22.2305 11.1949Z" fill="url(#paint21_linear_33_90)" fill-opacity="0.7"/>
<path d="M20.3633 27.4805C13.668 27.4805 8.20736 32.5319 7.93271 38.8613C7.92074 39.1372 8.14573 39.3617 8.42188 39.3617H32.3184C32.5945 39.3617 32.8195 39.1372 32.8075 38.8613C32.5329 32.5319 27.0719 27.4805 20.3633 27.4805Z" fill="url(#paint22_radial_33_90)"/>
<path d="M20.3633 27.4805C13.668 27.4805 8.20736 32.5319 7.93271 38.8613C7.92074 39.1372 8.14573 39.3617 8.42188 39.3617H32.3184C32.5945 39.3617 32.8195 39.1372 32.8075 38.8613C32.5329 32.5319 27.0719 27.4805 20.3633 27.4805Z" fill="url(#paint23_linear_33_90)"/>
<path d="M20.3633 27.4805C13.668 27.4805 8.20736 32.5319 7.93271 38.8613C7.92074 39.1372 8.14573 39.3617 8.42188 39.3617H32.3184C32.5945 39.3617 32.8195 39.1372 32.8075 38.8613C32.5329 32.5319 27.0719 27.4805 20.3633 27.4805Z" fill="url(#paint24_radial_33_90)"/>
<path d="M20.3633 27.4805C13.668 27.4805 8.20736 32.5319 7.93271 38.8613C7.92074 39.1372 8.14573 39.3617 8.42188 39.3617H32.3184C32.5945 39.3617 32.8195 39.1372 32.8075 38.8613C32.5329 32.5319 27.0719 27.4805 20.3633 27.4805Z" fill="url(#paint25_radial_33_90)"/>
<path d="M20.3633 27.4805C13.668 27.4805 8.20736 32.5319 7.93271 38.8613C7.92074 39.1372 8.14573 39.3617 8.42188 39.3617H32.3184C32.5945 39.3617 32.8195 39.1372 32.8075 38.8613C32.5329 32.5319 27.0719 27.4805 20.3633 27.4805Z" fill="url(#paint26_radial_33_90)"/>
<path d="M20.3633 27.4805C13.668 27.4805 8.20736 32.5319 7.93271 38.8613C7.92074 39.1372 8.14573 39.3617 8.42188 39.3617H32.3184C32.5945 39.3617 32.8195 39.1372 32.8075 38.8613C32.5329 32.5319 27.0719 27.4805 20.3633 27.4805Z" fill="url(#paint27_radial_33_90)"/>
<defs>
<linearGradient id="paint0_linear_33_90" x1="18.416" y1="18.7923" x2="21.1552" y2="18.7923" gradientUnits="userSpaceOnUse">
<stop stop-color="#81BC52"/>
<stop offset="0.963197" stop-color="#C0F65F"/>
</linearGradient>
<linearGradient id="paint1_linear_33_90" x1="19.2665" y1="11.0742" x2="19.6408" y2="13.7455" gradientUnits="userSpaceOnUse">
<stop stop-color="#81BC52"/>
<stop offset="1" stop-color="#81BC52" stop-opacity="0"/>
</linearGradient>
<linearGradient id="paint2_linear_33_90" x1="23.2952" y1="17.6972" x2="21.4093" y2="17.8784" gradientUnits="userSpaceOnUse">
<stop stop-color="#81BC52"/>
<stop offset="1" stop-color="#81BC52" stop-opacity="0"/>
</linearGradient>
<radialGradient id="paint3_radial_33_90" cx="0" cy="0" r="1" gradientUnits="userSpaceOnUse" gradientTransform="translate(19.9589 16.4216) rotate(90) scale(5.66125 3.69222)">
<stop stop-color="#81BC52"/>
<stop offset="1" stop-color="#81BC52" stop-opacity="0"/>
</radialGradient>
<radialGradient id="paint4_radial_33_90" cx="0" cy="0" r="1" gradientUnits="userSpaceOnUse" gradientTransform="translate(21.7253 18.1569) rotate(103.046) scale(0.800709 2.2064)">
<stop stop-color="#81BC52"/>
<stop offset="1" stop-color="#81BC52" stop-opacity="0"/>
</radialGradient>
<radialGradient id="paint5_radial_33_90" cx="0" cy="0" r="1" gradientUnits="userSpaceOnUse" gradientTransform="translate(20.6611 14.5186) rotate(22.1177) scale(0.734529 3.65455)">
<stop stop-color="#5EB816"/>
<stop offset="0.818975" stop-color="#5EB816" stop-opacity="0"/>
</radialGradient>
<linearGradient id="paint6_linear_33_90" x1="21.6458" y1="19.845" x2="38.1017" y2="8.30214" gradientUnits="userSpaceOnUse">
<stop stop-color="#81BC52"/>
<stop offset="1" stop-color="#ABEE48"/>
</linearGradient>
<linearGradient id="paint7_linear_33_90" x1="28.8958" y1="18.6192" x2="28.8958" y2="16.9591" gradientUnits="userSpaceOnUse">
<stop stop-color="#81BC52"/>
<stop offset="1" stop-color="#81BC52" stop-opacity="0"/>
</linearGradient>
<linearGradient id="paint8_linear_33_90" x1="33.6169" y1="18.375" x2="32.7031" y2="16.4724" gradientUnits="userSpaceOnUse">
<stop stop-color="#81BC52"/>
<stop offset="1" stop-color="#81BC52" stop-opacity="0"/>
</linearGradient>
<linearGradient id="paint9_linear_33_90" x1="38.1977" y1="15.3751" x2="36.11" y2="14.2822" gradientUnits="userSpaceOnUse">
<stop stop-color="#81BC52"/>
<stop offset="1" stop-color="#81BC52" stop-opacity="0"/>
</linearGradient>
<radialGradient id="paint10_radial_33_90" cx="0" cy="0" r="1" gradientUnits="userSpaceOnUse" gradientTransform="translate(36.4609 11.9138) rotate(158.311) scale(15.7626 5.68978)">
<stop stop-color="#C2FD65" stop-opacity="0.64"/>
<stop offset="1" stop-color="#C2FD65" stop-opacity="0"/>
</radialGradient>
<radialGradient id="paint11_radial_33_90" cx="0" cy="0" r="1" gradientUnits="userSpaceOnUse" gradientTransform="translate(39.6719 9.26953) rotate(143.506) scale(6.79169 1.64455)">
<stop stop-color="#E1FFB1"/>
<stop offset="1" stop-color="#CBFF78" stop-opacity="0"/>
</radialGradient>
<linearGradient id="paint12_linear_33_90" x1="32.7031" y1="8.08444" x2="32.7031" y2="10.2197" gradientUnits="userSpaceOnUse">
<stop stop-color="#96D240"/>
<stop offset="1" stop-color="#ADEF4F" stop-opacity="0"/>
</linearGradient>
<linearGradient id="paint13_linear_33_90" x1="18.1114" y1="0.811454" x2="11.6139" y2="10.7125" gradientUnits="userSpaceOnUse">
<stop stop-color="#BEF85C"/>
<stop offset="1" stop-color="#90CD2F"/>
</linearGradient>
<radialGradient id="paint14_radial_33_90" cx="0" cy="0" r="1" gradientUnits="userSpaceOnUse" gradientTransform="translate(19.4264 3.51877) rotate(-171.715) scale(11.047 9.23566)">
<stop stop-color="#B6EB53"/>
<stop offset="1" stop-color="#B6EB53" stop-opacity="0"/>
</radialGradient>
<radialGradient id="paint15_radial_33_90" cx="0" cy="0" r="1" gradientUnits="userSpaceOnUse" gradientTransform="translate(17.5008 5.4801) rotate(-158.469) scale(9.68173 8.09422)">
<stop stop-color="#B8F053"/>
<stop offset="1" stop-color="#B8F053" stop-opacity="0"/>
</radialGradient>
<radialGradient id="paint16_radial_33_90" cx="0" cy="0" r="1" gradientUnits="userSpaceOnUse" gradientTransform="translate(3.39183 20.3387) rotate(-39.8799) scale(21.6369 16.7659)">
<stop stop-color="#D1FF77" stop-opacity="0"/>
<stop offset="0.837938" stop-color="#D1FF77" stop-opacity="0"/>
<stop offset="0.895132" stop-color="#D1FF77" stop-opacity="0.0569351"/>
<stop offset="0.925992" stop-color="#D1FF77" stop-opacity="0.15"/>
<stop offset="0.955339" stop-color="#D1FF77" stop-opacity="0.36"/>
<stop offset="1" stop-color="#D1FF77" stop-opacity="0"/>
</radialGradient>
<radialGradient id="paint17_radial_33_90" cx="0" cy="0" r="1" gradientUnits="userSpaceOnUse" gradientTransform="translate(13.1701 3.11101) rotate(145.214) scale(9.66083 13.1334)">
<stop stop-color="#81BC52" stop-opacity="0"/>
<stop offset="0.894411" stop-color="#81BC52" stop-opacity="0"/>
<stop offset="0.955727" stop-color="#81BC52" stop-opacity="0.332789"/>
<stop offset="1" stop-color="#81BC52"/>
</radialGradient>
<radialGradient id="paint18_radial_33_90" cx="0" cy="0" r="1" gradientUnits="userSpaceOnUse" gradientTransform="translate(13.4493 -2.92154) rotate(100.244) scale(14.525 23.6645)">
<stop stop-color="#81BC52" stop-opacity="0"/>
<stop offset="0.953954" stop-color="#81BC52" stop-opacity="0"/>
<stop offset="0.987099" stop-color="#81BC52" stop-opacity="0.77"/>
<stop offset="1" stop-color="#81BC52"/>
</radialGradient>
<radialGradient id="paint19_radial_33_90" cx="0" cy="0" r="1" gradientUnits="userSpaceOnUse" gradientTransform="translate(13.4493 -2.92154) rotate(116.726) scale(14.7355 24.0075)">
<stop stop-color="#81BC52" stop-opacity="0"/>
<stop offset="0.881174" stop-color="#81BC52" stop-opacity="0"/>
<stop offset="0.924412" stop-color="#81BC52" stop-opacity="0.325906"/>
<stop offset="0.981742" stop-color="#81BC52" stop-opacity="0.77"/>
<stop offset="1" stop-color="#81BC52"/>
</radialGradient>
<radialGradient id="paint20_radial_33_90" cx="0" cy="0" r="1" gradientUnits="userSpaceOnUse" gradientTransform="translate(11.0025 12.104) rotate(-83.609) scale(9.73718 17.2054)">
<stop stop-color="#81BC52" stop-opacity="0"/>
<stop offset="0.907432" stop-color="#81BC52" stop-opacity="0.0384281"/>
<stop offset="0.956328" stop-color="#81BC52" stop-opacity="0.332789"/>
<stop offset="1" stop-color="#81BC52" stop-opacity="0.78"/>
</radialGradient>
<linearGradient id="paint21_linear_33_90" x1="15.0322" y1="7.17773" x2="15.0322" y2="11.7549" gradientUnits="userSpaceOnUse">
<stop offset="0.638716" stop-color="#81A957" stop-opacity="0"/>
<stop offset="0.69368" stop-color="#81BC52" stop-opacity="0.04"/>
<stop offset="0.779851" stop-color="#81BC52" stop-opacity="0.21"/>
<stop offset="0.893696" stop-color="#81BC52" stop-opacity="0.58"/>
<stop offset="0.969711" stop-color="#81BC52"/>
</linearGradient>
<radialGradient id="paint22_radial_33_90" cx="0" cy="0" r="1" gradientUnits="userSpaceOnUse" gradientTransform="translate(26.1641 40.3521) rotate(-135.607) scale(14.7254 14.0625)">
<stop stop-color="#BF8B88"/>
<stop offset="1" stop-color="#835146"/>
</radialGradient>
<linearGradient id="paint23_linear_33_90" x1="20.3701" y1="39.5243" x2="20.3701" y2="38.5165" gradientUnits="userSpaceOnUse">
<stop offset="0.132648" stop-color="#8C3C60"/>
<stop offset="0.842659" stop-color="#964972" stop-opacity="0"/>
</linearGradient>
<radialGradient id="paint24_radial_33_90" cx="0" cy="0" r="1" gradientUnits="userSpaceOnUse" gradientTransform="translate(15.5387 41.1874) rotate(-75.2592) scale(9.08111 6.57667)">
<stop stop-color="#A3646D"/>
<stop offset="1" stop-color="#A3646D" stop-opacity="0"/>
</radialGradient>
<radialGradient id="paint25_radial_33_90" cx="0" cy="0" r="1" gradientUnits="userSpaceOnUse" gradientTransform="translate(33.3114 27.4805) rotate(134.291) scale(8.29929 15.1323)">
<stop stop-color="#BF8B88"/>
<stop offset="1" stop-color="#BF8B88" stop-opacity="0"/>
</radialGradient>
<radialGradient id="paint26_radial_33_90" cx="0" cy="0" r="1" gradientUnits="userSpaceOnUse" gradientTransform="translate(9.56587 28.9395) rotate(50.0424) scale(10.7803)">
<stop stop-color="#4F2B27"/>
<stop offset="1" stop-color="#936057" stop-opacity="0"/>
</radialGradient>
<radialGradient id="paint27_radial_33_90" cx="0" cy="0" r="1" gradientUnits="userSpaceOnUse" gradientTransform="translate(20.3102 38.7672) rotate(90) scale(17.742 19.124)">
<stop stop-color="#8E7D7C" stop-opacity="0"/>
<stop offset="0.520637" stop-color="#8E7D7C" stop-opacity="0"/>
<stop offset="0.592724" stop-color="#8E7D7C" stop-opacity="0"/>
<stop offset="0.660271" stop-color="#8E7D7C"/>
<stop offset="1" stop-color="#8E7D7C" stop-opacity="0"/>
</radialGradient>
</defs>
</svg>
