<svg width="54" height="60" viewBox="0 0 54 60" fill="none" xmlns="http://www.w3.org/2000/svg">
<path d="M40.3793 31.8333H33.6731C33.1038 31.8333 32.6711 31.1868 32.7964 30.5129L33.3429 27.5833H40.7095L41.256 30.5129C41.3699 31.1868 40.9486 31.8333 40.3793 31.8333Z" fill="#795556"/>
<path d="M40.3793 31.8333H33.6731C33.1038 31.8333 32.6711 31.1868 32.7964 30.5129L33.3429 27.5833H40.7095L41.256 30.5129C41.3699 31.1868 40.9486 31.8333 40.3793 31.8333Z" fill="url(#paint0_radial_43_125)"/>
<path d="M40.3793 31.8333H33.6731C33.1038 31.8333 32.6711 31.1868 32.7964 30.5129L33.3429 27.5833H40.7095L41.256 30.5129C41.3699 31.1868 40.9486 31.8333 40.3793 31.8333Z" fill="url(#paint1_radial_43_125)"/>
<path d="M40.3793 31.8333H33.6731C33.1038 31.8333 32.6711 31.1868 32.7964 30.5129L33.3429 27.5833H40.7095L41.256 30.5129C41.3699 31.1868 40.9486 31.8333 40.3793 31.8333Z" fill="url(#paint2_linear_43_125)"/>
<path d="M40.3793 31.8333H33.6731C33.1038 31.8333 32.6711 31.1868 32.7964 30.5129L33.3429 27.5833H40.7095L41.256 30.5129C41.3699 31.1868 40.9486 31.8333 40.3793 31.8333Z" fill="url(#paint3_linear_43_125)"/>
<path d="M40.3793 31.8333H33.6731C33.1038 31.8333 32.6711 31.1868 32.7964 30.5129L33.3429 27.5833H40.7095L41.256 30.5129C41.3699 31.1868 40.9486 31.8333 40.3793 31.8333Z" fill="url(#paint4_linear_43_125)"/>
<path d="M40.3793 31.8333H33.6731C33.1038 31.8333 32.6711 31.1868 32.7964 30.5129L33.3429 27.5833H40.7095L41.256 30.5129C41.3699 31.1868 40.9486 31.8333 40.3793 31.8333Z" fill="url(#paint5_linear_43_125)"/>
<path d="M33.1513 20.4612L37.0247 19.3987L40.8982 20.4612C43.1175 20.4612 44.0177 20.7831 45.1844 22.0217C45.9066 22.8822 46.6121 23.8069 46.5291 25.5081C46.4296 27.55 45.2509 28.5793 42.8104 28.5793H31.239C28.7986 28.5793 27.6199 27.55 27.5203 25.5081C27.4374 23.8069 28.1428 22.8822 28.8651 22.0217C30.0318 20.7831 30.9319 20.4612 33.1513 20.4612Z" fill="url(#paint6_radial_43_125)"/>
<path d="M33.1513 20.4612L37.0247 19.3987L40.8982 20.4612C43.1175 20.4612 44.0177 20.7831 45.1844 22.0217C45.9066 22.8822 46.6121 23.8069 46.5291 25.5081C46.4296 27.55 45.2509 28.5793 42.8104 28.5793H31.239C28.7986 28.5793 27.6199 27.55 27.5203 25.5081C27.4374 23.8069 28.1428 22.8822 28.8651 22.0217C30.0318 20.7831 30.9319 20.4612 33.1513 20.4612Z" fill="url(#paint7_radial_43_125)"/>
<path d="M33.1513 20.4612L37.0247 19.3987L40.8982 20.4612C43.1175 20.4612 44.0177 20.7831 45.1844 22.0217C45.9066 22.8822 46.6121 23.8069 46.5291 25.5081C46.4296 27.55 45.2509 28.5793 42.8104 28.5793H31.239C28.7986 28.5793 27.6199 27.55 27.5203 25.5081C27.4374 23.8069 28.1428 22.8822 28.8651 22.0217C30.0318 20.7831 30.9319 20.4612 33.1513 20.4612Z" fill="url(#paint8_radial_43_125)"/>
<path d="M33.1513 20.4612L37.0247 19.3987L40.8982 20.4612C43.1175 20.4612 44.0177 20.7831 45.1844 22.0217C45.9066 22.8822 46.6121 23.8069 46.5291 25.5081C46.4296 27.55 45.2509 28.5793 42.8104 28.5793H31.239C28.7986 28.5793 27.6199 27.55 27.5203 25.5081C27.4374 23.8069 28.1428 22.8822 28.8651 22.0217C30.0318 20.7831 30.9319 20.4612 33.1513 20.4612Z" fill="url(#paint9_linear_43_125)"/>
<path d="M33.1513 20.4612L37.0247 19.3987L40.8982 20.4612C43.1175 20.4612 44.0177 20.7831 45.1844 22.0217C45.9066 22.8822 46.6121 23.8069 46.5291 25.5081C46.4296 27.55 45.2509 28.5793 42.8104 28.5793H31.239C28.7986 28.5793 27.6199 27.55 27.5203 25.5081C27.4374 23.8069 28.1428 22.8822 28.8651 22.0217C30.0318 20.7831 30.9319 20.4612 33.1513 20.4612Z" fill="url(#paint10_radial_43_125)"/>
<path d="M33.1513 20.4612L37.0247 19.3987L40.8982 20.4612C43.1175 20.4612 44.0177 20.7831 45.1844 22.0217C45.9066 22.8822 46.6121 23.8069 46.5291 25.5081C46.4296 27.55 45.2509 28.5793 42.8104 28.5793H31.239C28.7986 28.5793 27.6199 27.55 27.5203 25.5081C27.4374 23.8069 28.1428 22.8822 28.8651 22.0217C30.0318 20.7831 30.9319 20.4612 33.1513 20.4612Z" fill="url(#paint11_radial_43_125)"/>
<path d="M33.1513 20.4612L37.0247 19.3987L40.8982 20.4612C43.1175 20.4612 44.0177 20.7831 45.1844 22.0217C45.9066 22.8822 46.6121 23.8069 46.5291 25.5081C46.4296 27.55 45.2509 28.5793 42.8104 28.5793H31.239C28.7986 28.5793 27.6199 27.55 27.5203 25.5081C27.4374 23.8069 28.1428 22.8822 28.8651 22.0217C30.0318 20.7831 30.9319 20.4612 33.1513 20.4612Z" fill="url(#paint12_radial_43_125)"/>
<path d="M33.1513 20.4612L37.0247 19.3987L40.8982 20.4612C43.1175 20.4612 44.0177 20.7831 45.1844 22.0217C45.9066 22.8822 46.6121 23.8069 46.5291 25.5081C46.4296 27.55 45.2509 28.5793 42.8104 28.5793H31.239C28.7986 28.5793 27.6199 27.55 27.5203 25.5081C27.4374 23.8069 28.1428 22.8822 28.8651 22.0217C30.0318 20.7831 30.9319 20.4612 33.1513 20.4612Z" fill="url(#paint13_radial_43_125)"/>
<path d="M33.1513 20.4612L37.0247 19.3987L40.8982 20.4612C43.1175 20.4612 44.0177 20.7831 45.1844 22.0217C45.9066 22.8822 46.6121 23.8069 46.5291 25.5081C46.4296 27.55 45.2509 28.5793 42.8104 28.5793H31.239C28.7986 28.5793 27.6199 27.55 27.5203 25.5081C27.4374 23.8069 28.1428 22.8822 28.8651 22.0217C30.0318 20.7831 30.9319 20.4612 33.1513 20.4612Z" fill="url(#paint14_radial_43_125)" fill-opacity="0.6"/>
<path d="M34.5028 14.6672C33.4444 14.6672 32.5382 15.0366 31.7787 15.9207C31.7492 15.9593 31.7194 15.9979 31.6894 16.0368C31.2423 16.6168 30.7584 17.2445 30.5834 18.3573C30.5086 19.7722 31.2028 20.4612 32.3764 20.4612H41.6401C42.8137 20.4612 43.5078 19.7722 43.4331 18.3573C43.2581 17.2445 42.7742 16.6168 42.3271 16.0368C42.2971 15.9979 42.2673 15.9593 42.2377 15.9207C41.4782 15.0366 40.572 14.6672 39.5136 14.6672L37.0082 13.6047L34.5028 14.6672Z" fill="url(#paint15_radial_43_125)"/>
<path d="M34.5028 14.6672C33.4444 14.6672 32.5382 15.0366 31.7787 15.9207C31.7492 15.9593 31.7194 15.9979 31.6894 16.0368C31.2423 16.6168 30.7584 17.2445 30.5834 18.3573C30.5086 19.7722 31.2028 20.4612 32.3764 20.4612H41.6401C42.8137 20.4612 43.5078 19.7722 43.4331 18.3573C43.2581 17.2445 42.7742 16.6168 42.3271 16.0368C42.2971 15.9979 42.2673 15.9593 42.2377 15.9207C41.4782 15.0366 40.572 14.6672 39.5136 14.6672L37.0082 13.6047L34.5028 14.6672Z" fill="url(#paint16_linear_43_125)"/>
<path d="M34.5028 14.6672C33.4444 14.6672 32.5382 15.0366 31.7787 15.9207C31.7492 15.9593 31.7194 15.9979 31.6894 16.0368C31.2423 16.6168 30.7584 17.2445 30.5834 18.3573C30.5086 19.7722 31.2028 20.4612 32.3764 20.4612H41.6401C42.8137 20.4612 43.5078 19.7722 43.4331 18.3573C43.2581 17.2445 42.7742 16.6168 42.3271 16.0368C42.2971 15.9979 42.2673 15.9593 42.2377 15.9207C41.4782 15.0366 40.572 14.6672 39.5136 14.6672L37.0082 13.6047L34.5028 14.6672Z" fill="url(#paint17_radial_43_125)"/>
<path d="M34.5028 14.6672C33.4444 14.6672 32.5382 15.0366 31.7787 15.9207C31.7492 15.9593 31.7194 15.9979 31.6894 16.0368C31.2423 16.6168 30.7584 17.2445 30.5834 18.3573C30.5086 19.7722 31.2028 20.4612 32.3764 20.4612H41.6401C42.8137 20.4612 43.5078 19.7722 43.4331 18.3573C43.2581 17.2445 42.7742 16.6168 42.3271 16.0368C42.2971 15.9979 42.2673 15.9593 42.2377 15.9207C41.4782 15.0366 40.572 14.6672 39.5136 14.6672L37.0082 13.6047L34.5028 14.6672Z" fill="url(#paint18_radial_43_125)"/>
<path d="M34.5028 14.6672C33.4444 14.6672 32.5382 15.0366 31.7787 15.9207C31.7492 15.9593 31.7194 15.9979 31.6894 16.0368C31.2423 16.6168 30.7584 17.2445 30.5834 18.3573C30.5086 19.7722 31.2028 20.4612 32.3764 20.4612H41.6401C42.8137 20.4612 43.5078 19.7722 43.4331 18.3573C43.2581 17.2445 42.7742 16.6168 42.3271 16.0368C42.2971 15.9979 42.2673 15.9593 42.2377 15.9207C41.4782 15.0366 40.572 14.6672 39.5136 14.6672L37.0082 13.6047L34.5028 14.6672Z" fill="url(#paint19_radial_43_125)"/>
<path d="M34.5028 14.6672C33.4444 14.6672 32.5382 15.0366 31.7787 15.9207C31.7492 15.9593 31.7194 15.9979 31.6894 16.0368C31.2423 16.6168 30.7584 17.2445 30.5834 18.3573C30.5086 19.7722 31.2028 20.4612 32.3764 20.4612H41.6401C42.8137 20.4612 43.5078 19.7722 43.4331 18.3573C43.2581 17.2445 42.7742 16.6168 42.3271 16.0368C42.2971 15.9979 42.2673 15.9593 42.2377 15.9207C41.4782 15.0366 40.572 14.6672 39.5136 14.6672L37.0082 13.6047L34.5028 14.6672Z" fill="url(#paint20_radial_43_125)"/>
<path d="M34.5028 14.6672C33.4444 14.6672 32.5382 15.0366 31.7787 15.9207C31.7492 15.9593 31.7194 15.9979 31.6894 16.0368C31.2423 16.6168 30.7584 17.2445 30.5834 18.3573C30.5086 19.7722 31.2028 20.4612 32.3764 20.4612H41.6401C42.8137 20.4612 43.5078 19.7722 43.4331 18.3573C43.2581 17.2445 42.7742 16.6168 42.3271 16.0368C42.2971 15.9979 42.2673 15.9593 42.2377 15.9207C41.4782 15.0366 40.572 14.6672 39.5136 14.6672L37.0082 13.6047L34.5028 14.6672Z" fill="url(#paint21_radial_43_125)"/>
<path d="M34.5028 14.6672C33.4444 14.6672 32.5382 15.0366 31.7787 15.9207C31.7492 15.9593 31.7194 15.9979 31.6894 16.0368C31.2423 16.6168 30.7584 17.2445 30.5834 18.3573C30.5086 19.7722 31.2028 20.4612 32.3764 20.4612H41.6401C42.8137 20.4612 43.5078 19.7722 43.4331 18.3573C43.2581 17.2445 42.7742 16.6168 42.3271 16.0368C42.2971 15.9979 42.2673 15.9593 42.2377 15.9207C41.4782 15.0366 40.572 14.6672 39.5136 14.6672L37.0082 13.6047L34.5028 14.6672Z" fill="url(#paint22_radial_43_125)" fill-opacity="0.9"/>
<path d="M34.5028 14.6672C33.4444 14.6672 32.5382 15.0366 31.7787 15.9207C31.7492 15.9593 31.7194 15.9979 31.6894 16.0368C31.2423 16.6168 30.7584 17.2445 30.5834 18.3573C30.5086 19.7722 31.2028 20.4612 32.3764 20.4612H41.6401C42.8137 20.4612 43.5078 19.7722 43.4331 18.3573C43.2581 17.2445 42.7742 16.6168 42.3271 16.0368C42.2971 15.9979 42.2673 15.9593 42.2377 15.9207C41.4782 15.0366 40.572 14.6672 39.5136 14.6672L37.0082 13.6047L34.5028 14.6672Z" fill="url(#paint23_radial_43_125)"/>
<path d="M34.5028 14.6672C33.4444 14.6672 32.5382 15.0366 31.7787 15.9207C31.7492 15.9593 31.7194 15.9979 31.6894 16.0368C31.2423 16.6168 30.7584 17.2445 30.5834 18.3573C30.5086 19.7722 31.2028 20.4612 32.3764 20.4612H41.6401C42.8137 20.4612 43.5078 19.7722 43.4331 18.3573C43.2581 17.2445 42.7742 16.6168 42.3271 16.0368C42.2971 15.9979 42.2673 15.9593 42.2377 15.9207C41.4782 15.0366 40.572 14.6672 39.5136 14.6672L37.0082 13.6047L34.5028 14.6672Z" fill="url(#paint24_radial_43_125)" fill-opacity="0.6"/>
<path d="M35.6277 7.61659C36.2329 6.5142 37.8167 6.5142 38.4219 7.61658L41.1695 12.6215C41.6748 13.542 41.0088 14.6674 39.9587 14.6674H34.091C33.0409 14.6674 32.3748 13.542 32.8802 12.6215L35.6277 7.61659Z" fill="url(#paint25_linear_43_125)"/>
<path d="M35.6277 7.61659C36.2329 6.5142 37.8167 6.5142 38.4219 7.61658L41.1695 12.6215C41.6748 13.542 41.0088 14.6674 39.9587 14.6674H34.091C33.0409 14.6674 32.3748 13.542 32.8802 12.6215L35.6277 7.61659Z" fill="url(#paint26_radial_43_125)"/>
<path d="M35.6277 7.61659C36.2329 6.5142 37.8167 6.5142 38.4219 7.61658L41.1695 12.6215C41.6748 13.542 41.0088 14.6674 39.9587 14.6674H34.091C33.0409 14.6674 32.3748 13.542 32.8802 12.6215L35.6277 7.61659Z" fill="url(#paint27_radial_43_125)"/>
<path d="M35.6277 7.61659C36.2329 6.5142 37.8167 6.5142 38.4219 7.61658L41.1695 12.6215C41.6748 13.542 41.0088 14.6674 39.9587 14.6674H34.091C33.0409 14.6674 32.3748 13.542 32.8802 12.6215L35.6277 7.61659Z" fill="url(#paint28_linear_43_125)"/>
<path d="M35.6277 7.61659C36.2329 6.5142 37.8167 6.5142 38.4219 7.61658L41.1695 12.6215C41.6748 13.542 41.0088 14.6674 39.9587 14.6674H34.091C33.0409 14.6674 32.3748 13.542 32.8802 12.6215L35.6277 7.61659Z" fill="url(#paint29_radial_43_125)"/>
<path d="M35.6277 7.61659C36.2329 6.5142 37.8167 6.5142 38.4219 7.61658L41.1695 12.6215C41.6748 13.542 41.0088 14.6674 39.9587 14.6674H34.091C33.0409 14.6674 32.3748 13.542 32.8802 12.6215L35.6277 7.61659Z" fill="url(#paint30_radial_43_125)"/>
<path d="M35.6277 7.61659C36.2329 6.5142 37.8167 6.5142 38.4219 7.61658L41.1695 12.6215C41.6748 13.542 41.0088 14.6674 39.9587 14.6674H34.091C33.0409 14.6674 32.3748 13.542 32.8802 12.6215L35.6277 7.61659Z" fill="url(#paint31_linear_43_125)"/>
<path d="M35.6277 7.61659C36.2329 6.5142 37.8167 6.5142 38.4219 7.61658L41.1695 12.6215C41.6748 13.542 41.0088 14.6674 39.9587 14.6674H34.091C33.0409 14.6674 32.3748 13.542 32.8802 12.6215L35.6277 7.61659Z" fill="url(#paint32_radial_43_125)"/>
<path d="M35.6277 7.61659C36.2329 6.5142 37.8167 6.5142 38.4219 7.61658L41.1695 12.6215C41.6748 13.542 41.0088 14.6674 39.9587 14.6674H34.091C33.0409 14.6674 32.3748 13.542 32.8802 12.6215L35.6277 7.61659Z" fill="url(#paint33_radial_43_125)"/>
<path d="M35.6277 7.61659C36.2329 6.5142 37.8167 6.5142 38.4219 7.61658L41.1695 12.6215C41.6748 13.542 41.0088 14.6674 39.9587 14.6674H34.091C33.0409 14.6674 32.3748 13.542 32.8802 12.6215L35.6277 7.61659Z" fill="url(#paint34_radial_43_125)" fill-opacity="0.4"/>
<path d="M35.6277 7.61659C36.2329 6.5142 37.8167 6.5142 38.4219 7.61658L41.1695 12.6215C41.6748 13.542 41.0088 14.6674 39.9587 14.6674H34.091C33.0409 14.6674 32.3748 13.542 32.8802 12.6215L35.6277 7.61659Z" fill="url(#paint35_radial_43_125)" fill-opacity="0.4"/>
<path d="M35.6277 7.61659C36.2329 6.5142 37.8167 6.5142 38.4219 7.61658L41.1695 12.6215C41.6748 13.542 41.0088 14.6674 39.9587 14.6674H34.091C33.0409 14.6674 32.3748 13.542 32.8802 12.6215L35.6277 7.61659Z" fill="url(#paint36_linear_43_125)" fill-opacity="0.4"/>
<path d="M20.3793 42.7695H13.6731C13.1038 42.7695 12.6711 42.1041 12.7964 41.4103L13.3429 38.3945H20.7095L21.256 41.4103C21.3699 42.1041 20.9486 42.7695 20.3793 42.7695Z" fill="#795556"/>
<path d="M20.3793 42.7695H13.6731C13.1038 42.7695 12.6711 42.1041 12.7964 41.4103L13.3429 38.3945H20.7095L21.256 41.4103C21.3699 42.1041 20.9486 42.7695 20.3793 42.7695Z" fill="url(#paint37_radial_43_125)"/>
<path d="M20.3793 42.7695H13.6731C13.1038 42.7695 12.6711 42.1041 12.7964 41.4103L13.3429 38.3945H20.7095L21.256 41.4103C21.3699 42.1041 20.9486 42.7695 20.3793 42.7695Z" fill="url(#paint38_radial_43_125)"/>
<path d="M20.3793 42.7695H13.6731C13.1038 42.7695 12.6711 42.1041 12.7964 41.4103L13.3429 38.3945H20.7095L21.256 41.4103C21.3699 42.1041 20.9486 42.7695 20.3793 42.7695Z" fill="url(#paint39_linear_43_125)"/>
<path d="M20.3793 42.7695H13.6731C13.1038 42.7695 12.6711 42.1041 12.7964 41.4103L13.3429 38.3945H20.7095L21.256 41.4103C21.3699 42.1041 20.9486 42.7695 20.3793 42.7695Z" fill="url(#paint40_linear_43_125)"/>
<path d="M20.3793 42.7695H13.6731C13.1038 42.7695 12.6711 42.1041 12.7964 41.4103L13.3429 38.3945H20.7095L21.256 41.4103C21.3699 42.1041 20.9486 42.7695 20.3793 42.7695Z" fill="url(#paint41_linear_43_125)"/>
<path d="M20.3793 42.7695H13.6731C13.1038 42.7695 12.6711 42.1041 12.7964 41.4103L13.3429 38.3945H20.7095L21.256 41.4103C21.3699 42.1041 20.9486 42.7695 20.3793 42.7695Z" fill="url(#paint42_linear_43_125)"/>
<path d="M13.1513 31.063L17.0247 29.9692L20.8982 31.063C23.1175 31.063 24.0177 31.3943 25.1844 32.6694C25.9066 33.5552 26.6121 34.5072 26.5291 36.2583C26.4296 38.3604 25.2509 39.4199 22.8104 39.4199H11.239C8.7986 39.4199 7.61992 38.3604 7.52034 36.2583C7.43737 34.5072 8.14283 33.5552 8.86505 32.6694C10.0318 31.3943 10.9319 31.063 13.1513 31.063Z" fill="url(#paint43_radial_43_125)"/>
<path d="M13.1513 31.063L17.0247 29.9692L20.8982 31.063C23.1175 31.063 24.0177 31.3943 25.1844 32.6694C25.9066 33.5552 26.6121 34.5072 26.5291 36.2583C26.4296 38.3604 25.2509 39.4199 22.8104 39.4199H11.239C8.7986 39.4199 7.61992 38.3604 7.52034 36.2583C7.43737 34.5072 8.14283 33.5552 8.86505 32.6694C10.0318 31.3943 10.9319 31.063 13.1513 31.063Z" fill="url(#paint44_radial_43_125)"/>
<path d="M13.1513 31.063L17.0247 29.9692L20.8982 31.063C23.1175 31.063 24.0177 31.3943 25.1844 32.6694C25.9066 33.5552 26.6121 34.5072 26.5291 36.2583C26.4296 38.3604 25.2509 39.4199 22.8104 39.4199H11.239C8.7986 39.4199 7.61992 38.3604 7.52034 36.2583C7.43737 34.5072 8.14283 33.5552 8.86505 32.6694C10.0318 31.3943 10.9319 31.063 13.1513 31.063Z" fill="url(#paint45_radial_43_125)"/>
<path d="M13.1513 31.063L17.0247 29.9692L20.8982 31.063C23.1175 31.063 24.0177 31.3943 25.1844 32.6694C25.9066 33.5552 26.6121 34.5072 26.5291 36.2583C26.4296 38.3604 25.2509 39.4199 22.8104 39.4199H11.239C8.7986 39.4199 7.61992 38.3604 7.52034 36.2583C7.43737 34.5072 8.14283 33.5552 8.86505 32.6694C10.0318 31.3943 10.9319 31.063 13.1513 31.063Z" fill="url(#paint46_linear_43_125)"/>
<path d="M13.1513 31.063L17.0247 29.9692L20.8982 31.063C23.1175 31.063 24.0177 31.3943 25.1844 32.6694C25.9066 33.5552 26.6121 34.5072 26.5291 36.2583C26.4296 38.3604 25.2509 39.4199 22.8104 39.4199H11.239C8.7986 39.4199 7.61992 38.3604 7.52034 36.2583C7.43737 34.5072 8.14283 33.5552 8.86505 32.6694C10.0318 31.3943 10.9319 31.063 13.1513 31.063Z" fill="url(#paint47_radial_43_125)"/>
<path d="M13.1513 31.063L17.0247 29.9692L20.8982 31.063C23.1175 31.063 24.0177 31.3943 25.1844 32.6694C25.9066 33.5552 26.6121 34.5072 26.5291 36.2583C26.4296 38.3604 25.2509 39.4199 22.8104 39.4199H11.239C8.7986 39.4199 7.61992 38.3604 7.52034 36.2583C7.43737 34.5072 8.14283 33.5552 8.86505 32.6694C10.0318 31.3943 10.9319 31.063 13.1513 31.063Z" fill="url(#paint48_radial_43_125)"/>
<path d="M13.1513 31.063L17.0247 29.9692L20.8982 31.063C23.1175 31.063 24.0177 31.3943 25.1844 32.6694C25.9066 33.5552 26.6121 34.5072 26.5291 36.2583C26.4296 38.3604 25.2509 39.4199 22.8104 39.4199H11.239C8.7986 39.4199 7.61992 38.3604 7.52034 36.2583C7.43737 34.5072 8.14283 33.5552 8.86505 32.6694C10.0318 31.3943 10.9319 31.063 13.1513 31.063Z" fill="url(#paint49_radial_43_125)"/>
<path d="M13.1513 31.063L17.0247 29.9692L20.8982 31.063C23.1175 31.063 24.0177 31.3943 25.1844 32.6694C25.9066 33.5552 26.6121 34.5072 26.5291 36.2583C26.4296 38.3604 25.2509 39.4199 22.8104 39.4199H11.239C8.7986 39.4199 7.61992 38.3604 7.52034 36.2583C7.43737 34.5072 8.14283 33.5552 8.86505 32.6694C10.0318 31.3943 10.9319 31.063 13.1513 31.063Z" fill="url(#paint50_radial_43_125)"/>
<path d="M13.1513 31.063L17.0247 29.9692L20.8982 31.063C23.1175 31.063 24.0177 31.3943 25.1844 32.6694C25.9066 33.5552 26.6121 34.5072 26.5291 36.2583C26.4296 38.3604 25.2509 39.4199 22.8104 39.4199H11.239C8.7986 39.4199 7.61992 38.3604 7.52034 36.2583C7.43737 34.5072 8.14283 33.5552 8.86505 32.6694C10.0318 31.3943 10.9319 31.063 13.1513 31.063Z" fill="url(#paint51_radial_43_125)" fill-opacity="0.6"/>
<path d="M14.5028 25.0986C13.4444 25.0986 12.5382 25.4789 11.7787 26.3889C11.7492 26.4286 11.7194 26.4685 11.6894 26.5085C11.2423 27.1055 10.7584 27.7517 10.5834 28.8972C10.5086 30.3538 11.2028 31.063 12.3764 31.063H21.6401C22.8137 31.063 23.5078 30.3538 23.4331 28.8972C23.2581 27.7517 22.7742 27.1055 22.3271 26.5085C22.2971 26.4685 22.2673 26.4286 22.2377 26.3889C21.4782 25.4789 20.572 25.0986 19.5136 25.0986L17.0082 24.0049L14.5028 25.0986Z" fill="url(#paint52_radial_43_125)"/>
<path d="M14.5028 25.0986C13.4444 25.0986 12.5382 25.4789 11.7787 26.3889C11.7492 26.4286 11.7194 26.4685 11.6894 26.5085C11.2423 27.1055 10.7584 27.7517 10.5834 28.8972C10.5086 30.3538 11.2028 31.063 12.3764 31.063H21.6401C22.8137 31.063 23.5078 30.3538 23.4331 28.8972C23.2581 27.7517 22.7742 27.1055 22.3271 26.5085C22.2971 26.4685 22.2673 26.4286 22.2377 26.3889C21.4782 25.4789 20.572 25.0986 19.5136 25.0986L17.0082 24.0049L14.5028 25.0986Z" fill="url(#paint53_linear_43_125)"/>
<path d="M14.5028 25.0986C13.4444 25.0986 12.5382 25.4789 11.7787 26.3889C11.7492 26.4286 11.7194 26.4685 11.6894 26.5085C11.2423 27.1055 10.7584 27.7517 10.5834 28.8972C10.5086 30.3538 11.2028 31.063 12.3764 31.063H21.6401C22.8137 31.063 23.5078 30.3538 23.4331 28.8972C23.2581 27.7517 22.7742 27.1055 22.3271 26.5085C22.2971 26.4685 22.2673 26.4286 22.2377 26.3889C21.4782 25.4789 20.572 25.0986 19.5136 25.0986L17.0082 24.0049L14.5028 25.0986Z" fill="url(#paint54_radial_43_125)"/>
<path d="M14.5028 25.0986C13.4444 25.0986 12.5382 25.4789 11.7787 26.3889C11.7492 26.4286 11.7194 26.4685 11.6894 26.5085C11.2423 27.1055 10.7584 27.7517 10.5834 28.8972C10.5086 30.3538 11.2028 31.063 12.3764 31.063H21.6401C22.8137 31.063 23.5078 30.3538 23.4331 28.8972C23.2581 27.7517 22.7742 27.1055 22.3271 26.5085C22.2971 26.4685 22.2673 26.4286 22.2377 26.3889C21.4782 25.4789 20.572 25.0986 19.5136 25.0986L17.0082 24.0049L14.5028 25.0986Z" fill="url(#paint55_radial_43_125)"/>
<path d="M14.5028 25.0986C13.4444 25.0986 12.5382 25.4789 11.7787 26.3889C11.7492 26.4286 11.7194 26.4685 11.6894 26.5085C11.2423 27.1055 10.7584 27.7517 10.5834 28.8972C10.5086 30.3538 11.2028 31.063 12.3764 31.063H21.6401C22.8137 31.063 23.5078 30.3538 23.4331 28.8972C23.2581 27.7517 22.7742 27.1055 22.3271 26.5085C22.2971 26.4685 22.2673 26.4286 22.2377 26.3889C21.4782 25.4789 20.572 25.0986 19.5136 25.0986L17.0082 24.0049L14.5028 25.0986Z" fill="url(#paint56_radial_43_125)"/>
<path d="M14.5028 25.0986C13.4444 25.0986 12.5382 25.4789 11.7787 26.3889C11.7492 26.4286 11.7194 26.4685 11.6894 26.5085C11.2423 27.1055 10.7584 27.7517 10.5834 28.8972C10.5086 30.3538 11.2028 31.063 12.3764 31.063H21.6401C22.8137 31.063 23.5078 30.3538 23.4331 28.8972C23.2581 27.7517 22.7742 27.1055 22.3271 26.5085C22.2971 26.4685 22.2673 26.4286 22.2377 26.3889C21.4782 25.4789 20.572 25.0986 19.5136 25.0986L17.0082 24.0049L14.5028 25.0986Z" fill="url(#paint57_radial_43_125)"/>
<path d="M14.5028 25.0986C13.4444 25.0986 12.5382 25.4789 11.7787 26.3889C11.7492 26.4286 11.7194 26.4685 11.6894 26.5085C11.2423 27.1055 10.7584 27.7517 10.5834 28.8972C10.5086 30.3538 11.2028 31.063 12.3764 31.063H21.6401C22.8137 31.063 23.5078 30.3538 23.4331 28.8972C23.2581 27.7517 22.7742 27.1055 22.3271 26.5085C22.2971 26.4685 22.2673 26.4286 22.2377 26.3889C21.4782 25.4789 20.572 25.0986 19.5136 25.0986L17.0082 24.0049L14.5028 25.0986Z" fill="url(#paint58_radial_43_125)"/>
<path d="M14.5028 25.0986C13.4444 25.0986 12.5382 25.4789 11.7787 26.3889C11.7492 26.4286 11.7194 26.4685 11.6894 26.5085C11.2423 27.1055 10.7584 27.7517 10.5834 28.8972C10.5086 30.3538 11.2028 31.063 12.3764 31.063H21.6401C22.8137 31.063 23.5078 30.3538 23.4331 28.8972C23.2581 27.7517 22.7742 27.1055 22.3271 26.5085C22.2971 26.4685 22.2673 26.4286 22.2377 26.3889C21.4782 25.4789 20.572 25.0986 19.5136 25.0986L17.0082 24.0049L14.5028 25.0986Z" fill="url(#paint59_radial_43_125)" fill-opacity="0.9"/>
<path d="M14.5028 25.0986C13.4444 25.0986 12.5382 25.4789 11.7787 26.3889C11.7492 26.4286 11.7194 26.4685 11.6894 26.5085C11.2423 27.1055 10.7584 27.7517 10.5834 28.8972C10.5086 30.3538 11.2028 31.063 12.3764 31.063H21.6401C22.8137 31.063 23.5078 30.3538 23.4331 28.8972C23.2581 27.7517 22.7742 27.1055 22.3271 26.5085C22.2971 26.4685 22.2673 26.4286 22.2377 26.3889C21.4782 25.4789 20.572 25.0986 19.5136 25.0986L17.0082 24.0049L14.5028 25.0986Z" fill="url(#paint60_radial_43_125)"/>
<path d="M14.5028 25.0986C13.4444 25.0986 12.5382 25.4789 11.7787 26.3889C11.7492 26.4286 11.7194 26.4685 11.6894 26.5085C11.2423 27.1055 10.7584 27.7517 10.5834 28.8972C10.5086 30.3538 11.2028 31.063 12.3764 31.063H21.6401C22.8137 31.063 23.5078 30.3538 23.4331 28.8972C23.2581 27.7517 22.7742 27.1055 22.3271 26.5085C22.2971 26.4685 22.2673 26.4286 22.2377 26.3889C21.4782 25.4789 20.572 25.0986 19.5136 25.0986L17.0082 24.0049L14.5028 25.0986Z" fill="url(#paint61_radial_43_125)" fill-opacity="0.6"/>
<path d="M15.6277 17.8406C16.2329 16.7058 17.8167 16.7058 18.4219 17.8406L21.1695 22.9927C21.6748 23.9403 21.0088 25.0988 19.9587 25.0988H14.091C13.0409 25.0988 12.3748 23.9403 12.8802 22.9927L15.6277 17.8406Z" fill="url(#paint62_linear_43_125)"/>
<path d="M15.6277 17.8406C16.2329 16.7058 17.8167 16.7058 18.4219 17.8406L21.1695 22.9927C21.6748 23.9403 21.0088 25.0988 19.9587 25.0988H14.091C13.0409 25.0988 12.3748 23.9403 12.8802 22.9927L15.6277 17.8406Z" fill="url(#paint63_radial_43_125)"/>
<path d="M15.6277 17.8406C16.2329 16.7058 17.8167 16.7058 18.4219 17.8406L21.1695 22.9927C21.6748 23.9403 21.0088 25.0988 19.9587 25.0988H14.091C13.0409 25.0988 12.3748 23.9403 12.8802 22.9927L15.6277 17.8406Z" fill="url(#paint64_radial_43_125)"/>
<path d="M15.6277 17.8406C16.2329 16.7058 17.8167 16.7058 18.4219 17.8406L21.1695 22.9927C21.6748 23.9403 21.0088 25.0988 19.9587 25.0988H14.091C13.0409 25.0988 12.3748 23.9403 12.8802 22.9927L15.6277 17.8406Z" fill="url(#paint65_linear_43_125)"/>
<path d="M15.6277 17.8406C16.2329 16.7058 17.8167 16.7058 18.4219 17.8406L21.1695 22.9927C21.6748 23.9403 21.0088 25.0988 19.9587 25.0988H14.091C13.0409 25.0988 12.3748 23.9403 12.8802 22.9927L15.6277 17.8406Z" fill="url(#paint66_radial_43_125)"/>
<path d="M15.6277 17.8406C16.2329 16.7058 17.8167 16.7058 18.4219 17.8406L21.1695 22.9927C21.6748 23.9403 21.0088 25.0988 19.9587 25.0988H14.091C13.0409 25.0988 12.3748 23.9403 12.8802 22.9927L15.6277 17.8406Z" fill="url(#paint67_radial_43_125)"/>
<path d="M15.6277 17.8406C16.2329 16.7058 17.8167 16.7058 18.4219 17.8406L21.1695 22.9927C21.6748 23.9403 21.0088 25.0988 19.9587 25.0988H14.091C13.0409 25.0988 12.3748 23.9403 12.8802 22.9927L15.6277 17.8406Z" fill="url(#paint68_linear_43_125)"/>
<path d="M15.6277 17.8406C16.2329 16.7058 17.8167 16.7058 18.4219 17.8406L21.1695 22.9927C21.6748 23.9403 21.0088 25.0988 19.9587 25.0988H14.091C13.0409 25.0988 12.3748 23.9403 12.8802 22.9927L15.6277 17.8406Z" fill="url(#paint69_radial_43_125)"/>
<path d="M15.6277 17.8406C16.2329 16.7058 17.8167 16.7058 18.4219 17.8406L21.1695 22.9927C21.6748 23.9403 21.0088 25.0988 19.9587 25.0988H14.091C13.0409 25.0988 12.3748 23.9403 12.8802 22.9927L15.6277 17.8406Z" fill="url(#paint70_radial_43_125)"/>
<path d="M15.6277 17.8406C16.2329 16.7058 17.8167 16.7058 18.4219 17.8406L21.1695 22.9927C21.6748 23.9403 21.0088 25.0988 19.9587 25.0988H14.091C13.0409 25.0988 12.3748 23.9403 12.8802 22.9927L15.6277 17.8406Z" fill="url(#paint71_radial_43_125)" fill-opacity="0.4"/>
<path d="M15.6277 17.8406C16.2329 16.7058 17.8167 16.7058 18.4219 17.8406L21.1695 22.9927C21.6748 23.9403 21.0088 25.0988 19.9587 25.0988H14.091C13.0409 25.0988 12.3748 23.9403 12.8802 22.9927L15.6277 17.8406Z" fill="url(#paint72_radial_43_125)" fill-opacity="0.4"/>
<path d="M15.6277 17.8406C16.2329 16.7058 17.8167 16.7058 18.4219 17.8406L21.1695 22.9927C21.6748 23.9403 21.0088 25.0988 19.9587 25.0988H14.091C13.0409 25.0988 12.3748 23.9403 12.8802 22.9927L15.6277 17.8406Z" fill="url(#paint73_linear_43_125)" fill-opacity="0.4"/>
<path d="M33.9787 57.8333H27.0752C26.4892 57.8333 26.0438 57.1868 26.1728 56.5129L26.7353 53.5833H34.3186L34.8812 56.5129C34.9984 57.1868 34.5647 57.8333 33.9787 57.8333Z" fill="#795556"/>
<path d="M33.9787 57.8333H27.0752C26.4892 57.8333 26.0438 57.1868 26.1728 56.5129L26.7353 53.5833H34.3186L34.8812 56.5129C34.9984 57.1868 34.5647 57.8333 33.9787 57.8333Z" fill="url(#paint74_radial_43_125)"/>
<path d="M33.9787 57.8333H27.0752C26.4892 57.8333 26.0438 57.1868 26.1728 56.5129L26.7353 53.5833H34.3186L34.8812 56.5129C34.9984 57.1868 34.5647 57.8333 33.9787 57.8333Z" fill="url(#paint75_radial_43_125)"/>
<path d="M33.9787 57.8333H27.0752C26.4892 57.8333 26.0438 57.1868 26.1728 56.5129L26.7353 53.5833H34.3186L34.8812 56.5129C34.9984 57.1868 34.5647 57.8333 33.9787 57.8333Z" fill="url(#paint76_linear_43_125)"/>
<path d="M33.9787 57.8333H27.0752C26.4892 57.8333 26.0438 57.1868 26.1728 56.5129L26.7353 53.5833H34.3186L34.8812 56.5129C34.9984 57.1868 34.5647 57.8333 33.9787 57.8333Z" fill="url(#paint77_linear_43_125)"/>
<path d="M33.9787 57.8333H27.0752C26.4892 57.8333 26.0438 57.1868 26.1728 56.5129L26.7353 53.5833H34.3186L34.8812 56.5129C34.9984 57.1868 34.5647 57.8333 33.9787 57.8333Z" fill="url(#paint78_linear_43_125)"/>
<path d="M33.9787 57.8333H27.0752C26.4892 57.8333 26.0438 57.1868 26.1728 56.5129L26.7353 53.5833H34.3186L34.8812 56.5129C34.9984 57.1868 34.5647 57.8333 33.9787 57.8333Z" fill="url(#paint79_linear_43_125)"/>
<path d="M26.5383 46.4612L30.5257 45.3987L34.513 46.4612C36.7977 46.4612 37.7243 46.7831 38.9253 48.0217C39.6688 48.8822 40.395 49.8069 40.3096 51.5081C40.2071 53.55 38.9938 54.5793 36.4815 54.5793H24.5698C22.0576 54.5793 20.8442 53.55 20.7417 51.5081C20.6563 49.8069 21.3825 48.8822 22.126 48.0217C23.327 46.7831 24.2537 46.4612 26.5383 46.4612Z" fill="url(#paint80_radial_43_125)"/>
<path d="M26.5383 46.4612L30.5257 45.3987L34.513 46.4612C36.7977 46.4612 37.7243 46.7831 38.9253 48.0217C39.6688 48.8822 40.395 49.8069 40.3096 51.5081C40.2071 53.55 38.9938 54.5793 36.4815 54.5793H24.5698C22.0576 54.5793 20.8442 53.55 20.7417 51.5081C20.6563 49.8069 21.3825 48.8822 22.126 48.0217C23.327 46.7831 24.2537 46.4612 26.5383 46.4612Z" fill="url(#paint81_radial_43_125)"/>
<path d="M26.5383 46.4612L30.5257 45.3987L34.513 46.4612C36.7977 46.4612 37.7243 46.7831 38.9253 48.0217C39.6688 48.8822 40.395 49.8069 40.3096 51.5081C40.2071 53.55 38.9938 54.5793 36.4815 54.5793H24.5698C22.0576 54.5793 20.8442 53.55 20.7417 51.5081C20.6563 49.8069 21.3825 48.8822 22.126 48.0217C23.327 46.7831 24.2537 46.4612 26.5383 46.4612Z" fill="url(#paint82_radial_43_125)"/>
<path d="M26.5383 46.4612L30.5257 45.3987L34.513 46.4612C36.7977 46.4612 37.7243 46.7831 38.9253 48.0217C39.6688 48.8822 40.395 49.8069 40.3096 51.5081C40.2071 53.55 38.9938 54.5793 36.4815 54.5793H24.5698C22.0576 54.5793 20.8442 53.55 20.7417 51.5081C20.6563 49.8069 21.3825 48.8822 22.126 48.0217C23.327 46.7831 24.2537 46.4612 26.5383 46.4612Z" fill="url(#paint83_linear_43_125)"/>
<path d="M26.5383 46.4612L30.5257 45.3987L34.513 46.4612C36.7977 46.4612 37.7243 46.7831 38.9253 48.0217C39.6688 48.8822 40.395 49.8069 40.3096 51.5081C40.2071 53.55 38.9938 54.5793 36.4815 54.5793H24.5698C22.0576 54.5793 20.8442 53.55 20.7417 51.5081C20.6563 49.8069 21.3825 48.8822 22.126 48.0217C23.327 46.7831 24.2537 46.4612 26.5383 46.4612Z" fill="url(#paint84_radial_43_125)"/>
<path d="M26.5383 46.4612L30.5257 45.3987L34.513 46.4612C36.7977 46.4612 37.7243 46.7831 38.9253 48.0217C39.6688 48.8822 40.395 49.8069 40.3096 51.5081C40.2071 53.55 38.9938 54.5793 36.4815 54.5793H24.5698C22.0576 54.5793 20.8442 53.55 20.7417 51.5081C20.6563 49.8069 21.3825 48.8822 22.126 48.0217C23.327 46.7831 24.2537 46.4612 26.5383 46.4612Z" fill="url(#paint85_radial_43_125)"/>
<path d="M26.5383 46.4612L30.5257 45.3987L34.513 46.4612C36.7977 46.4612 37.7243 46.7831 38.9253 48.0217C39.6688 48.8822 40.395 49.8069 40.3096 51.5081C40.2071 53.55 38.9938 54.5793 36.4815 54.5793H24.5698C22.0576 54.5793 20.8442 53.55 20.7417 51.5081C20.6563 49.8069 21.3825 48.8822 22.126 48.0217C23.327 46.7831 24.2537 46.4612 26.5383 46.4612Z" fill="url(#paint86_radial_43_125)"/>
<path d="M26.5383 46.4612L30.5257 45.3987L34.513 46.4612C36.7977 46.4612 37.7243 46.7831 38.9253 48.0217C39.6688 48.8822 40.395 49.8069 40.3096 51.5081C40.2071 53.55 38.9938 54.5793 36.4815 54.5793H24.5698C22.0576 54.5793 20.8442 53.55 20.7417 51.5081C20.6563 49.8069 21.3825 48.8822 22.126 48.0217C23.327 46.7831 24.2537 46.4612 26.5383 46.4612Z" fill="url(#paint87_radial_43_125)"/>
<path d="M26.5383 46.4612L30.5257 45.3987L34.513 46.4612C36.7977 46.4612 37.7243 46.7831 38.9253 48.0217C39.6688 48.8822 40.395 49.8069 40.3096 51.5081C40.2071 53.55 38.9938 54.5793 36.4815 54.5793H24.5698C22.0576 54.5793 20.8442 53.55 20.7417 51.5081C20.6563 49.8069 21.3825 48.8822 22.126 48.0217C23.327 46.7831 24.2537 46.4612 26.5383 46.4612Z" fill="url(#paint88_radial_43_125)" fill-opacity="0.6"/>
<path d="M27.9293 40.6672C26.8398 40.6672 25.9069 41.0366 25.1251 41.9207C25.0947 41.9593 25.064 41.9979 25.0331 42.0368C24.5729 42.6168 24.0747 43.2445 23.8946 44.3573C23.8176 45.7722 24.5322 46.4612 25.7403 46.4612H35.2765C36.4846 46.4612 37.1992 45.7722 37.1222 44.3573C36.9421 43.2445 36.4439 42.6168 35.9837 42.0368C35.9528 41.9979 35.9221 41.9593 35.8917 41.9207C35.1098 41.0366 34.177 40.6672 33.0875 40.6672L30.5084 39.6047L27.9293 40.6672Z" fill="url(#paint89_radial_43_125)"/>
<path d="M27.9293 40.6672C26.8398 40.6672 25.9069 41.0366 25.1251 41.9207C25.0947 41.9593 25.064 41.9979 25.0331 42.0368C24.5729 42.6168 24.0747 43.2445 23.8946 44.3573C23.8176 45.7722 24.5322 46.4612 25.7403 46.4612H35.2765C36.4846 46.4612 37.1992 45.7722 37.1222 44.3573C36.9421 43.2445 36.4439 42.6168 35.9837 42.0368C35.9528 41.9979 35.9221 41.9593 35.8917 41.9207C35.1098 41.0366 34.177 40.6672 33.0875 40.6672L30.5084 39.6047L27.9293 40.6672Z" fill="url(#paint90_linear_43_125)"/>
<path d="M27.9293 40.6672C26.8398 40.6672 25.9069 41.0366 25.1251 41.9207C25.0947 41.9593 25.064 41.9979 25.0331 42.0368C24.5729 42.6168 24.0747 43.2445 23.8946 44.3573C23.8176 45.7722 24.5322 46.4612 25.7403 46.4612H35.2765C36.4846 46.4612 37.1992 45.7722 37.1222 44.3573C36.9421 43.2445 36.4439 42.6168 35.9837 42.0368C35.9528 41.9979 35.9221 41.9593 35.8917 41.9207C35.1098 41.0366 34.177 40.6672 33.0875 40.6672L30.5084 39.6047L27.9293 40.6672Z" fill="url(#paint91_radial_43_125)"/>
<path d="M27.9293 40.6672C26.8398 40.6672 25.9069 41.0366 25.1251 41.9207C25.0947 41.9593 25.064 41.9979 25.0331 42.0368C24.5729 42.6168 24.0747 43.2445 23.8946 44.3573C23.8176 45.7722 24.5322 46.4612 25.7403 46.4612H35.2765C36.4846 46.4612 37.1992 45.7722 37.1222 44.3573C36.9421 43.2445 36.4439 42.6168 35.9837 42.0368C35.9528 41.9979 35.9221 41.9593 35.8917 41.9207C35.1098 41.0366 34.177 40.6672 33.0875 40.6672L30.5084 39.6047L27.9293 40.6672Z" fill="url(#paint92_radial_43_125)"/>
<path d="M27.9293 40.6672C26.8398 40.6672 25.9069 41.0366 25.1251 41.9207C25.0947 41.9593 25.064 41.9979 25.0331 42.0368C24.5729 42.6168 24.0747 43.2445 23.8946 44.3573C23.8176 45.7722 24.5322 46.4612 25.7403 46.4612H35.2765C36.4846 46.4612 37.1992 45.7722 37.1222 44.3573C36.9421 43.2445 36.4439 42.6168 35.9837 42.0368C35.9528 41.9979 35.9221 41.9593 35.8917 41.9207C35.1098 41.0366 34.177 40.6672 33.0875 40.6672L30.5084 39.6047L27.9293 40.6672Z" fill="url(#paint93_radial_43_125)"/>
<path d="M27.9293 40.6672C26.8398 40.6672 25.9069 41.0366 25.1251 41.9207C25.0947 41.9593 25.064 41.9979 25.0331 42.0368C24.5729 42.6168 24.0747 43.2445 23.8946 44.3573C23.8176 45.7722 24.5322 46.4612 25.7403 46.4612H35.2765C36.4846 46.4612 37.1992 45.7722 37.1222 44.3573C36.9421 43.2445 36.4439 42.6168 35.9837 42.0368C35.9528 41.9979 35.9221 41.9593 35.8917 41.9207C35.1098 41.0366 34.177 40.6672 33.0875 40.6672L30.5084 39.6047L27.9293 40.6672Z" fill="url(#paint94_radial_43_125)"/>
<path d="M27.9293 40.6672C26.8398 40.6672 25.9069 41.0366 25.1251 41.9207C25.0947 41.9593 25.064 41.9979 25.0331 42.0368C24.5729 42.6168 24.0747 43.2445 23.8946 44.3573C23.8176 45.7722 24.5322 46.4612 25.7403 46.4612H35.2765C36.4846 46.4612 37.1992 45.7722 37.1222 44.3573C36.9421 43.2445 36.4439 42.6168 35.9837 42.0368C35.9528 41.9979 35.9221 41.9593 35.8917 41.9207C35.1098 41.0366 34.177 40.6672 33.0875 40.6672L30.5084 39.6047L27.9293 40.6672Z" fill="url(#paint95_radial_43_125)"/>
<path d="M27.9293 40.6672C26.8398 40.6672 25.9069 41.0366 25.1251 41.9207C25.0947 41.9593 25.064 41.9979 25.0331 42.0368C24.5729 42.6168 24.0747 43.2445 23.8946 44.3573C23.8176 45.7722 24.5322 46.4612 25.7403 46.4612H35.2765C36.4846 46.4612 37.1992 45.7722 37.1222 44.3573C36.9421 43.2445 36.4439 42.6168 35.9837 42.0368C35.9528 41.9979 35.9221 41.9593 35.8917 41.9207C35.1098 41.0366 34.177 40.6672 33.0875 40.6672L30.5084 39.6047L27.9293 40.6672Z" fill="url(#paint96_radial_43_125)" fill-opacity="0.9"/>
<path d="M27.9293 40.6672C26.8398 40.6672 25.9069 41.0366 25.1251 41.9207C25.0947 41.9593 25.064 41.9979 25.0331 42.0368C24.5729 42.6168 24.0747 43.2445 23.8946 44.3573C23.8176 45.7722 24.5322 46.4612 25.7403 46.4612H35.2765C36.4846 46.4612 37.1992 45.7722 37.1222 44.3573C36.9421 43.2445 36.4439 42.6168 35.9837 42.0368C35.9528 41.9979 35.9221 41.9593 35.8917 41.9207C35.1098 41.0366 34.177 40.6672 33.0875 40.6672L30.5084 39.6047L27.9293 40.6672Z" fill="url(#paint97_radial_43_125)"/>
<path d="M27.9293 40.6672C26.8398 40.6672 25.9069 41.0366 25.1251 41.9207C25.0947 41.9593 25.064 41.9979 25.0331 42.0368C24.5729 42.6168 24.0747 43.2445 23.8946 44.3573C23.8176 45.7722 24.5322 46.4612 25.7403 46.4612H35.2765C36.4846 46.4612 37.1992 45.7722 37.1222 44.3573C36.9421 43.2445 36.4439 42.6168 35.9837 42.0368C35.9528 41.9979 35.9221 41.9593 35.8917 41.9207C35.1098 41.0366 34.177 40.6672 33.0875 40.6672L30.5084 39.6047L27.9293 40.6672Z" fill="url(#paint98_radial_43_125)" fill-opacity="0.6"/>
<path d="M29.0874 33.6166C29.7104 32.5142 31.3407 32.5142 31.9637 33.6166L34.7921 38.6215C35.3123 39.542 34.6267 40.6674 33.5457 40.6674H27.5054C26.4245 40.6674 25.7388 39.542 26.259 38.6215L29.0874 33.6166Z" fill="url(#paint99_linear_43_125)"/>
<path d="M29.0874 33.6166C29.7104 32.5142 31.3407 32.5142 31.9637 33.6166L34.7921 38.6215C35.3123 39.542 34.6267 40.6674 33.5457 40.6674H27.5054C26.4245 40.6674 25.7388 39.542 26.259 38.6215L29.0874 33.6166Z" fill="url(#paint100_radial_43_125)"/>
<path d="M29.0874 33.6166C29.7104 32.5142 31.3407 32.5142 31.9637 33.6166L34.7921 38.6215C35.3123 39.542 34.6267 40.6674 33.5457 40.6674H27.5054C26.4245 40.6674 25.7388 39.542 26.259 38.6215L29.0874 33.6166Z" fill="url(#paint101_radial_43_125)"/>
<path d="M29.0874 33.6166C29.7104 32.5142 31.3407 32.5142 31.9637 33.6166L34.7921 38.6215C35.3123 39.542 34.6267 40.6674 33.5457 40.6674H27.5054C26.4245 40.6674 25.7388 39.542 26.259 38.6215L29.0874 33.6166Z" fill="url(#paint102_linear_43_125)"/>
<path d="M29.0874 33.6166C29.7104 32.5142 31.3407 32.5142 31.9637 33.6166L34.7921 38.6215C35.3123 39.542 34.6267 40.6674 33.5457 40.6674H27.5054C26.4245 40.6674 25.7388 39.542 26.259 38.6215L29.0874 33.6166Z" fill="url(#paint103_radial_43_125)"/>
<path d="M29.0874 33.6166C29.7104 32.5142 31.3407 32.5142 31.9637 33.6166L34.7921 38.6215C35.3123 39.542 34.6267 40.6674 33.5457 40.6674H27.5054C26.4245 40.6674 25.7388 39.542 26.259 38.6215L29.0874 33.6166Z" fill="url(#paint104_radial_43_125)"/>
<path d="M29.0874 33.6166C29.7104 32.5142 31.3407 32.5142 31.9637 33.6166L34.7921 38.6215C35.3123 39.542 34.6267 40.6674 33.5457 40.6674H27.5054C26.4245 40.6674 25.7388 39.542 26.259 38.6215L29.0874 33.6166Z" fill="url(#paint105_linear_43_125)"/>
<path d="M29.0874 33.6166C29.7104 32.5142 31.3407 32.5142 31.9637 33.6166L34.7921 38.6215C35.3123 39.542 34.6267 40.6674 33.5457 40.6674H27.5054C26.4245 40.6674 25.7388 39.542 26.259 38.6215L29.0874 33.6166Z" fill="url(#paint106_radial_43_125)"/>
<path d="M29.0874 33.6166C29.7104 32.5142 31.3407 32.5142 31.9637 33.6166L34.7921 38.6215C35.3123 39.542 34.6267 40.6674 33.5457 40.6674H27.5054C26.4245 40.6674 25.7388 39.542 26.259 38.6215L29.0874 33.6166Z" fill="url(#paint107_radial_43_125)"/>
<path d="M29.0874 33.6166C29.7104 32.5142 31.3407 32.5142 31.9637 33.6166L34.7921 38.6215C35.3123 39.542 34.6267 40.6674 33.5457 40.6674H27.5054C26.4245 40.6674 25.7388 39.542 26.259 38.6215L29.0874 33.6166Z" fill="url(#paint108_radial_43_125)" fill-opacity="0.4"/>
<path d="M29.0874 33.6166C29.7104 32.5142 31.3407 32.5142 31.9637 33.6166L34.7921 38.6215C35.3123 39.542 34.6267 40.6674 33.5457 40.6674H27.5054C26.4245 40.6674 25.7388 39.542 26.259 38.6215L29.0874 33.6166Z" fill="url(#paint109_radial_43_125)" fill-opacity="0.4"/>
<path d="M29.0874 33.6166C29.7104 32.5142 31.3407 32.5142 31.9637 33.6166L34.7921 38.6215C35.3123 39.542 34.6267 40.6674 33.5457 40.6674H27.5054C26.4245 40.6674 25.7388 39.542 26.259 38.6215L29.0874 33.6166Z" fill="url(#paint110_linear_43_125)" fill-opacity="0.4"/>
<defs>
<radialGradient id="paint0_radial_43_125" cx="0" cy="0" r="1" gradientUnits="userSpaceOnUse" gradientTransform="translate(38.3291 27.5833) rotate(70.3276) scale(3.22987 2.07706)">
<stop offset="0.34016" stop-color="#5F2F2E"/>
<stop offset="1" stop-color="#5F2F2E" stop-opacity="0"/>
</radialGradient>
<radialGradient id="paint1_radial_43_125" cx="0" cy="0" r="1" gradientUnits="userSpaceOnUse" gradientTransform="translate(36.1981 27.1108) rotate(102.416) scale(5.68577 3.18397)">
<stop offset="0.480716" stop-color="#5F2F2E"/>
<stop offset="0.967279" stop-color="#5F2F2E" stop-opacity="0"/>
</radialGradient>
<linearGradient id="paint2_linear_43_125" x1="37.0247" y1="31.9556" x2="36.8669" y2="30.6621" gradientUnits="userSpaceOnUse">
<stop stop-color="#7B4064"/>
<stop offset="1" stop-color="#7B4064" stop-opacity="0"/>
</linearGradient>
<linearGradient id="paint3_linear_43_125" x1="32.2821" y1="29.5349" x2="33.7946" y2="29.7083" gradientUnits="userSpaceOnUse">
<stop stop-color="#826C6A"/>
<stop offset="1" stop-color="#826C6A" stop-opacity="0"/>
</linearGradient>
<linearGradient id="paint4_linear_43_125" x1="41.4401" y1="29.3277" x2="40.487" y2="29.7083" gradientUnits="userSpaceOnUse">
<stop stop-color="#826C6A"/>
<stop offset="1" stop-color="#826C6A" stop-opacity="0"/>
</linearGradient>
<linearGradient id="paint5_linear_43_125" x1="37.0247" y1="31.58" x2="37.0247" y2="31.9004" gradientUnits="userSpaceOnUse">
<stop stop-color="#8F5790" stop-opacity="0"/>
<stop offset="1" stop-color="#8F5790"/>
</linearGradient>
<radialGradient id="paint6_radial_43_125" cx="0" cy="0" r="1" gradientUnits="userSpaceOnUse" gradientTransform="translate(45.812 24.5203) rotate(180) scale(17.4872 9.74822)">
<stop stop-color="#80C156"/>
<stop offset="1" stop-color="#52915C"/>
</radialGradient>
<radialGradient id="paint7_radial_43_125" cx="0" cy="0" r="1" gradientUnits="userSpaceOnUse" gradientTransform="translate(37.0247 19.1959) rotate(90) scale(5.32432 24.1169)">
<stop stop-color="#57A22C"/>
<stop offset="1" stop-color="#57A22C" stop-opacity="0"/>
</radialGradient>
<radialGradient id="paint8_radial_43_125" cx="0" cy="0" r="1" gradientUnits="userSpaceOnUse" gradientTransform="translate(30.9622 28.5793) scale(10.6682 1.68866)">
<stop stop-color="#7F779B"/>
<stop offset="1" stop-color="#7F779B" stop-opacity="0"/>
</radialGradient>
<linearGradient id="paint9_linear_43_125" x1="38.1837" y1="28.8738" x2="38.1837" y2="28.086" gradientUnits="userSpaceOnUse">
<stop stop-color="#7F779B"/>
<stop offset="1" stop-color="#7F779B" stop-opacity="0"/>
</linearGradient>
<radialGradient id="paint10_radial_43_125" cx="0" cy="0" r="1" gradientUnits="userSpaceOnUse" gradientTransform="translate(37.5814 20.0787) rotate(173.698) scale(10.1289 2.30756)">
<stop stop-color="#105B0D"/>
<stop offset="1" stop-color="#105B0D" stop-opacity="0"/>
</radialGradient>
<radialGradient id="paint11_radial_43_125" cx="0" cy="0" r="1" gradientUnits="userSpaceOnUse" gradientTransform="translate(38.3413 25.2824) rotate(-180) scale(10.828 6.63674)">
<stop stop-color="#7C9983" stop-opacity="0"/>
<stop offset="0.949933" stop-color="#7C9983" stop-opacity="0.115592"/>
<stop offset="0.963693" stop-color="#7C9983" stop-opacity="0.2788"/>
<stop offset="0.973033" stop-color="#7C9983" stop-opacity="0.423928"/>
<stop offset="1" stop-color="#7C9983"/>
</radialGradient>
<radialGradient id="paint12_radial_43_125" cx="0" cy="0" r="1" gradientUnits="userSpaceOnUse" gradientTransform="translate(41.6336 25.1379) rotate(180) scale(7.19573 3.26952)">
<stop offset="0.109375" stop-color="#A2E070" stop-opacity="0.48"/>
<stop offset="0.296875" stop-color="#A2E070" stop-opacity="0.385628"/>
<stop offset="0.567708" stop-color="#A2E070" stop-opacity="0.186369"/>
<stop offset="0.785835" stop-color="#A2E070" stop-opacity="0.0549536"/>
<stop offset="0.886008" stop-color="#A2E070" stop-opacity="0.0303029"/>
<stop offset="1" stop-color="#A2E070" stop-opacity="0"/>
</radialGradient>
<radialGradient id="paint13_radial_43_125" cx="0" cy="0" r="1" gradientUnits="userSpaceOnUse" gradientTransform="translate(43.5519 25.0843) rotate(-90) scale(2.66752 2.58768)">
<stop stop-color="#A2E070" stop-opacity="0.48"/>
<stop offset="0.304501" stop-color="#A2E070" stop-opacity="0.385628"/>
<stop offset="0.596216" stop-color="#A2E070" stop-opacity="0.186369"/>
<stop offset="0.826065" stop-color="#A2E070" stop-opacity="0.0549536"/>
<stop offset="1" stop-color="#A2E070" stop-opacity="0"/>
</radialGradient>
<radialGradient id="paint14_radial_43_125" cx="0" cy="0" r="1" gradientUnits="userSpaceOnUse" gradientTransform="translate(34.1778 25.4507) scale(12.5957 7.06999)">
<stop stop-color="#52915C" stop-opacity="0"/>
<stop offset="0.924569" stop-color="#52915C" stop-opacity="0"/>
<stop offset="0.951597" stop-color="#52915C" stop-opacity="0.18"/>
<stop offset="0.968895" stop-color="#52915C" stop-opacity="0.447415"/>
<stop offset="1" stop-color="#52915C"/>
</radialGradient>
<radialGradient id="paint15_radial_43_125" cx="0" cy="0" r="1" gradientUnits="userSpaceOnUse" gradientTransform="translate(42.9492 17.5642) rotate(180) scale(11.8229 6.95732)">
<stop stop-color="#80C156"/>
<stop offset="1" stop-color="#52915C"/>
</radialGradient>
<linearGradient id="paint16_linear_43_125" x1="31.7868" y1="17.5642" x2="38.0825" y2="17.5642" gradientUnits="userSpaceOnUse">
<stop stop-color="#529257"/>
<stop offset="1" stop-color="#529257" stop-opacity="0"/>
</linearGradient>
<radialGradient id="paint17_radial_43_125" cx="0" cy="0" r="1" gradientUnits="userSpaceOnUse" gradientTransform="translate(37.0082 13.7642) rotate(90) scale(3.79998 16.3052)">
<stop stop-color="#57A22C"/>
<stop offset="1" stop-color="#57A22C" stop-opacity="0"/>
</radialGradient>
<radialGradient id="paint18_radial_43_125" cx="0" cy="0" r="1" gradientUnits="userSpaceOnUse" gradientTransform="translate(37.0082 20.8742) rotate(-90) scale(1.91381 9.56641)">
<stop stop-color="#479820"/>
<stop offset="1" stop-color="#479820" stop-opacity="0"/>
</radialGradient>
<radialGradient id="paint19_radial_43_125" cx="0" cy="0" r="1" gradientUnits="userSpaceOnUse" gradientTransform="translate(37.0082 20.6106) rotate(-90) scale(0.896484 7.90225)">
<stop stop-color="#15600B"/>
<stop offset="1" stop-color="#15600B" stop-opacity="0"/>
</radialGradient>
<radialGradient id="paint20_radial_43_125" cx="0" cy="0" r="1" gradientUnits="userSpaceOnUse" gradientTransform="translate(43.4386 20.7096) rotate(-164.816) scale(13.3259 7.05968)">
<stop offset="0.870799" stop-color="#75947D" stop-opacity="0"/>
<stop offset="1" stop-color="#75947D"/>
</radialGradient>
<radialGradient id="paint21_radial_43_125" cx="0" cy="0" r="1" gradientUnits="userSpaceOnUse" gradientTransform="translate(36.012 14.1028) rotate(90) scale(1.14551 7.86133)">
<stop stop-color="#15600B"/>
<stop offset="1" stop-color="#15600B" stop-opacity="0"/>
</radialGradient>
<radialGradient id="paint22_radial_43_125" cx="0" cy="0" r="1" gradientUnits="userSpaceOnUse" gradientTransform="translate(41.4212 17.9668) rotate(-90) scale(1.90381 1.74951)">
<stop stop-color="#A2E070" stop-opacity="0.48"/>
<stop offset="0.278072" stop-color="#A2E070" stop-opacity="0.385628"/>
<stop offset="0.575115" stop-color="#A2E070" stop-opacity="0.186369"/>
<stop offset="0.826065" stop-color="#A2E070" stop-opacity="0.0549536"/>
<stop offset="1" stop-color="#A2E070" stop-opacity="0"/>
</radialGradient>
<radialGradient id="paint23_radial_43_125" cx="0" cy="0" r="1" gradientUnits="userSpaceOnUse" gradientTransform="translate(40.1243 18.005) rotate(180) scale(4.86497 2.33346)">
<stop offset="0.109375" stop-color="#A2E070" stop-opacity="0.48"/>
<stop offset="0.296875" stop-color="#A2E070" stop-opacity="0.385628"/>
<stop offset="0.567708" stop-color="#A2E070" stop-opacity="0.186369"/>
<stop offset="0.785835" stop-color="#A2E070" stop-opacity="0.0549536"/>
<stop offset="0.886008" stop-color="#A2E070" stop-opacity="0.0303029"/>
<stop offset="1" stop-color="#A2E070" stop-opacity="0"/>
</radialGradient>
<radialGradient id="paint24_radial_43_125" cx="0" cy="0" r="1" gradientUnits="userSpaceOnUse" gradientTransform="translate(35.0834 18.2283) scale(8.51587 5.04586)">
<stop stop-color="#52915C" stop-opacity="0"/>
<stop offset="0.924569" stop-color="#52915C" stop-opacity="0"/>
<stop offset="0.951597" stop-color="#52915C" stop-opacity="0.18"/>
<stop offset="0.968895" stop-color="#52915C" stop-opacity="0.447415"/>
<stop offset="1" stop-color="#52915C"/>
</radialGradient>
<linearGradient id="paint25_linear_43_125" x1="35.5639" y1="11.7391" x2="40.6108" y2="11.7391" gradientUnits="userSpaceOnUse">
<stop stop-color="#5A9D57"/>
<stop offset="1" stop-color="#89CF42"/>
</linearGradient>
<radialGradient id="paint26_radial_43_125" cx="0" cy="0" r="1" gradientUnits="userSpaceOnUse" gradientTransform="translate(37.0248 14.9995) rotate(-90) scale(1.92578 8.5664)">
<stop stop-color="#3B9017"/>
<stop offset="1" stop-color="#3B9017" stop-opacity="0"/>
</radialGradient>
<radialGradient id="paint27_radial_43_125" cx="0" cy="0" r="1" gradientUnits="userSpaceOnUse" gradientTransform="translate(32.236 14.2641) rotate(-11.411) scale(4.21976 5.01593)">
<stop stop-color="#608371"/>
<stop offset="1" stop-color="#608371" stop-opacity="0"/>
</radialGradient>
<linearGradient id="paint28_linear_43_125" x1="32.7078" y1="10.7286" x2="34.4566" y2="11.3834" gradientUnits="userSpaceOnUse">
<stop stop-color="#608371"/>
<stop offset="1" stop-color="#608371" stop-opacity="0"/>
</linearGradient>
<radialGradient id="paint29_radial_43_125" cx="0" cy="0" r="1" gradientUnits="userSpaceOnUse" gradientTransform="translate(33.1761 15.1469) rotate(-47.7702) scale(1.37086 2.66886)">
<stop stop-color="#637374"/>
<stop offset="1" stop-color="#637374" stop-opacity="0"/>
</radialGradient>
<radialGradient id="paint30_radial_43_125" cx="0" cy="0" r="1" gradientUnits="userSpaceOnUse" gradientTransform="translate(32.3796 15.2094) rotate(-4.99539) scale(4.66289 1.05553)">
<stop stop-color="#15600B"/>
<stop offset="1" stop-color="#15600B" stop-opacity="0"/>
</radialGradient>
<linearGradient id="paint31_linear_43_125" x1="37.0248" y1="6.78979" x2="37.0248" y2="8.04715" gradientUnits="userSpaceOnUse">
<stop stop-color="#639E52"/>
<stop offset="1" stop-color="#70A960" stop-opacity="0"/>
</linearGradient>
<radialGradient id="paint32_radial_43_125" cx="0" cy="0" r="1" gradientUnits="userSpaceOnUse" gradientTransform="translate(38.8852 10.8095) rotate(154.759) scale(1.59728 4.96844)">
<stop stop-color="#9AD869" stop-opacity="0.63"/>
<stop offset="0.296875" stop-color="#9AD869" stop-opacity="0.46"/>
<stop offset="0.598002" stop-color="#9AD869" stop-opacity="0.186369"/>
<stop offset="0.792899" stop-color="#9AD869" stop-opacity="0.0549536"/>
<stop offset="0.886008" stop-color="#9AD869" stop-opacity="0.0303029"/>
<stop offset="1" stop-color="#9AD869" stop-opacity="0"/>
</radialGradient>
<radialGradient id="paint33_radial_43_125" cx="0" cy="0" r="1" gradientUnits="userSpaceOnUse" gradientTransform="translate(38.9324 13.0299) rotate(-92.7034) scale(1.28337 3.75737)">
<stop offset="0.109375" stop-color="#9AD869" stop-opacity="0.48"/>
<stop offset="0.296875" stop-color="#9AD869" stop-opacity="0.385628"/>
<stop offset="0.567708" stop-color="#9AD869" stop-opacity="0.186369"/>
<stop offset="0.7796" stop-color="#9AD869" stop-opacity="0.0549536"/>
<stop offset="0.905683" stop-color="#9AD869" stop-opacity="0.0303029"/>
<stop offset="1" stop-color="#9AD869" stop-opacity="0"/>
</radialGradient>
<radialGradient id="paint34_radial_43_125" cx="0" cy="0" r="1" gradientUnits="userSpaceOnUse" gradientTransform="translate(35.0249 11.1381) rotate(22.8525) scale(6.54357 4.96913)">
<stop stop-color="#52915C" stop-opacity="0"/>
<stop offset="0.890023" stop-color="#52915C" stop-opacity="0"/>
<stop offset="0.945218" stop-color="#52915C" stop-opacity="0.18"/>
<stop offset="1" stop-color="#52915C" stop-opacity="0.65"/>
</radialGradient>
<radialGradient id="paint35_radial_43_125" cx="0" cy="0" r="1" gradientUnits="userSpaceOnUse" gradientTransform="translate(38.6861 5.63186) rotate(90) scale(9.10432 6.91373)">
<stop stop-color="#52915C" stop-opacity="0"/>
<stop offset="0.926539" stop-color="#52915C" stop-opacity="0"/>
<stop offset="0.954947" stop-color="#52915C" stop-opacity="0.18"/>
<stop offset="0.992144" stop-color="#52915C"/>
</radialGradient>
<linearGradient id="paint36_linear_43_125" x1="35.778" y1="12.5826" x2="39.9525" y2="10.4107" gradientUnits="userSpaceOnUse">
<stop stop-color="#52915C" stop-opacity="0"/>
<stop offset="0.896481" stop-color="#52915C" stop-opacity="0"/>
<stop offset="0.9405" stop-color="#52915C" stop-opacity="0.18"/>
<stop offset="1" stop-color="#52915C" stop-opacity="0.65"/>
</linearGradient>
<radialGradient id="paint37_radial_43_125" cx="0" cy="0" r="1" gradientUnits="userSpaceOnUse" gradientTransform="translate(18.3291 38.3945) rotate(70.8482) scale(3.31424 2.08372)">
<stop offset="0.34016" stop-color="#5F2F2E"/>
<stop offset="1" stop-color="#5F2F2E" stop-opacity="0"/>
</radialGradient>
<radialGradient id="paint38_radial_43_125" cx="0" cy="0" r="1" gradientUnits="userSpaceOnUse" gradientTransform="translate(16.1981 37.9081) rotate(102.071) scale(5.84537 3.18812)">
<stop offset="0.480716" stop-color="#5F2F2E"/>
<stop offset="0.967279" stop-color="#5F2F2E" stop-opacity="0"/>
</radialGradient>
<linearGradient id="paint39_linear_43_125" x1="17.0247" y1="42.8955" x2="16.8576" y2="41.5651" gradientUnits="userSpaceOnUse">
<stop stop-color="#7B4064"/>
<stop offset="1" stop-color="#7B4064" stop-opacity="0"/>
</linearGradient>
<linearGradient id="paint40_linear_43_125" x1="12.2821" y1="40.4036" x2="13.7957" y2="40.5721" gradientUnits="userSpaceOnUse">
<stop stop-color="#826C6A"/>
<stop offset="1" stop-color="#826C6A" stop-opacity="0"/>
</linearGradient>
<linearGradient id="paint41_linear_43_125" x1="21.4401" y1="40.1903" x2="20.4795" y2="40.5629" gradientUnits="userSpaceOnUse">
<stop stop-color="#826C6A"/>
<stop offset="1" stop-color="#826C6A" stop-opacity="0"/>
</linearGradient>
<linearGradient id="paint42_linear_43_125" x1="17.0247" y1="42.5088" x2="17.0247" y2="42.8386" gradientUnits="userSpaceOnUse">
<stop stop-color="#8F5790" stop-opacity="0"/>
<stop offset="1" stop-color="#8F5790"/>
</linearGradient>
<radialGradient id="paint43_radial_43_125" cx="0" cy="0" r="1" gradientUnits="userSpaceOnUse" gradientTransform="translate(25.812 35.2415) rotate(180) scale(17.4872 10.0349)">
<stop stop-color="#80C156"/>
<stop offset="1" stop-color="#52915C"/>
</radialGradient>
<radialGradient id="paint44_radial_43_125" cx="0" cy="0" r="1" gradientUnits="userSpaceOnUse" gradientTransform="translate(17.0247 29.7605) rotate(90) scale(5.48092 24.1169)">
<stop stop-color="#57A22C"/>
<stop offset="1" stop-color="#57A22C" stop-opacity="0"/>
</radialGradient>
<radialGradient id="paint45_radial_43_125" cx="0" cy="0" r="1" gradientUnits="userSpaceOnUse" gradientTransform="translate(10.9622 39.4199) scale(10.6682 1.73833)">
<stop stop-color="#7F779B"/>
<stop offset="1" stop-color="#7F779B" stop-opacity="0"/>
</radialGradient>
<linearGradient id="paint46_linear_43_125" x1="18.1837" y1="39.723" x2="18.1837" y2="38.912" gradientUnits="userSpaceOnUse">
<stop stop-color="#7F779B"/>
<stop offset="1" stop-color="#7F779B" stop-opacity="0"/>
</linearGradient>
<radialGradient id="paint47_radial_43_125" cx="0" cy="0" r="1" gradientUnits="userSpaceOnUse" gradientTransform="translate(17.5814 30.6693) rotate(173.514) scale(10.1325 2.37458)">
<stop stop-color="#105B0D"/>
<stop offset="1" stop-color="#105B0D" stop-opacity="0"/>
</radialGradient>
<radialGradient id="paint48_radial_43_125" cx="0" cy="0" r="1" gradientUnits="userSpaceOnUse" gradientTransform="translate(18.3413 36.026) rotate(-180) scale(10.828 6.83194)">
<stop stop-color="#7C9983" stop-opacity="0"/>
<stop offset="0.949933" stop-color="#7C9983" stop-opacity="0.115592"/>
<stop offset="0.963693" stop-color="#7C9983" stop-opacity="0.2788"/>
<stop offset="0.973033" stop-color="#7C9983" stop-opacity="0.423928"/>
<stop offset="1" stop-color="#7C9983"/>
</radialGradient>
<radialGradient id="paint49_radial_43_125" cx="0" cy="0" r="1" gradientUnits="userSpaceOnUse" gradientTransform="translate(21.6336 35.8772) rotate(180) scale(7.19573 3.36568)">
<stop offset="0.109375" stop-color="#A2E070" stop-opacity="0.48"/>
<stop offset="0.296875" stop-color="#A2E070" stop-opacity="0.385628"/>
<stop offset="0.567708" stop-color="#A2E070" stop-opacity="0.186369"/>
<stop offset="0.785835" stop-color="#A2E070" stop-opacity="0.0549536"/>
<stop offset="0.886008" stop-color="#A2E070" stop-opacity="0.0303029"/>
<stop offset="1" stop-color="#A2E070" stop-opacity="0"/>
</radialGradient>
<radialGradient id="paint50_radial_43_125" cx="0" cy="0" r="1" gradientUnits="userSpaceOnUse" gradientTransform="translate(23.5519 35.8221) rotate(-90) scale(2.74597 2.58768)">
<stop stop-color="#A2E070" stop-opacity="0.48"/>
<stop offset="0.304501" stop-color="#A2E070" stop-opacity="0.385628"/>
<stop offset="0.596216" stop-color="#A2E070" stop-opacity="0.186369"/>
<stop offset="0.826065" stop-color="#A2E070" stop-opacity="0.0549536"/>
<stop offset="1" stop-color="#A2E070" stop-opacity="0"/>
</radialGradient>
<radialGradient id="paint51_radial_43_125" cx="0" cy="0" r="1" gradientUnits="userSpaceOnUse" gradientTransform="translate(14.1778 36.1993) scale(12.5957 7.27793)">
<stop stop-color="#52915C" stop-opacity="0"/>
<stop offset="0.924569" stop-color="#52915C" stop-opacity="0"/>
<stop offset="0.951597" stop-color="#52915C" stop-opacity="0.18"/>
<stop offset="0.968895" stop-color="#52915C" stop-opacity="0.447415"/>
<stop offset="1" stop-color="#52915C"/>
</radialGradient>
<radialGradient id="paint52_radial_43_125" cx="0" cy="0" r="1" gradientUnits="userSpaceOnUse" gradientTransform="translate(22.9492 28.0808) rotate(180) scale(11.8229 7.16195)">
<stop stop-color="#80C156"/>
<stop offset="1" stop-color="#52915C"/>
</radialGradient>
<linearGradient id="paint53_linear_43_125" x1="11.7868" y1="28.0808" x2="18.0825" y2="28.0808" gradientUnits="userSpaceOnUse">
<stop stop-color="#529257"/>
<stop offset="1" stop-color="#529257" stop-opacity="0"/>
</linearGradient>
<radialGradient id="paint54_radial_43_125" cx="0" cy="0" r="1" gradientUnits="userSpaceOnUse" gradientTransform="translate(17.0082 24.1691) rotate(90) scale(3.91174 16.3052)">
<stop stop-color="#57A22C"/>
<stop offset="1" stop-color="#57A22C" stop-opacity="0"/>
</radialGradient>
<radialGradient id="paint55_radial_43_125" cx="0" cy="0" r="1" gradientUnits="userSpaceOnUse" gradientTransform="translate(17.0082 31.4882) rotate(-90) scale(1.9701 9.56641)">
<stop stop-color="#479820"/>
<stop offset="1" stop-color="#479820" stop-opacity="0"/>
</radialGradient>
<radialGradient id="paint56_radial_43_125" cx="0" cy="0" r="1" gradientUnits="userSpaceOnUse" gradientTransform="translate(17.0082 31.2168) rotate(-90) scale(0.922851 7.90225)">
<stop stop-color="#15600B"/>
<stop offset="1" stop-color="#15600B" stop-opacity="0"/>
</radialGradient>
<radialGradient id="paint57_radial_43_125" cx="0" cy="0" r="1" gradientUnits="userSpaceOnUse" gradientTransform="translate(23.4386 31.3187) rotate(-164.391) scale(13.3532 7.25248)">
<stop offset="0.870799" stop-color="#75947D" stop-opacity="0"/>
<stop offset="1" stop-color="#75947D"/>
</radialGradient>
<radialGradient id="paint58_radial_43_125" cx="0" cy="0" r="1" gradientUnits="userSpaceOnUse" gradientTransform="translate(16.012 24.5176) rotate(90) scale(1.1792 7.86133)">
<stop stop-color="#15600B"/>
<stop offset="1" stop-color="#15600B" stop-opacity="0"/>
</radialGradient>
<radialGradient id="paint59_radial_43_125" cx="0" cy="0" r="1" gradientUnits="userSpaceOnUse" gradientTransform="translate(21.4212 28.4952) rotate(-90) scale(1.9598 1.74951)">
<stop stop-color="#A2E070" stop-opacity="0.48"/>
<stop offset="0.278072" stop-color="#A2E070" stop-opacity="0.385628"/>
<stop offset="0.575115" stop-color="#A2E070" stop-opacity="0.186369"/>
<stop offset="0.826065" stop-color="#A2E070" stop-opacity="0.0549536"/>
<stop offset="1" stop-color="#A2E070" stop-opacity="0"/>
</radialGradient>
<radialGradient id="paint60_radial_43_125" cx="0" cy="0" r="1" gradientUnits="userSpaceOnUse" gradientTransform="translate(20.1243 28.5346) rotate(180) scale(4.86497 2.40209)">
<stop offset="0.109375" stop-color="#A2E070" stop-opacity="0.48"/>
<stop offset="0.296875" stop-color="#A2E070" stop-opacity="0.385628"/>
<stop offset="0.567708" stop-color="#A2E070" stop-opacity="0.186369"/>
<stop offset="0.785835" stop-color="#A2E070" stop-opacity="0.0549536"/>
<stop offset="0.886008" stop-color="#A2E070" stop-opacity="0.0303029"/>
<stop offset="1" stop-color="#A2E070" stop-opacity="0"/>
</radialGradient>
<radialGradient id="paint61_radial_43_125" cx="0" cy="0" r="1" gradientUnits="userSpaceOnUse" gradientTransform="translate(15.0834 28.7644) scale(8.51587 5.19427)">
<stop stop-color="#52915C" stop-opacity="0"/>
<stop offset="0.924569" stop-color="#52915C" stop-opacity="0"/>
<stop offset="0.951597" stop-color="#52915C" stop-opacity="0.18"/>
<stop offset="0.968895" stop-color="#52915C" stop-opacity="0.447415"/>
<stop offset="1" stop-color="#52915C"/>
</radialGradient>
<linearGradient id="paint62_linear_43_125" x1="15.5639" y1="22.0844" x2="20.6108" y2="22.0844" gradientUnits="userSpaceOnUse">
<stop stop-color="#5A9D57"/>
<stop offset="1" stop-color="#89CF42"/>
</linearGradient>
<radialGradient id="paint63_radial_43_125" cx="0" cy="0" r="1" gradientUnits="userSpaceOnUse" gradientTransform="translate(17.0248 25.4406) rotate(-90) scale(1.98242 8.5664)">
<stop stop-color="#3B9017"/>
<stop offset="1" stop-color="#3B9017" stop-opacity="0"/>
</radialGradient>
<radialGradient id="paint64_radial_43_125" cx="0" cy="0" r="1" gradientUnits="userSpaceOnUse" gradientTransform="translate(12.236 24.6837) rotate(-11.7374) scale(4.22468 5.15744)">
<stop stop-color="#608371"/>
<stop offset="1" stop-color="#608371" stop-opacity="0"/>
</radialGradient>
<linearGradient id="paint65_linear_43_125" x1="12.7078" y1="21.0442" x2="14.4688" y2="21.6847" gradientUnits="userSpaceOnUse">
<stop stop-color="#608371"/>
<stop offset="1" stop-color="#608371" stop-opacity="0"/>
</linearGradient>
<radialGradient id="paint66_radial_43_125" cx="0" cy="0" r="1" gradientUnits="userSpaceOnUse" gradientTransform="translate(13.1761 25.5925) rotate(-48.5955) scale(1.39311 2.70348)">
<stop stop-color="#637374"/>
<stop offset="1" stop-color="#637374" stop-opacity="0"/>
</radialGradient>
<radialGradient id="paint67_radial_43_125" cx="0" cy="0" r="1" gradientUnits="userSpaceOnUse" gradientTransform="translate(12.3796 25.6568) rotate(-5.14153) scale(4.66395 1.08632)">
<stop stop-color="#15600B"/>
<stop offset="1" stop-color="#15600B" stop-opacity="0"/>
</radialGradient>
<linearGradient id="paint68_linear_43_125" x1="17.0248" y1="16.9895" x2="17.0248" y2="18.2838" gradientUnits="userSpaceOnUse">
<stop stop-color="#639E52"/>
<stop offset="1" stop-color="#70A960" stop-opacity="0"/>
</linearGradient>
<radialGradient id="paint69_radial_43_125" cx="0" cy="0" r="1" gradientUnits="userSpaceOnUse" gradientTransform="translate(18.8852 21.1274) rotate(154.113) scale(1.60592 5.08704)">
<stop stop-color="#9AD869" stop-opacity="0.63"/>
<stop offset="0.296875" stop-color="#9AD869" stop-opacity="0.46"/>
<stop offset="0.598002" stop-color="#9AD869" stop-opacity="0.186369"/>
<stop offset="0.792899" stop-color="#9AD869" stop-opacity="0.0549536"/>
<stop offset="0.886008" stop-color="#9AD869" stop-opacity="0.0303029"/>
<stop offset="1" stop-color="#9AD869" stop-opacity="0"/>
</radialGradient>
<radialGradient id="paint70_radial_43_125" cx="0" cy="0" r="1" gradientUnits="userSpaceOnUse" gradientTransform="translate(18.9324 23.4132) rotate(-92.6262) scale(1.32103 3.75761)">
<stop offset="0.109375" stop-color="#9AD869" stop-opacity="0.48"/>
<stop offset="0.296875" stop-color="#9AD869" stop-opacity="0.385628"/>
<stop offset="0.567708" stop-color="#9AD869" stop-opacity="0.186369"/>
<stop offset="0.7796" stop-color="#9AD869" stop-opacity="0.0549536"/>
<stop offset="0.905683" stop-color="#9AD869" stop-opacity="0.0303029"/>
<stop offset="1" stop-color="#9AD869" stop-opacity="0"/>
</radialGradient>
<radialGradient id="paint71_radial_43_125" cx="0" cy="0" r="1" gradientUnits="userSpaceOnUse" gradientTransform="translate(15.0249 21.4656) rotate(23.4529) scale(6.57296 5.09241)">
<stop stop-color="#52915C" stop-opacity="0"/>
<stop offset="0.890023" stop-color="#52915C" stop-opacity="0"/>
<stop offset="0.945218" stop-color="#52915C" stop-opacity="0.18"/>
<stop offset="1" stop-color="#52915C" stop-opacity="0.65"/>
</radialGradient>
<radialGradient id="paint72_radial_43_125" cx="0" cy="0" r="1" gradientUnits="userSpaceOnUse" gradientTransform="translate(18.6861 15.7975) rotate(90) scale(9.3721 6.91373)">
<stop stop-color="#52915C" stop-opacity="0"/>
<stop offset="0.926539" stop-color="#52915C" stop-opacity="0"/>
<stop offset="0.954947" stop-color="#52915C" stop-opacity="0.18"/>
<stop offset="0.992144" stop-color="#52915C"/>
</radialGradient>
<linearGradient id="paint73_linear_43_125" x1="15.778" y1="22.9527" x2="20.0032" y2="20.8173" gradientUnits="userSpaceOnUse">
<stop stop-color="#52915C" stop-opacity="0"/>
<stop offset="0.896481" stop-color="#52915C" stop-opacity="0"/>
<stop offset="0.9405" stop-color="#52915C" stop-opacity="0.18"/>
<stop offset="1" stop-color="#52915C" stop-opacity="0.65"/>
</linearGradient>
<radialGradient id="paint74_radial_43_125" cx="0" cy="0" r="1" gradientUnits="userSpaceOnUse" gradientTransform="translate(31.8682 53.5833) rotate(69.7952) scale(3.24077 2.13096)">
<stop offset="0.34016" stop-color="#5F2F2E"/>
<stop offset="1" stop-color="#5F2F2E" stop-opacity="0"/>
</radialGradient>
<radialGradient id="paint75_radial_43_125" cx="0" cy="0" r="1" gradientUnits="userSpaceOnUse" gradientTransform="translate(29.6745 53.1108) rotate(102.769) scale(5.6936 3.2731)">
<stop offset="0.480716" stop-color="#5F2F2E"/>
<stop offset="0.967279" stop-color="#5F2F2E" stop-opacity="0"/>
</radialGradient>
<linearGradient id="paint76_linear_43_125" x1="30.5254" y1="57.9556" x2="30.372" y2="56.661" gradientUnits="userSpaceOnUse">
<stop stop-color="#7B4064"/>
<stop offset="1" stop-color="#7B4064" stop-opacity="0"/>
</linearGradient>
<linearGradient id="paint77_linear_43_125" x1="25.6433" y1="55.5349" x2="27.1991" y2="55.7185" gradientUnits="userSpaceOnUse">
<stop stop-color="#826C6A"/>
<stop offset="1" stop-color="#826C6A" stop-opacity="0"/>
</linearGradient>
<linearGradient id="paint78_linear_43_125" x1="35.0707" y1="55.3277" x2="34.0975" y2="55.7277" gradientUnits="userSpaceOnUse">
<stop stop-color="#826C6A"/>
<stop offset="1" stop-color="#826C6A" stop-opacity="0"/>
</linearGradient>
<linearGradient id="paint79_linear_43_125" x1="30.5254" y1="57.58" x2="30.5254" y2="57.9004" gradientUnits="userSpaceOnUse">
<stop stop-color="#8F5790" stop-opacity="0"/>
<stop offset="1" stop-color="#8F5790"/>
</linearGradient>
<radialGradient id="paint80_radial_43_125" cx="0" cy="0" r="1" gradientUnits="userSpaceOnUse" gradientTransform="translate(39.5713 50.5203) rotate(180) scale(18.0015 9.74822)">
<stop stop-color="#80C156"/>
<stop offset="1" stop-color="#52915C"/>
</radialGradient>
<radialGradient id="paint81_radial_43_125" cx="0" cy="0" r="1" gradientUnits="userSpaceOnUse" gradientTransform="translate(30.5257 45.1959) rotate(90) scale(5.32432 24.8262)">
<stop stop-color="#57A22C"/>
<stop offset="1" stop-color="#57A22C" stop-opacity="0"/>
</radialGradient>
<radialGradient id="paint82_radial_43_125" cx="0" cy="0" r="1" gradientUnits="userSpaceOnUse" gradientTransform="translate(24.2848 54.5793) scale(10.9819 1.68866)">
<stop stop-color="#7F779B"/>
<stop offset="1" stop-color="#7F779B" stop-opacity="0"/>
</radialGradient>
<linearGradient id="paint83_linear_43_125" x1="31.7187" y1="54.8738" x2="31.7187" y2="54.086" gradientUnits="userSpaceOnUse">
<stop stop-color="#7F779B"/>
<stop offset="1" stop-color="#7F779B" stop-opacity="0"/>
</linearGradient>
<radialGradient id="paint84_radial_43_125" cx="0" cy="0" r="1" gradientUnits="userSpaceOnUse" gradientTransform="translate(31.0987 46.0787) rotate(173.877) scale(10.4233 2.30835)">
<stop stop-color="#105B0D"/>
<stop offset="1" stop-color="#105B0D" stop-opacity="0"/>
</radialGradient>
<radialGradient id="paint85_radial_43_125" cx="0" cy="0" r="1" gradientUnits="userSpaceOnUse" gradientTransform="translate(31.8809 51.2824) rotate(-180) scale(11.1465 6.63674)">
<stop stop-color="#7C9983" stop-opacity="0"/>
<stop offset="0.949933" stop-color="#7C9983" stop-opacity="0.115592"/>
<stop offset="0.963693" stop-color="#7C9983" stop-opacity="0.2788"/>
<stop offset="0.973033" stop-color="#7C9983" stop-opacity="0.423928"/>
<stop offset="1" stop-color="#7C9983"/>
</radialGradient>
<radialGradient id="paint86_radial_43_125" cx="0" cy="0" r="1" gradientUnits="userSpaceOnUse" gradientTransform="translate(35.2701 51.1379) rotate(180) scale(7.40737 3.26952)">
<stop offset="0.109375" stop-color="#A2E070" stop-opacity="0.48"/>
<stop offset="0.296875" stop-color="#A2E070" stop-opacity="0.385628"/>
<stop offset="0.567708" stop-color="#A2E070" stop-opacity="0.186369"/>
<stop offset="0.785835" stop-color="#A2E070" stop-opacity="0.0549536"/>
<stop offset="0.886008" stop-color="#A2E070" stop-opacity="0.0303029"/>
<stop offset="1" stop-color="#A2E070" stop-opacity="0"/>
</radialGradient>
<radialGradient id="paint87_radial_43_125" cx="0" cy="0" r="1" gradientUnits="userSpaceOnUse" gradientTransform="translate(37.2448 51.0843) rotate(-90) scale(2.66752 2.66379)">
<stop stop-color="#A2E070" stop-opacity="0.48"/>
<stop offset="0.304501" stop-color="#A2E070" stop-opacity="0.385628"/>
<stop offset="0.596216" stop-color="#A2E070" stop-opacity="0.186369"/>
<stop offset="0.826065" stop-color="#A2E070" stop-opacity="0.0549536"/>
<stop offset="1" stop-color="#A2E070" stop-opacity="0"/>
</radialGradient>
<radialGradient id="paint88_radial_43_125" cx="0" cy="0" r="1" gradientUnits="userSpaceOnUse" gradientTransform="translate(27.595 51.4507) scale(12.9662 7.06999)">
<stop stop-color="#52915C" stop-opacity="0"/>
<stop offset="0.924569" stop-color="#52915C" stop-opacity="0"/>
<stop offset="0.951597" stop-color="#52915C" stop-opacity="0.18"/>
<stop offset="0.968895" stop-color="#52915C" stop-opacity="0.447415"/>
<stop offset="1" stop-color="#52915C"/>
</radialGradient>
<radialGradient id="paint89_radial_43_125" cx="0" cy="0" r="1" gradientUnits="userSpaceOnUse" gradientTransform="translate(36.6241 43.5642) rotate(180) scale(12.1707 6.95732)">
<stop stop-color="#80C156"/>
<stop offset="1" stop-color="#52915C"/>
</radialGradient>
<linearGradient id="paint90_linear_43_125" x1="25.1334" y1="43.5642" x2="31.6143" y2="43.5642" gradientUnits="userSpaceOnUse">
<stop stop-color="#529257"/>
<stop offset="1" stop-color="#529257" stop-opacity="0"/>
</linearGradient>
<radialGradient id="paint91_radial_43_125" cx="0" cy="0" r="1" gradientUnits="userSpaceOnUse" gradientTransform="translate(30.5084 39.7642) rotate(90) scale(3.79998 16.7848)">
<stop stop-color="#57A22C"/>
<stop offset="1" stop-color="#57A22C" stop-opacity="0"/>
</radialGradient>
<radialGradient id="paint92_radial_43_125" cx="0" cy="0" r="1" gradientUnits="userSpaceOnUse" gradientTransform="translate(30.5084 46.8742) rotate(-90) scale(1.91381 9.84777)">
<stop stop-color="#479820"/>
<stop offset="1" stop-color="#479820" stop-opacity="0"/>
</radialGradient>
<radialGradient id="paint93_radial_43_125" cx="0" cy="0" r="1" gradientUnits="userSpaceOnUse" gradientTransform="translate(30.5084 46.6106) rotate(-90) scale(0.896484 8.13466)">
<stop stop-color="#15600B"/>
<stop offset="1" stop-color="#15600B" stop-opacity="0"/>
</radialGradient>
<radialGradient id="paint94_radial_43_125" cx="0" cy="0" r="1" gradientUnits="userSpaceOnUse" gradientTransform="translate(37.1279 46.7096) rotate(-165.23) scale(13.6913 7.07336)">
<stop offset="0.870799" stop-color="#75947D" stop-opacity="0"/>
<stop offset="1" stop-color="#75947D"/>
</radialGradient>
<radialGradient id="paint95_radial_43_125" cx="0" cy="0" r="1" gradientUnits="userSpaceOnUse" gradientTransform="translate(29.4829 40.1028) rotate(90) scale(1.14551 8.09254)">
<stop stop-color="#15600B"/>
<stop offset="1" stop-color="#15600B" stop-opacity="0"/>
</radialGradient>
<radialGradient id="paint96_radial_43_125" cx="0" cy="0" r="1" gradientUnits="userSpaceOnUse" gradientTransform="translate(35.0512 43.9668) rotate(-90) scale(1.90381 1.80096)">
<stop stop-color="#A2E070" stop-opacity="0.48"/>
<stop offset="0.278072" stop-color="#A2E070" stop-opacity="0.385628"/>
<stop offset="0.575115" stop-color="#A2E070" stop-opacity="0.186369"/>
<stop offset="0.826065" stop-color="#A2E070" stop-opacity="0.0549536"/>
<stop offset="1" stop-color="#A2E070" stop-opacity="0"/>
</radialGradient>
<radialGradient id="paint97_radial_43_125" cx="0" cy="0" r="1" gradientUnits="userSpaceOnUse" gradientTransform="translate(33.7161 44.005) rotate(180) scale(5.00806 2.33346)">
<stop offset="0.109375" stop-color="#A2E070" stop-opacity="0.48"/>
<stop offset="0.296875" stop-color="#A2E070" stop-opacity="0.385628"/>
<stop offset="0.567708" stop-color="#A2E070" stop-opacity="0.186369"/>
<stop offset="0.785835" stop-color="#A2E070" stop-opacity="0.0549536"/>
<stop offset="0.886008" stop-color="#A2E070" stop-opacity="0.0303029"/>
<stop offset="1" stop-color="#A2E070" stop-opacity="0"/>
</radialGradient>
<radialGradient id="paint98_radial_43_125" cx="0" cy="0" r="1" gradientUnits="userSpaceOnUse" gradientTransform="translate(28.527 44.2283) scale(8.76633 5.04586)">
<stop stop-color="#52915C" stop-opacity="0"/>
<stop offset="0.924569" stop-color="#52915C" stop-opacity="0"/>
<stop offset="0.951597" stop-color="#52915C" stop-opacity="0.18"/>
<stop offset="0.968895" stop-color="#52915C" stop-opacity="0.447415"/>
<stop offset="1" stop-color="#52915C"/>
</radialGradient>
<linearGradient id="paint99_linear_43_125" x1="29.0217" y1="37.7391" x2="34.217" y2="37.7391" gradientUnits="userSpaceOnUse">
<stop stop-color="#5A9D57"/>
<stop offset="1" stop-color="#89CF42"/>
</linearGradient>
<radialGradient id="paint100_radial_43_125" cx="0" cy="0" r="1" gradientUnits="userSpaceOnUse" gradientTransform="translate(30.5256 40.9995) rotate(-90) scale(1.92578 8.81836)">
<stop stop-color="#3B9017"/>
<stop offset="1" stop-color="#3B9017" stop-opacity="0"/>
</radialGradient>
<radialGradient id="paint101_radial_43_125" cx="0" cy="0" r="1" gradientUnits="userSpaceOnUse" gradientTransform="translate(25.5959 40.2641) rotate(-11.0932) scale(4.33908 5.02147)">
<stop stop-color="#608371"/>
<stop offset="1" stop-color="#608371" stop-opacity="0"/>
</radialGradient>
<linearGradient id="paint102_linear_43_125" x1="26.0815" y1="36.7286" x2="27.8687" y2="37.4175" gradientUnits="userSpaceOnUse">
<stop stop-color="#608371"/>
<stop offset="1" stop-color="#608371" stop-opacity="0"/>
</linearGradient>
<radialGradient id="paint103_radial_43_125" cx="0" cy="0" r="1" gradientUnits="userSpaceOnUse" gradientTransform="translate(26.5636 41.1469) rotate(-46.9426) scale(1.38922 2.71105)">
<stop stop-color="#637374"/>
<stop offset="1" stop-color="#637374" stop-opacity="0"/>
</radialGradient>
<radialGradient id="paint104_radial_43_125" cx="0" cy="0" r="1" gradientUnits="userSpaceOnUse" gradientTransform="translate(25.7438 41.2094) rotate(-4.85335) scale(4.79901 1.05575)">
<stop stop-color="#15600B"/>
<stop offset="1" stop-color="#15600B" stop-opacity="0"/>
</radialGradient>
<linearGradient id="paint105_linear_43_125" x1="30.5256" y1="32.7898" x2="30.5256" y2="34.0471" gradientUnits="userSpaceOnUse">
<stop stop-color="#639E52"/>
<stop offset="1" stop-color="#70A960" stop-opacity="0"/>
</linearGradient>
<radialGradient id="paint106_radial_43_125" cx="0" cy="0" r="1" gradientUnits="userSpaceOnUse" gradientTransform="translate(32.4407 36.8095) rotate(155.394) scale(1.63581 4.99408)">
<stop stop-color="#9AD869" stop-opacity="0.63"/>
<stop offset="0.296875" stop-color="#9AD869" stop-opacity="0.46"/>
<stop offset="0.598002" stop-color="#9AD869" stop-opacity="0.186369"/>
<stop offset="0.792899" stop-color="#9AD869" stop-opacity="0.0549536"/>
<stop offset="0.886008" stop-color="#9AD869" stop-opacity="0.0303029"/>
<stop offset="1" stop-color="#9AD869" stop-opacity="0"/>
</radialGradient>
<radialGradient id="paint107_radial_43_125" cx="0" cy="0" r="1" gradientUnits="userSpaceOnUse" gradientTransform="translate(32.4892 39.0299) rotate(-92.7827) scale(1.28346 3.86763)">
<stop offset="0.109375" stop-color="#9AD869" stop-opacity="0.48"/>
<stop offset="0.296875" stop-color="#9AD869" stop-opacity="0.385628"/>
<stop offset="0.567708" stop-color="#9AD869" stop-opacity="0.186369"/>
<stop offset="0.7796" stop-color="#9AD869" stop-opacity="0.0549536"/>
<stop offset="0.905683" stop-color="#9AD869" stop-opacity="0.0303029"/>
<stop offset="1" stop-color="#9AD869" stop-opacity="0"/>
</radialGradient>
<radialGradient id="paint108_radial_43_125" cx="0" cy="0" r="1" gradientUnits="userSpaceOnUse" gradientTransform="translate(28.4668 37.1381) rotate(22.2641) scale(6.70736 4.99037)">
<stop stop-color="#52915C" stop-opacity="0"/>
<stop offset="0.890023" stop-color="#52915C" stop-opacity="0"/>
<stop offset="0.945218" stop-color="#52915C" stop-opacity="0.18"/>
<stop offset="1" stop-color="#52915C" stop-opacity="0.65"/>
</radialGradient>
<radialGradient id="paint109_radial_43_125" cx="0" cy="0" r="1" gradientUnits="userSpaceOnUse" gradientTransform="translate(32.2358 31.6319) rotate(90) scale(9.10432 7.11707)">
<stop stop-color="#52915C" stop-opacity="0"/>
<stop offset="0.926539" stop-color="#52915C" stop-opacity="0"/>
<stop offset="0.954947" stop-color="#52915C" stop-opacity="0.18"/>
<stop offset="0.992144" stop-color="#52915C"/>
</radialGradient>
<linearGradient id="paint110_linear_43_125" x1="29.2421" y1="38.5826" x2="33.4854" y2="36.31" gradientUnits="userSpaceOnUse">
<stop stop-color="#52915C" stop-opacity="0"/>
<stop offset="0.896481" stop-color="#52915C" stop-opacity="0"/>
<stop offset="0.9405" stop-color="#52915C" stop-opacity="0.18"/>
<stop offset="1" stop-color="#52915C" stop-opacity="0.65"/>
</linearGradient>
</defs>
</svg>
