<?xml version="1.0" encoding="utf-8"?>
<!-- Generator: Adobe Illustrator 25.1.0, SVG Export Plug-In . SVG Version: 6.00 Build 0)  -->
<svg version="1.1" id="레이어_1" xmlns="http://www.w3.org/2000/svg" xmlns:xlink="http://www.w3.org/1999/xlink" x="0px"
	 y="0px" viewBox="0 0 500 200" style="enable-background:new 0 0 500 200;" xml:space="preserve">
<style type="text/css">
	.st0{fill:#53BF9E;}
	.st1{fill:#51BF9E;}
	.st2{fill:#55C0A0;}
	.st3{fill:#56C0A0;}
	.st4{fill:#56C1A0;}
	.st5{fill:#5AC2A2;}
	.st6{fill:#FBFDFD;}
	.st7{fill:#57C1A1;}
	.st8{fill:#54C0A0;}
	.st9{fill:#FCFEFD;}
	.st10{fill:#58C1A0;}
	.st11{fill:#58C1A1;}
	.st12{fill:#52C09E;}
	.st13{fill:#5CC2A3;}
	.st14{fill:#5EC4A5;}
	.st15{fill:#80C7B0;}
	.st16{fill:#62C5A7;}
	.st17{fill:#70C9AE;}
	.st18{fill:#64C4A7;}
	.st19{fill:#83C8B1;}
	.st20{fill:#54C09F;}
	.st21{fill:#89CBB6;}
	.st22{fill:#E2F4EE;}
	.st23{fill:#FAFDFC;}
	.st24{fill:#F9FCFC;}
	.st25{fill:#F7FCFB;}
	.st26{fill:#F9FDFC;}
	.st27{fill:#FDFEFE;}
	.st28{fill:#FCFDFD;}
	.st29{fill:#FCFEFE;}
	.st30{fill:#53C09F;}
</style>
<path class="st0" d="M407.6,122c-8.2,2.3-13.2,0.4-14.9-7.4c-0.3-1.2-1.1-2.2-1.7-3.3c-1.6-3-4.5-2.7-7.2-2.3c-3.2,0.4-1.3,3.3-2,5
	c-1.3,3,3.5,8.4-4,8.9c-5.4,0.3-7.7-0.8-7.4-6.9c0.6-10.8,0.3-21.6,0.1-32.5c-0.1-4.1,0.8-6.1,5.4-5.8c5.6,0.4,11.3,0,16.9,0.2
	c6.7,0.2,12.4,2.2,14.7,9.3c2.1,6.7,1.3,12.8-4.6,17.4c-1.9,1.5-2,2.5-1,4.6C404,113.3,405.7,117.8,407.6,122z"/>
<path class="st1" d="M462.2,99.8c0-6,0-12.1,0-18.1c0-1.9,0-4,2.7-3.9c7.9,0.3,15.9-1,23.7,0.7c7.8,1.7,11.5,6.8,11.4,15.5
	c0,7.7-4.3,13.4-11.4,15.1c-1.2,0.3-2.5,0.5-3.7,0.6c-3.5,0.3-7.7-0.7-10.3,1c-2.7,1.7-0.6,6.2-1.2,9.4c-0.8,4.7-4.6,2.2-7,2.6
	c-2.6,0.5-4.4-0.2-4.3-3.6C462.3,112.7,462.2,106.2,462.2,99.8z"/>
<path class="st1" d="M424.6,113.5c-5.3,11.2-2.6,9.3-14.9,8.9c4.5-11.5,8.9-22.7,13.2-34c0.6-1.5,1.2-3.1,1.8-4.6
	c2-5.5,7.6-8,13.2-5.9c2,0.7,2.1,2.5,2.6,3.9c4.6,11.6,9.1,23.2,13.4,34.8c0.7,1.8,3.1,5.1,0.5,5.7c-3.3,0.7-8,2.6-10.7-1.7
	c-1.4-2.2-2-5-2.9-7.5C435.3,111.5,429.9,110.9,424.6,113.5z"/>
<path class="st2" d="M151.8,77.3c3.1,0.2,6.2,0.1,9.3,1.2c1.6,0.6,2.5,1.4,2.3,3.2c-0.3,2.3-1.8,1.6-3.3,1.4
	c-4.5-0.8-9.1-0.9-13.7-0.4c-3.4,0.4-5.9,2.1-6.4,5.7c-0.6,3.7,1.3,6,4.6,7.1c3.7,1.3,7.6,2.2,11.3,3.5c6.9,2.4,10.5,7,10.1,12.6
	c-0.4,6.2-4,9.5-11.4,11.3c-5.7,1.4-11.2,0.4-16.7-0.7c-2-0.4-3.5-1.6-2.9-3.9c0.8-2.8,2.7-0.9,4.1-0.8c5.2,0.7,10.2,1.9,15.5,0.3
	c3.1-1,5.2-2.4,5.5-5.9c0.3-3.3-0.9-5.8-4-7c-2.9-1.2-5.8-2.1-8.8-3c-9.4-2.5-13.9-6.9-13.2-13.3c0.7-7.3,6.1-11.2,16-11.4
	C150.6,77.3,151.2,77.3,151.8,77.3z"/>
<path class="st3" d="M351.1,109c-2.5,0-5-0.1-7.5,0c-1.5,0.1-3.6-0.8-4.2,1.5c-0.5,1.7,0.4,3.3,1.6,4.6c4.4,4.9,10.1,4,15.8,3.5
	c1.6-0.2,3.9-2.2,4.6,0.8c0.6,2.8-2.1,3-4.1,3.5c-7.3,1.7-14.5,1.4-19.8-4.2c-5.6-5.9-5-13.5-2.8-20.7c2.3-7.4,11.2-10.7,19.9-8.1
	c6.6,2,10.4,9.3,9,16.5c-0.5,2.2-1.7,2.6-3.5,2.6C357,108.9,354,109,351.1,109z"/>
<path class="st4" d="M242,109c-1.9,0-3.8-0.2-5.6,0.1c-1.9,0.2-4.9-1.3-5.4,1.3c-0.6,2.9,1,5.7,4,7.1c4.4,2,8.9,1.9,13.5,1.1
	c1.4-0.2,3.4-1.9,4,0.8c0.6,2.5-1.5,3-3.4,3.5c-16,4.7-27.8-6.3-23.9-22.5c1.9-7.9,9.7-12.7,18.4-11.1c8.1,1.4,12.6,8.2,11.5,16.7
	c-0.3,2.5-1.4,3.2-3.7,3.1C248.3,108.9,245.2,109,242,109z"/>
<path class="st5" d="M53.4,144c-7.1,6-14.7,8.4-23.6,3.9c-8.7-4.4-11.8-11.8-11.5-21.1c0.1-2.2,0.9-4.6-1.3-6.4
	c-0.5-0.6-0.8-1.3-0.8-2.1c0.2-8.9-0.4-17.8,0.3-26.7c0.4-5.7,2.7-6.7,7.4-4c2.5,11,0.8,22.2,1,33.3c-0.1,2.7-0.2,5.4-0.1,8.1
	c0.1,12.2,9.9,18.4,20.9,13.1c1.7-0.8,3.2-2,5.1-2.4C53.4,140.1,54.4,141.5,53.4,144z"/>
<path class="st6" d="M87.4,66.3c2.1,3.6,0.5,7.6,1,11.3c1.2,1.7,2.8,2.9,4.7,4c7.1,4.1,11,10.2,10.2,18.4
	c-0.8,7.8-7.3,13.7-16.3,15.7c-1.9-0.8-4.7-0.8-3.3-4.1c2.1-1.7,1.6-4.1,1.6-6.3c0.1-10.5,0-21.1,0.1-31.6
	C85.3,71.1,84.9,68.3,87.4,66.3z"/>
<path class="st7" d="M90.8,120.3c5.6,17.7-11.4,31-25.1,26.2c-3.9-1.4-7.5-3.5-11.2-5.3c-1.6-0.6-2.8-2-4.7-1.9
	c-8-3.4-15-8.6-22.7-12.7c-1.6-0.9-3.2-2-3.3-4.1c1.8-5.1,5-3,7.9-1.4c8.7,4.8,17.3,9.7,26,14.6c2.9,2,5.9,3.8,9.3,4.8
	c9.8,2.7,17.3-2.5,18.3-12.6c0.2-1.6,0-3.3,0.6-4.9C86.8,120.8,87.9,118.7,90.8,120.3z"/>
<path class="st8" d="M16.9,119.1c0.1,0.5,0.1,0.9,0.2,1.4c-0.2,3.2-2.2,1.6-3.5,1.2c-7.8-2.7-12.4-8.2-13.3-16.4
	c-0.9-7.8,1.8-14.2,8.2-19c2.8-2.1,6.7-2.6,8.4-6.1c0.4-1.3,1.4-2,2.5-2.6c7.8-3.4,14.8-8.2,22.2-12.3c2.3-1.3,4.7-3,7.3-0.6
	c2.4,3.4-0.3,4.9-2.6,6.2c-8.1,4.6-16,9.5-24.1,14c-4.3,1.7-8,4.3-11.4,7.2c-7.3,6.2-6.1,17.5,2,22.9
	C14.3,116,17.3,115.9,16.9,119.1z"/>
<path class="st2" d="M19.4,78.9c-0.9,0.4-1.8,0.9-2.7,1.3c-6.4-8.5-0.1-23,11.5-26.5c5.9-1.8,11.4-0.9,16.8,2.3
	c2.6,1.5,5,3.8,8.3,4.1c0.3,0,0.6,0,0.9,0c8.3,3.8,16.1,8.6,23.9,13.3c2.1,1.3,4.6,2.9,2.6,5.9c-1.7,2.6-4,1.4-6.1,0.3
	c-8.6-5-17.6-9.4-25.8-15.1c-2.7-2-5.9-3-8.9-4.3C29.9,56,19.8,63.2,20,74.1C20.1,75.7,20.8,77.4,19.4,78.9z"/>
<path class="st4" d="M87.1,115c3.9-1.9,8.2-3.5,11-6.9c7-8.4,4.2-20.5-6-25c-2.7-1.2-4.4-2.2-3.7-5.3c10.3,2.5,16.5,8.2,17.5,17
	c1.1,9.4-2.9,16.5-11.2,21.1c-0.9,0.5-1.7,1.2-2.5,1.8c-8.5,6.6-17.9,11.9-27.3,17.1c-2.6,1.4-5.3,3.8-8.3,0.5
	c-0.8-2.4,0.5-4.2,2.3-5.2c8.5-5,16.8-10.6,25.8-14.7C85.4,114.9,86.2,114.8,87.1,115z"/>
<path class="st9" d="M57.3,134.7c2.4,2.2,4.2,0,6.1-1c9.6-5.3,19.2-10.8,28.8-16.2c-0.4,0.9-0.9,1.8-1.3,2.8
	c-2.6-0.2-3.9,0.9-3.6,3.7c1.1,8.1-1.7,14.6-9.2,17.9c-8,3.5-14.9,0-21.1-5.2C56.5,136,56.6,135.3,57.3,134.7z"/>
<path class="st10" d="M178.8,106.2c-0.1,9.7,5.7,14.1,16.4,12.4c1.6-0.2,3.9-2.4,4.7,0.4c1,3.3-2.1,3.4-4.2,4
	c-7.3,1.9-16-0.5-19.4-5.3c-4-5.7-4.2-16.1-0.4-22c3.7-5.9,16.7-9,22.7-5.5c1.3,0.7,1.8,1.7,1.5,3c-0.3,1.9-1.6,1.3-2.8,1.1
	c-2.1-0.3-4.1-0.6-6.2-0.6C182.6,94,178.8,97.9,178.8,106.2z"/>
<path class="st11" d="M309.2,91.4c5.2-2.9,10.7-3,16.3-1.3c1.6,0.5,2.6,1.4,2.3,3.1c-0.4,2.5-2.1,1.2-3.4,1.1
	c-1.2-0.1-2.5-0.3-3.7-0.4c-10.3-0.4-14.5,3.6-14,13.5c0.4,8.7,5.2,12.3,14.9,11.5c2-0.1,5.3-3.5,6.1,0.5c0.8,3.9-3.6,3.5-5.9,3.9
	c-6.9,1-13.6,0.2-18-5.9c-4.7-6.4-4.3-15.1,0.5-22.2C305.9,93.9,307.5,92.5,309.2,91.4z"/>
<path class="st12" d="M87.4,66.3c0,13.9-0.1,27.7-0.1,41.6c0,2.6,0.7,5.9-3.9,4.9c-2.3-2.4-1.7-5.4-1.8-8.2
	c-0.1-10.3,0.4-20.7-0.1-31c-0.7-12.9-6.7-17.9-19.7-17.1c-5.3-0.7-3.3-2.8-0.9-4.9C72.1,47.4,81.5,52.7,87.4,66.3z"/>
<path class="st13" d="M216.3,106.3c0,4.2,0,8.3,0,12.5c0,2.3-0.3,4.1-3.3,4c-2.8-0.1-2.8-1.9-2.8-3.8c0-6.5,0-12.9,0-19.4
	c0-2.3,0.8-5.3-3.1-5.5c-1.2-0.1-1.7-1.1-1.5-2.3c0.2-1.2,1.2-1.5,2.2-1.8c6.1-1.5,8.4,0.2,8.5,6.3
	C216.3,99.6,216.3,103,216.3,106.3z"/>
<path class="st14" d="M269.2,97.8c0,6.9,0,13.8,0,20.6c0,2,0.4,4.3-2.9,4.3c-3.1,0.1-3.2-1.8-3.2-4.1c0-8.3,0-16.7,0-25
	c0-2.5,0.5-4.2,3.5-3.5C267.3,92.7,269.8,94.7,269.2,97.8z"/>
<path class="st13" d="M288,98.9c-1.4-5.4-5.7-5.3-9.8-4.9c-2.2,0.2-4.4,0.9-6.6,1.4c-1.2-0.6-1.9-1.4-1.3-2.8
	c5.1-3.4,10.5-4.6,16.4-2.8c3.7,1.1,6.1,3.4,6.3,7.5c0.7,2.1,0.2,3.8-1.9,4.4C288.7,102.5,288.7,100.3,288,98.9z"/>
<path class="st15" d="M288,98.9c3,3.7,4.3,1.9,5-1.6c1.4,8.4,2,16.8-0.2,25.2c-3.1-4.2-1-9.2-1.8-13.4c-1,4.2,1.2,9.2-1.9,13.4
	C286.3,114.8,288.5,106.8,288,98.9z"/>
<path class="st16" d="M289.1,122.5c0-4.8,0-9.5,0-14.3c0-1.6,0.6-3.2,2.2-3.2c2.4-0.1,1.5,2,1.5,3.2c0.1,4.8,0,9.5,0,14.3
	C291.6,122.5,290.4,122.5,289.1,122.5z"/>
<path class="st17" d="M213.1,82.3c-2.2,0.1-3.3-0.8-3.2-3.2c0.1-2.2,1.4-2.6,3.2-2.7c2.3-0.1,3.4,0.8,3.3,3.2
	C216.3,81.8,215,82.4,213.1,82.3z"/>
<path class="st18" d="M60.8,51.6c1.2,1.1-4,2.8,0.3,3.7c-1.5,3.5-3.6,6-7.9,4.8c0,0,0.1,0,0.1,0c-2.3-2.3-1-4.1,1-5.4
	C56.4,53.4,58.7,52.6,60.8,51.6z"/>
<path class="st19" d="M270.3,92.6c0.4,0.9,0.9,1.9,1.3,2.8c-0.8,0.8-1.6,1.6-2.5,2.4c-1.1-2.5-4.5-4.2-2.6-7.7
	C268.8,89.4,268.7,92.2,270.3,92.6z"/>
<path class="st20" d="M424.6,113.5c5.3-3.8,10.7-2.8,16.2-0.5C435.4,112.7,429.9,111.9,424.6,113.5z"/>
<path class="st21" d="M309.2,91.4c-1.1,2-2.5,3.5-4.9,3.8C305.3,93.1,306.7,91.6,309.2,91.4z"/>
<path class="st22" d="M50.8,138.9c1.6,0.3,3.1,0.7,3.8,2.3c0,1.1-0.1,2.1-1.1,2.7c0.3-2.1-0.7-3.3-2.6-3.8
	C50.5,139.8,50.5,139.4,50.8,138.9z"/>
<path class="st23" d="M381.9,92.9c-1.1-4.8,0.6-6.9,6.1-6.5c4.8,0.4,9.1,1,8.9,6.9c-0.2,6.3-4.9,6.4-9.8,6.9
	C381,100.7,381.7,96.9,381.9,92.9z"/>
<path class="st24" d="M473.5,93.8c-0.5-4.3-0.8-8.1,5.9-7.5c6.7,0.6,9.2,2.2,9.1,7.5c-0.1,5-3,6.9-9.4,7.5
	C472.7,101.9,473.2,98.1,473.5,93.8z"/>
<path class="st25" d="M432.5,89.9c3.4,3.8,3.6,7.9,5.3,11.4c0.5,0.9,0.8,2.4-0.5,2.5c-2.9,0.3-5.8,0.3-8.7,0
	c-1.4-0.2-0.6-1.7-0.3-2.6C429.5,97.7,430.9,94.2,432.5,89.9z"/>
<path class="st26" d="M348.7,105c-1.2,0-2.5,0.1-3.7,0c-1.9-0.3-4.6,1.2-5.6-1.2c-1.1-2.7,0.1-5.3,1.9-7.4
	c2.7-3.1,11.4-3.6,14.4-0.8c2.4,2.2,2.9,5.1,2.1,8c-0.8,2.7-3.5,1.2-5.4,1.5C351.3,105.2,350,105,348.7,105z"/>
<path class="st24" d="M239.9,105.1c-1,0-2.1,0.2-3.1,0c-2.1-0.4-5.1,1.4-6.1-1.3c-0.8-2.3,0.4-4.9,1.8-7c2.9-4.1,12.5-4.1,15.6,0
	c1.6,2,2.6,4.5,1.6,7c-1,2.5-3.6,1.1-5.5,1.3C242.8,105.2,241.4,105.1,239.9,105.1z"/>
<path class="st27" d="M53.2,60c3.4-0.4,5.1-3.5,7.9-4.8c13.6-2.9,22.2,4.2,22.2,18.2c0,13.1,0,26.2,0,39.4c1.2,0.7,2.5,1.4,3.7,2.2
	c-8.4,4.9-16.8,9.8-25.1,14.8c-1.9,1.2-5,1.6-4.7,5c-0.1,0.7-0.2,1.3-0.3,2c-8.7-4.8-17.4-9.6-26-14.5c-2.3-1.3-4.6-3.5-6.6,0.4
	c-0.4,0.6-0.7,0.6-1.1,0c0-11.6-0.1-23.3-0.1-34.9c-0.4-1.4-2.2-2.3-1.3-4.1c7.9-4.7,15.8-9.5,23.7-14.2c1.7-1,4-1.6,2.7-4.5
	c-0.4-1.1-0.1-1.6,1.2-1.2c8.7,4.8,17.4,9.7,26.1,14.5c1.5,0.8,3.2,3,4.7,0.4c1.5-2.5-1.2-3-2.6-3.9C69.7,69.7,60.8,66,53.2,60z"/>
<path class="st28" d="M23.2,122.7c0.4,0,0.7,0,1.1,0c8.8,5.4,17.6,10.8,26.4,16.3c0,0.4,0,0.8,0,1.2c-6.2,6-11.4,7.2-18.6,4.1
	c-6.8-2.9-9.6-8.2-9.3-15.4C23.1,126.8,23.1,124.8,23.2,122.7z"/>
<path class="st29" d="M21.8,83.7c0.4,1.4,0.9,2.8,1.3,4.1c-3.8-2.3-4.8-0.3-4.8,3.2c0,7.5,0.1,14.9,0,22.4c0,2,0.8,4.2-1.4,5.7
	c-5.5-2.9-11-5.7-12.3-12.6c-1.4-7.1,1.2-13.6,7.5-17.5C15.2,87,18.6,85.4,21.8,83.7z"/>
<path class="st9" d="M49.5,63.9c-0.4,0.4-0.8,0.8-1.2,1.2c-2.3-1.4-3.8,0.4-5.6,1.3c-7.8,4.1-14.8,9.8-23.3,12.5
	c-2.7-7.4-0.8-13.5,5.1-18.4c5.3-4.3,12-4.4,19.2-0.2C45.7,61.3,47.5,62.6,49.5,63.9z"/>
<path class="st30" d="M75.3,100.9c3.1,9.1-2.3,12.8-8.9,17.8c-9.3,7-16.5,6.4-26.2,0.8c-7.4-4.2-8.9-8.9-10.1-16.8
	C28.2,90.3,33.7,84.7,43.3,79c6.8-4,11.9-4.7,17.9-0.1c0.5,0.4,1.1,0.7,1.7,0.9C73.5,83,78.1,89.9,75.3,100.9z"/>
<path class="st27" d="M34.4,99.8c0.8-3.5-1.9-8,1.6-10.6c5.1-3.8,10.5-9.6,16.4-9.4c5.8,0.2,12.6,4.1,16.9,8.4
	c4.1,4.1,1.7,11.4,2.5,17.3c0.5,3.7-13.9,16.5-18.1,15.1c-6.2-1.9-12.4-5.1-17.6-9C32.7,109.1,35.2,103.8,34.4,99.8z"/>
</svg>
